<?xml version="1.0" encoding="UTF-8"?>
<!--Generator: Apple Native CoreSVG 175-->
<!DOCTYPE svg
PUBLIC "-//W3C//DTD SVG 1.1//EN"
       "http://www.w3.org/Graphics/SVG/1.1/DTD/svg11.dtd">
<svg version="1.1" xmlns="http://www.w3.org/2000/svg" xmlns:xlink="http://www.w3.org/1999/xlink" width="3300" height="2200">
 <!--glyph: "", point size: 100.0, font version: "17.0d12e1", template writer version: "65.1"-->
 <g id="Notes">
  <rect height="2200" id="artboard" style="fill:white;opacity:1" width="3300" x="0" y="0"/>
  <line style="fill:none;stroke:black;opacity:1;stroke-width:0.5;" x1="263" x2="3036" y1="292" y2="292"/>
  <text style="stroke:none;fill:black;font-family:sans-serif;font-size:13;font-weight:bold;" transform="matrix(1 0 0 1 263 322)">Weight/Scale Variations</text>
  <text style="stroke:none;fill:black;font-family:sans-serif;font-size:13;text-anchor:middle;" transform="matrix(1 0 0 1 559.711 322)">Ultralight</text>
  <text style="stroke:none;fill:black;font-family:sans-serif;font-size:13;text-anchor:middle;" transform="matrix(1 0 0 1 856.422 322)">Thin</text>
  <text style="stroke:none;fill:black;font-family:sans-serif;font-size:13;text-anchor:middle;" transform="matrix(1 0 0 1 1153.13 322)">Light</text>
  <text style="stroke:none;fill:black;font-family:sans-serif;font-size:13;text-anchor:middle;" transform="matrix(1 0 0 1 1449.84 322)">Regular</text>
  <text style="stroke:none;fill:black;font-family:sans-serif;font-size:13;text-anchor:middle;" transform="matrix(1 0 0 1 1746.56 322)">Medium</text>
  <text style="stroke:none;fill:black;font-family:sans-serif;font-size:13;text-anchor:middle;" transform="matrix(1 0 0 1 2043.27 322)">Semibold</text>
  <text style="stroke:none;fill:black;font-family:sans-serif;font-size:13;text-anchor:middle;" transform="matrix(1 0 0 1 2339.98 322)">Bold</text>
  <text style="stroke:none;fill:black;font-family:sans-serif;font-size:13;text-anchor:middle;" transform="matrix(1 0 0 1 2636.69 322)">Heavy</text>
  <text style="stroke:none;fill:black;font-family:sans-serif;font-size:13;text-anchor:middle;" transform="matrix(1 0 0 1 2933.4 322)">Black</text>
  <line style="fill:none;stroke:black;opacity:1;stroke-width:0.5;" x1="263" x2="3036" y1="1903" y2="1903"/>
  <g transform="matrix(1 0 0 1 263 1933)">
   <path d="M9.24805 0.830078Q10.8691 0.830078 12.2949 0.214844Q13.7207-0.400391 14.8096-1.49414Q15.8984-2.58789 16.5186-4.01367Q17.1387-5.43945 17.1387-7.05078Q17.1387-8.66211 16.5186-10.0879Q15.8984-11.5137 14.8047-12.6074Q13.7109-13.7012 12.2852-14.3164Q10.8594-14.9316 9.23828-14.9316Q7.62695-14.9316 6.20117-14.3164Q4.77539-13.7012 3.69141-12.6074Q2.60742-11.5137 1.9873-10.0879Q1.36719-8.66211 1.36719-7.05078Q1.36719-5.43945 1.9873-4.01367Q2.60742-2.58789 3.69629-1.49414Q4.78516-0.400391 6.21094 0.214844Q7.63672 0.830078 9.24805 0.830078ZM9.24805-0.654297Q7.91992-0.654297 6.7627-1.14746Q5.60547-1.64062 4.73145-2.51953Q3.85742-3.39844 3.36426-4.56055Q2.87109-5.72266 2.87109-7.05078Q2.87109-8.37891 3.35938-9.54102Q3.84766-10.7031 4.72168-11.582Q5.5957-12.4609 6.75293-12.9541Q7.91016-13.4473 9.23828-13.4473Q10.5762-13.4473 11.7334-12.9541Q12.8906-12.4609 13.7695-11.582Q14.6484-10.7031 15.1465-9.54102Q15.6445-8.37891 15.6445-7.05078Q15.6445-5.72266 15.1514-4.56055Q14.6582-3.39844 13.7842-2.51953Q12.9102-1.64062 11.748-1.14746Q10.5859-0.654297 9.24805-0.654297ZM5.6543-7.05078Q5.6543-6.72852 5.85938-6.52832Q6.06445-6.32812 6.40625-6.32812L8.51562-6.32812L8.51562-4.20898Q8.51562-3.88672 8.71094-3.67676Q8.90625-3.4668 9.23828-3.4668Q9.56055-3.4668 9.77051-3.67676Q9.98047-3.88672 9.98047-4.20898L9.98047-6.32812L12.0898-6.32812Q12.4219-6.32812 12.627-6.52832Q12.832-6.72852 12.832-7.05078Q12.832-7.38281 12.627-7.58789Q12.4219-7.79297 12.0898-7.79297L9.98047-7.79297L9.98047-9.90234Q9.98047-10.2344 9.77051-10.4443Q9.56055-10.6543 9.23828-10.6543Q8.90625-10.6543 8.71094-10.4443Q8.51562-10.2344 8.51562-9.90234L8.51562-7.79297L6.40625-7.79297Q6.06445-7.79297 5.85938-7.58789Q5.6543-7.38281 5.6543-7.05078Z"/>
  </g>
  <g transform="matrix(1 0 0 1 281.867 1933)">
   <path d="M11.709 2.91016Q13.75 2.91016 15.5518 2.12891Q17.3535 1.34766 18.7305-0.0292969Q20.1074-1.40625 20.8887-3.20801Q21.6699-5.00977 21.6699-7.05078Q21.6699-9.0918 20.8887-10.8936Q20.1074-12.6953 18.7305-14.0723Q17.3535-15.4492 15.5469-16.2305Q13.7402-17.0117 11.6992-17.0117Q9.6582-17.0117 7.85645-16.2305Q6.05469-15.4492 4.68262-14.0723Q3.31055-12.6953 2.5293-10.8936Q1.74805-9.0918 1.74805-7.05078Q1.74805-5.00977 2.5293-3.20801Q3.31055-1.40625 4.6875-0.0292969Q6.06445 1.34766 7.86621 2.12891Q9.66797 2.91016 11.709 2.91016ZM11.709 1.25Q9.98047 1.25 8.47656 0.605469Q6.97266-0.0390625 5.83496-1.17676Q4.69727-2.31445 4.05762-3.81836Q3.41797-5.32227 3.41797-7.05078Q3.41797-8.7793 4.05762-10.2832Q4.69727-11.7871 5.83008-12.9297Q6.96289-14.0723 8.4668-14.7119Q9.9707-15.3516 11.6992-15.3516Q13.4277-15.3516 14.9316-14.7119Q16.4355-14.0723 17.5781-12.9297Q18.7207-11.7871 19.3652-10.2832Q20.0098-8.7793 20.0098-7.05078Q20.0098-5.32227 19.3701-3.81836Q18.7305-2.31445 17.5928-1.17676Q16.4551-0.0390625 14.9463 0.605469Q13.4375 1.25 11.709 1.25ZM7.17773-7.05078Q7.17773-6.69922 7.41211-6.47461Q7.64648-6.25 8.01758-6.25L10.8887-6.25L10.8887-3.36914Q10.8887-2.99805 11.1133-2.76855Q11.3379-2.53906 11.6895-2.53906Q12.0605-2.53906 12.29-2.76855Q12.5195-2.99805 12.5195-3.36914L12.5195-6.25L15.4004-6.25Q15.7715-6.25 16.001-6.47461Q16.2305-6.69922 16.2305-7.05078Q16.2305-7.42188 16.001-7.65137Q15.7715-7.88086 15.4004-7.88086L12.5195-7.88086L12.5195-10.752Q12.5195-11.1328 12.29-11.3623Q12.0605-11.5918 11.6895-11.5918Q11.3379-11.5918 11.1133-11.3574Q10.8887-11.123 10.8887-10.752L10.8887-7.88086L8.01758-7.88086Q7.63672-7.88086 7.40723-7.65137Q7.17773-7.42188 7.17773-7.05078Z"/>
  </g>
  <g transform="matrix(1 0 0 1 305.646 1933)">
   <path d="M14.9707 5.66406Q17.0605 5.66406 18.96 5.01465Q20.8594 4.36523 22.4512 3.19336Q24.043 2.02148 25.2197 0.429688Q26.3965-1.16211 27.0459-3.06641Q27.6953-4.9707 27.6953-7.05078Q27.6953-9.14062 27.0459-11.04Q26.3965-12.9395 25.2197-14.5312Q24.043-16.123 22.4512-17.2998Q20.8594-18.4766 18.9551-19.126Q17.0508-19.7754 14.9609-19.7754Q12.8711-19.7754 10.9717-19.126Q9.07227-18.4766 7.48535-17.2998Q5.89844-16.123 4.72168-14.5312Q3.54492-12.9395 2.90039-11.04Q2.25586-9.14062 2.25586-7.05078Q2.25586-4.9707 2.90527-3.06641Q3.55469-1.16211 4.72656 0.429688Q5.89844 2.02148 7.49023 3.19336Q9.08203 4.36523 10.9814 5.01465Q12.8809 5.66406 14.9707 5.66406ZM14.9707 3.84766Q13.1641 3.84766 11.5283 3.2959Q9.89258 2.74414 8.53516 1.74805Q7.17773 0.751953 6.17676-0.610352Q5.17578-1.97266 4.62891-3.6084Q4.08203-5.24414 4.08203-7.05078Q4.08203-8.86719 4.62891-10.5029Q5.17578-12.1387 6.17188-13.501Q7.16797-14.8633 8.52539-15.8594Q9.88281-16.8555 11.5186-17.4023Q13.1543-17.9492 14.9609-17.9492Q16.7773-17.9492 18.4131-17.4023Q20.0488-16.8555 21.4111-15.8594Q22.7734-14.8633 23.7695-13.501Q24.7656-12.1387 25.3174-10.5029Q25.8691-8.86719 25.8691-7.05078Q25.8789-5.24414 25.332-3.6084Q24.7852-1.97266 23.7842-0.610352Q22.7832 0.751953 21.4209 1.74805Q20.0586 2.74414 18.4229 3.2959Q16.7871 3.84766 14.9707 3.84766ZM9.19922-7.05078Q9.19922-6.66992 9.45801-6.4209Q9.7168-6.17188 10.1172-6.17188L14.0625-6.17188L14.0625-2.2168Q14.0625-1.81641 14.3115-1.55762Q14.5605-1.29883 14.9512-1.29883Q15.3516-1.29883 15.6104-1.55273Q15.8691-1.80664 15.8691-2.2168L15.8691-6.17188L19.8242-6.17188Q20.2246-6.17188 20.4785-6.4209Q20.7324-6.66992 20.7324-7.05078Q20.7324-7.46094 20.4785-7.71484Q20.2246-7.96875 19.8242-7.96875L15.8691-7.96875L15.8691-11.9141Q15.8691-12.3242 15.6104-12.583Q15.3516-12.8418 14.9512-12.8418Q14.5605-12.8418 14.3115-12.583Q14.0625-12.3242 14.0625-11.9141L14.0625-7.96875L10.1172-7.96875Q9.70703-7.96875 9.45312-7.71484Q9.19922-7.46094 9.19922-7.05078Z"/>
  </g>
  <text style="stroke:none;fill:black;font-family:sans-serif;font-size:13;font-weight:bold;" transform="matrix(1 0 0 1 263 1953)">Design Variations</text>
  <text style="stroke:none;fill:black;font-family:sans-serif;font-size:13;" transform="matrix(1 0 0 1 263 1971)">Symbols are supported in up to nine weights and three scales.</text>
  <text style="stroke:none;fill:black;font-family:sans-serif;font-size:13;" transform="matrix(1 0 0 1 263 1989)">For optimal layout with text and other symbols, vertically align</text>
  <text style="stroke:none;fill:black;font-family:sans-serif;font-size:13;" transform="matrix(1 0 0 1 263 2007)">symbols with the adjacent text.</text>
  <line style="fill:none;stroke:#00AEEF;stroke-width:0.5;opacity:1.0;" x1="776" x2="776" y1="1919" y2="1933"/>
  <g transform="matrix(1 0 0 1 776 1933)">
   <path d="M3.31055 0.15625Q3.70117 0.15625 3.91602-0.00976562Q4.13086-0.175781 4.26758-0.585938L5.52734-4.0332L11.2891-4.0332L12.5488-0.585938Q12.6855-0.175781 12.9004-0.00976562Q13.1152 0.15625 13.4961 0.15625Q13.8867 0.15625 14.1162-0.0585938Q14.3457-0.273438 14.3457-0.644531Q14.3457-0.869141 14.2383-1.17188L9.6582-13.3691Q9.48242-13.8184 9.17969-14.043Q8.87695-14.2676 8.4082-14.2676Q7.5-14.2676 7.17773-13.3789L2.59766-1.16211Q2.49023-0.859375 2.49023-0.634766Q2.49023-0.263672 2.70996-0.0537109Q2.92969 0.15625 3.31055 0.15625ZM6.00586-5.51758L8.37891-12.0898L8.42773-12.0898L10.8008-5.51758Z"/>
  </g>
  <line style="fill:none;stroke:#00AEEF;stroke-width:0.5;opacity:1.0;" x1="793.197" x2="793.197" y1="1919" y2="1933"/>
  <text style="stroke:none;fill:black;font-family:sans-serif;font-size:13;font-weight:bold;" transform="matrix(1 0 0 1 776 1953)">Margins</text>
  <text style="stroke:none;fill:black;font-family:sans-serif;font-size:13;" transform="matrix(1 0 0 1 776 1971)">Leading and trailing margins on the left and right side of each symbol</text>
  <text style="stroke:none;fill:black;font-family:sans-serif;font-size:13;" transform="matrix(1 0 0 1 776 1989)">can be adjusted by modifying the x-location of the margin guidelines.</text>
  <text style="stroke:none;fill:black;font-family:sans-serif;font-size:13;" transform="matrix(1 0 0 1 776 2007)">Modifications are automatically applied proportionally to all</text>
  <text style="stroke:none;fill:black;font-family:sans-serif;font-size:13;" transform="matrix(1 0 0 1 776 2025)">scales and weights.</text>
  <g transform="matrix(1 0 0 1 1289 1933)">
   <path d="M2.8418 1.86523L4.54102 3.57422Q5.18555 4.22852 5.90332 4.17969Q6.62109 4.13086 7.31445 3.35938L18.0078-8.42773L17.041-9.4043L6.42578 2.27539Q6.16211 2.57812 5.89355 2.61719Q5.625 2.65625 5.27344 2.30469L4.10156 1.14258Q3.75 0.791016 3.79395 0.522461Q3.83789 0.253906 4.14062-0.0195312L15.6152-10.8203L14.6387-11.7871L3.04688-0.898438Q2.30469-0.214844 2.25098 0.498047Q2.19727 1.21094 2.8418 1.86523ZM9.25781-16.3281Q8.94531-16.0254 8.90625-15.6348Q8.86719-15.2441 9.04297-14.9512Q9.21875-14.6777 9.55566-14.541Q9.89258-14.4043 10.3809-14.5215Q11.4746-14.7754 12.5977-14.7314Q13.7207-14.6875 14.7949-13.9844L14.209-12.5293Q13.9551-11.9043 14.0674-11.4404Q14.1797-10.9766 14.5801-10.5664L16.875-8.25195Q17.2363-7.88086 17.5781-7.82227Q17.9199-7.76367 18.3398-7.8418L19.4043-8.03711L20.0684-7.36328L20.0293-6.80664Q20-6.43555 20.1221-6.12305Q20.2441-5.81055 20.6055-5.44922L21.3672-4.70703Q21.7285-4.3457 22.1533-4.33105Q22.5781-4.31641 22.9297-4.66797L25.8398-7.58789Q26.1914-7.93945 26.1816-8.35449Q26.1719-8.76953 25.8105-9.13086L25.0391-9.89258Q24.6875-10.2539 24.3799-10.3857Q24.0723-10.5176 23.7109-10.4883L23.1348-10.4395L22.4902-11.0742L22.7344-12.1973Q22.832-12.6172 22.6953-12.9834Q22.5586-13.3496 22.1191-13.7891L19.9219-15.9766Q18.6719-17.2168 17.2607-17.8369Q15.8496-18.457 14.4189-18.4814Q12.9883-18.5059 11.665-17.959Q10.3418-17.4121 9.25781-16.3281ZM10.752-15.957Q11.6602-16.6211 12.7002-16.9043Q13.7402-17.1875 14.8047-17.085Q15.8691-16.9824 16.8701-16.5137Q17.8711-16.0449 18.7012-15.2051L21.1328-12.793Q21.3086-12.6172 21.3525-12.4512Q21.3965-12.2852 21.3379-12.0312L21.0156-10.5469L22.5195-9.0625L23.5059-9.12109Q23.6914-9.13086 23.7891-9.09668Q23.8867-9.0625 24.0332-8.91602L24.6094-8.33984L22.168-5.89844L21.5918-6.47461Q21.4453-6.62109 21.4062-6.71875Q21.3672-6.81641 21.377-7.01172L21.4453-7.98828L19.9512-9.47266L18.4277-9.21875Q18.1836-9.16992 18.042-9.2041Q17.9004-9.23828 17.7148-9.41406L15.7129-11.416Q15.5176-11.5918 15.4932-11.7529Q15.4688-11.9141 15.5859-12.1875L16.4648-14.2773Q15.293-15.3711 13.8281-15.791Q12.3633-16.2109 10.8398-15.7617Q10.7227-15.7324 10.6885-15.8057Q10.6543-15.8789 10.752-15.957Z"/>
  </g>
  <text style="stroke:none;fill:black;font-family:sans-serif;font-size:13;font-weight:bold;" transform="matrix(1 0 0 1 1289 1953)">Exporting</text>
  <text style="stroke:none;fill:black;font-family:sans-serif;font-size:13;" transform="matrix(1 0 0 1 1289 1971)">Symbols should be outlined when exporting to ensure the</text>
  <text style="stroke:none;fill:black;font-family:sans-serif;font-size:13;" transform="matrix(1 0 0 1 1289 1989)">design is preserved when submitting to Xcode.</text>
  <text id="template-version" style="stroke:none;fill:black;font-family:sans-serif;font-size:13;text-anchor:end;" transform="matrix(1 0 0 1 3036 1933)">Template v.3.0</text>
  <text style="stroke:none;fill:black;font-family:sans-serif;font-size:13;text-anchor:end;" transform="matrix(1 0 0 1 3036 1951)">Requires Xcode 13 or greater</text>
  <text id="descriptive-name" style="stroke:none;fill:black;font-family:sans-serif;font-size:13;text-anchor:end;" transform="matrix(1 0 0 1 3036 1969)">Generated from custom.info.circle.fill</text>
  <text style="stroke:none;fill:black;font-family:sans-serif;font-size:13;text-anchor:end;" transform="matrix(1 0 0 1 3036 1987)">Typeset at 100 points</text>
  <text style="stroke:none;fill:black;font-family:sans-serif;font-size:13;" transform="matrix(1 0 0 1 263 726)">Small</text>
  <text style="stroke:none;fill:black;font-family:sans-serif;font-size:13;" transform="matrix(1 0 0 1 263 1156)">Medium</text>
  <text style="stroke:none;fill:black;font-family:sans-serif;font-size:13;" transform="matrix(1 0 0 1 263 1586)">Large</text>
 </g>
 <g id="Guides">
  <g id="H-reference" style="fill:#27AAE1;stroke:none;" transform="matrix(1 0 0 1 339 696)">
   <path d="M0.993347 0L3.6377 0L29.3282-67.1326L30.0301-67.1326L30.0301-70.459L28.1227-70.459ZM11.6882-24.4797L46.9818-24.4797L46.2311-26.7288L12.4382-26.7288ZM55.1193 0L57.7637 0L30.6381-70.459L29.4327-70.459L29.4327-67.1326Z"/>
  </g>
  <line id="Baseline-S" style="fill:none;stroke:#27AAE1;opacity:1;stroke-width:0.5;" x1="263" x2="3036" y1="696" y2="696"/>
  <line id="Capline-S" style="fill:none;stroke:#27AAE1;opacity:1;stroke-width:0.5;" x1="263" x2="3036" y1="625.541" y2="625.541"/>
  <g id="H-reference" style="fill:#27AAE1;stroke:none;" transform="matrix(1 0 0 1 339 1126)">
   <path d="M0.993347 0L3.6377 0L29.3282-67.1326L30.0301-67.1326L30.0301-70.459L28.1227-70.459ZM11.6882-24.4797L46.9818-24.4797L46.2311-26.7288L12.4382-26.7288ZM55.1193 0L57.7637 0L30.6381-70.459L29.4327-70.459L29.4327-67.1326Z"/>
  </g>
  <line id="Baseline-M" style="fill:none;stroke:#27AAE1;opacity:1;stroke-width:0.5;" x1="263" x2="3036" y1="1126" y2="1126"/>
  <line id="Capline-M" style="fill:none;stroke:#27AAE1;opacity:1;stroke-width:0.5;" x1="263" x2="3036" y1="1055.54" y2="1055.54"/>
  <g id="H-reference" style="fill:#27AAE1;stroke:none;" transform="matrix(1 0 0 1 339 1556)">
   <path d="M0.993347 0L3.6377 0L29.3282-67.1326L30.0301-67.1326L30.0301-70.459L28.1227-70.459ZM11.6882-24.4797L46.9818-24.4797L46.2311-26.7288L12.4382-26.7288ZM55.1193 0L57.7637 0L30.6381-70.459L29.4327-70.459L29.4327-67.1326Z"/>
  </g>
  <line id="Baseline-L" style="fill:none;stroke:#27AAE1;opacity:1;stroke-width:0.5;" x1="263" x2="3036" y1="1556" y2="1556"/>
  <line id="Capline-L" style="fill:none;stroke:#27AAE1;opacity:1;stroke-width:0.5;" x1="263" x2="3036" y1="1485.54" y2="1485.54"/>
  <line id="left-margin-Regular-M" style="fill:none;stroke:#00AEEF;stroke-width:0.5;opacity:1.0;" x1="1391.32" x2="1391.32" y1="1030.78" y2="1150.12"/>
  <line id="right-margin-Regular-M" style="fill:none;stroke:#00AEEF;stroke-width:0.5;opacity:1.0;" x1="1508.37" x2="1508.37" y1="1030.78" y2="1150.12"/>
 </g>
 <g id="Symbols">
  <g id="Black-L" transform="matrix(1 0 0 1 2854.19 1556)">
   <path d="M79.1953 32.7256Q93.2356 32.7256 105.521 27.4306Q117.806 22.1357 127.174 12.7574Q136.542 3.37908 141.848-8.90618Q147.154-21.1914 147.154-35.211Q147.154-49.2305 141.848-61.5158Q136.542-73.801 127.164-83.1794Q117.785-92.5577 105.5-97.8526Q93.2149-103.148 79.1746-103.148Q65.1563-103.148 52.8704-97.8526Q40.5846-92.5577 31.2276-83.1794Q21.8707-73.801 16.5647-61.5158Q11.2588-49.2305 11.2588-35.211Q11.2588-21.1914 16.5647-8.90618Q21.8707 3.37908 31.2379 12.7574Q40.6053 22.1357 52.8911 27.4306Q65.177 32.7256 79.1953 32.7256ZM66.9359 0.202126Q64.0064 0.202126 61.9585-1.66931Q59.9106-3.54074 59.9106-6.66486Q59.9106-9.51395 61.9585-11.4938Q64.0064-13.4735 66.9359-13.4735L73.7915-13.4735L73.7915-32.443L68.3252-32.443Q65.3362-32.443 63.2889-34.354Q61.2416-36.265 61.2416-39.3307Q61.2416-42.1811 63.2889-44.1499Q65.3362-46.1186 68.3252-46.1186L81.5278-46.1186Q85.3629-46.1186 87.331-43.7055Q89.2992-41.2924 89.2992-37.2225L89.2992-13.4735L93.9353-13.4735Q96.9232-13.4735 98.9522-11.4938Q100.981-9.51395 100.981-6.66486Q100.981-3.54074 98.9522-1.66931Q96.9232 0.202126 93.9353 0.202126ZM79.3787-54.1043Q75.003-54.1043 71.8343-57.2834Q68.6656-60.4624 68.6656-64.7796Q68.6656-69.3512 71.8343-72.4725Q75.003-75.5937 79.3787-75.5937Q83.7543-75.5937 86.8951-72.4725Q90.0358-69.3512 90.0358-64.7796Q90.0358-60.4624 86.8951-57.2834Q83.7543-54.1043 79.3787-54.1043Z"/>
  </g>
  <g id="Heavy-L" transform="matrix(1 0 0 1 2558.42 1556)">
   <path d="M78.251 31.7675Q92.0879 31.7675 104.202 26.5467Q116.316 21.3259 125.559 12.0681Q134.802 2.81022 140.04-9.30372Q145.279-21.4177 145.279-35.2248Q145.279-49.0319 140.04-61.1459Q134.802-73.2597 125.544-82.5176Q116.286-91.7754 104.172-96.9962Q92.0582-102.217 78.2213-102.217Q64.4202-102.217 52.3033-96.9962Q40.1864-91.7754 30.9612-82.5176Q21.7362-73.2597 16.4975-61.1459Q11.2588-49.0319 11.2588-35.2248Q11.2588-21.4177 16.4975-9.30372Q21.7362 2.81022 30.9761 12.0681Q40.2161 21.3259 52.333 26.5467Q64.45 31.7675 78.251 31.7675ZM66.1975 0.23885Q63.5189 0.23885 61.6499-1.47697Q59.7808-3.19279 59.7808-6.02895Q59.7808-8.62715 61.6499-10.4397Q63.5189-12.2522 66.1975-12.2522L73.4098-12.2522L73.4098-33.9646L67.507-33.9646Q64.7779-33.9646 62.9118-35.7176Q61.0458-37.4706 61.0458-40.2621Q61.0458-42.8664 62.9118-44.661Q64.7779-46.4556 67.507-46.4556L80.4899-46.4556Q83.963-46.4556 85.7545-44.2563Q87.5462-42.057 87.5462-38.3729L87.5462-12.2522L93.0629-12.2522Q95.7861-12.2522 97.6476-10.4397Q99.5092-8.62715 99.5092-6.02895Q99.5092-3.19279 97.6476-1.47697Q95.7861 0.23885 93.0629 0.23885ZM78.2747-55.1641Q74.128-55.1641 71.1572-58.1497Q68.1864-61.1354 68.1864-65.2374Q68.1864-69.5477 71.1572-72.4918Q74.128-75.4357 78.2747-75.4357Q82.4214-75.4357 85.3758-72.4918Q88.3303-69.5477 88.3303-65.2374Q88.3303-61.1354 85.3758-58.1497Q82.4214-55.1641 78.2747-55.1641Z"/>
  </g>
  <g id="Bold-L" transform="matrix(1 0 0 1 2262.89 1556)">
   <path d="M77.0652 30.5663Q90.6516 30.5663 102.549 25.4399Q114.447 20.3136 123.533 11.2092Q132.619 2.1048 137.771-9.79304Q142.923-21.6909 142.923-35.2402Q142.923-48.7895 137.771-60.6874Q132.619-72.5852 123.515-81.6896Q114.41-90.7939 102.512-95.9203Q90.6146-101.047 77.0283-101.047Q63.4932-101.047 51.5882-95.9203Q39.6833-90.7939 30.623-81.6896Q21.5627-72.5852 16.4107-60.6874Q11.2588-48.7895 11.2588-35.2402Q11.2588-21.6909 16.4107-9.79304Q21.5627 2.1048 30.6414 11.2092Q39.7203 20.3136 51.6252 25.4399Q63.5302 30.5663 77.0652 30.5663ZM65.2247 0.193585Q62.8785 0.193585 61.2471-1.3165Q59.6156-2.82658 59.6156-5.28305Q59.6156-7.5488 61.2471-9.13969Q62.8785-10.7306 65.2247-10.7306L72.9772-10.7306L72.9772-35.9372L66.4133-35.9372Q64.0238-35.9372 62.3994-37.4804Q60.7751-39.0235 60.7751-41.4508Q60.7751-43.7308 62.3994-45.2961Q64.0238-46.8613 66.4133-46.8613L79.1677-46.8613Q82.1667-46.8613 83.7248-44.9473Q85.283-43.0332 85.283-39.8642L85.283-10.7306L91.9257-10.7306Q94.3011-10.7306 95.9364-9.13969Q97.5718-7.5488 97.5718-5.28305Q97.5718-2.82658 95.9364-1.3165Q94.3011 0.193585 91.9257 0.193585ZM76.9303-56.4906Q73.1118-56.4906 70.4113-59.2095Q67.7108-61.9285 67.7108-65.7178Q67.7108-69.661 70.4113-72.3579Q73.1118-75.0546 76.9303-75.0546Q80.7489-75.0546 83.449-72.3579Q86.149-69.661 86.149-65.7178Q86.149-61.9285 83.449-59.2095Q80.7489-56.4906 76.9303-56.4906Z"/>
  </g>
  <g id="Semibold-L" transform="matrix(1 0 0 1 1966.99 1556)">
   <path d="M76.2478 29.7382Q89.6614 29.7382 101.41 24.6769Q113.159 19.6157 122.137 10.6171Q131.114 1.61849 136.206-10.1304Q141.299-21.8792 141.299-35.2508Q141.299-48.6224 136.206-60.3713Q131.114-72.1201 122.116-81.1187Q113.117-90.1173 101.368-95.1785Q89.6194-100.24 76.2058-100.24Q62.8541-100.24 51.0953-95.1785Q39.3366-90.1173 30.3898-81.1187Q21.4431-72.1201 16.351-60.3713Q11.2588-48.6224 11.2588-35.2508Q11.2588-21.8792 16.351-10.1304Q21.4431 1.61849 30.4107 10.6171Q39.3785 19.6157 51.1373 24.6769Q62.896 29.7382 76.2478 29.7382ZM64.554 0.162379Q62.4371 0.162379 60.9694-1.20587Q59.5016-2.57412 59.5016-4.76883Q59.5016-6.8054 60.9694-8.24348Q62.4371-9.6816 64.554-9.6816L72.6789-9.6816L72.6789-37.2971L65.6592-37.2971Q63.504-37.2971 62.0461-38.6956Q60.5884-40.0941 60.5884-42.2703Q60.5884-44.3267 62.0461-45.7339Q63.504-47.141 65.6592-47.141L78.2563-47.141Q80.9283-47.141 82.3255-45.4236Q83.7228-43.7062 83.7228-40.8923L83.7228-9.6816L91.1418-9.6816Q93.2774-9.6816 94.7567-8.24348Q96.2361-6.8054 96.2361-4.76883Q96.2361-2.57412 94.7567-1.20587Q93.2774 0.162379 91.1418 0.162379ZM76.0035-57.4051Q72.4112-57.4051 69.8971-59.9402Q67.3829-62.4752 67.3829-66.049Q67.3829-69.7391 69.8971-72.2655Q72.4112-74.7919 76.0035-74.7919Q79.5959-74.7919 82.1206-72.2655Q84.6453-69.7391 84.6453-66.049Q84.6453-62.4752 82.1206-59.9402Q79.5959-57.4051 76.0035-57.4051Z"/>
  </g>
  <g id="Medium-L" transform="matrix(1 0 0 1 1670.89 1556)">
   <path d="M75.6279 29.1103Q88.9105 29.1103 100.546 24.0984Q112.182 19.0865 121.078 10.1681Q129.973 1.24974 135.02-10.3861Q140.067-22.022 140.067-35.2589Q140.067-48.4957 135.02-60.1317Q129.973-71.7675 121.055-80.6859Q112.137-89.6042 100.501-94.6161Q88.8648-99.628 75.5822-99.628Q62.3695-99.628 50.7215-94.6161Q39.0736-89.6042 30.213-80.6859Q21.3525-71.7675 16.3056-60.1317Q11.2588-48.4957 11.2588-35.2589Q11.2588-22.022 16.3056-10.3861Q21.3525 1.24974 30.2358 10.1681Q39.1193 19.0865 50.7673 24.0984Q62.4152 29.1103 75.6279 29.1103ZM64.0455 0.138718Q62.1024 0.138718 60.7588-1.12199Q59.4152-2.38269 59.4152-4.37893Q59.4152-6.24171 60.7588-7.56393Q62.1024-8.88621 64.0455-8.88621L72.4527-8.88621L72.4527-38.3283L65.0875-38.3283Q63.1098-38.3283 61.7782-39.6171Q60.4469-40.9059 60.4469-42.8917Q60.4469-44.7786 61.7782-46.0658Q63.1098-47.3531 65.0875-47.3531L77.5651-47.3531Q79.9894-47.3531 81.2646-45.7848Q82.5398-44.2164 82.5398-41.6718L82.5398-8.88621L90.5474-8.88621Q92.5011-8.88621 93.8622-7.56393Q95.2234-6.24171 95.2234-4.37893Q95.2234-2.38269 93.8622-1.12199Q92.5011 0.138718 90.5474 0.138718ZM75.3008-58.0985Q71.88-58.0985 69.5072-60.4942Q67.1343-62.8898 67.1343-66.3002Q67.1343-69.7983 69.5072-72.1955Q71.88-74.5927 75.3008-74.5927Q78.7217-74.5927 81.1133-72.1955Q83.5051-69.7983 83.5051-66.3002Q83.5051-62.8898 81.1133-60.4942Q78.7217-58.0985 75.3008-58.0985Z"/>
  </g>
  <g id="Regular-L" transform="matrix(1 0 0 1 1374.99 1556)">
   <path d="M74.8194 28.2913Q87.9312 28.2913 99.4198 23.3438Q110.908 18.3963 119.697 9.58254Q128.485 0.768773 133.473-10.7198Q138.461-22.2083 138.461-35.2694Q138.461-48.3305 133.473-59.8191Q128.485-71.3076 119.671-80.1213Q110.858-88.935 99.3691-93.8825Q87.8806-98.83 74.7688-98.83Q61.7374-98.83 50.234-93.8825Q38.7306-88.935 29.9823-80.1213Q21.2342-71.3076 16.2465-59.8191Q11.2588-48.3305 11.2588-35.2694Q11.2588-22.2083 16.2465-10.7198Q21.2342 0.768773 30.0077 9.58254Q38.7813 18.3963 50.2847 23.3438Q61.7881 28.2913 74.8194 28.2913ZM63.3822 0.107855Q61.6657 0.107855 60.4842-1.01257Q59.3025-2.133 59.3025-3.87036Q59.3025-5.50648 60.4842-6.67756Q61.6657-7.84874 63.3822-7.84874L72.1577-7.84874L72.1577-39.6732L64.3418-39.6732Q62.5956-39.6732 61.4289-40.819Q60.2622-41.9647 60.2622-43.7022Q60.2622-45.3679 61.4289-46.4988Q62.5956-47.6297 64.3418-47.6297L76.6636-47.6297Q78.7646-47.6297 79.8807-46.2559Q80.9967-44.882 80.9967-42.6886L80.9967-7.84874L89.7721-7.84874Q91.4886-7.84874 92.6955-6.67756Q93.9024-5.50648 93.9024-3.87036Q93.9024-2.133 92.6955-1.01257Q91.4886 0.107855 89.7721 0.107855ZM74.3842-59.0029Q71.1871-59.0029 68.9986-61.2168Q66.81-63.4306 66.81-66.6277Q66.81-69.8755 68.9986-72.1042Q71.1871-74.3329 74.3842-74.3329Q77.5814-74.3329 79.7996-72.1042Q82.0179-69.8755 82.0179-66.6277Q82.0179-63.4306 79.7996-61.2168Q77.5814-59.0029 74.3842-59.0029Z"/>
  </g>
  <g id="Light-L" transform="matrix(1 0 0 1 1079.2 1556)">
   <path d="M73.896 27.3678Q86.8435 27.3678 98.1577 22.5024Q109.472 17.637 118.137 8.95662Q126.802 0.276277 131.708-11.0378Q136.614-22.352 136.614-35.2694Q136.614-48.1869 131.708-59.5009Q126.802-70.8151 118.122-79.4954Q109.442-88.1757 98.1275-93.0411Q86.8134-97.9065 73.8658-97.9065Q60.9986-97.9065 49.6594-93.0411Q38.3202-88.1757 29.695-79.4954Q21.07-70.8151 16.1644-59.5009Q11.2588-48.1869 11.2588-35.2694Q11.2588-22.352 16.1644-11.0378Q21.07 0.276277 29.7101 8.95662Q38.3503 17.637 49.6896 22.5024Q61.0288 27.3678 73.896 27.3678ZM62.3356-0.507827Q60.9885-0.507827 60.0737-1.40252Q59.1589-2.29721 59.1589-3.62411Q59.1589-4.89083 60.0737-5.81567Q60.9885-6.74056 62.3356-6.74056L72.1166-6.74056L72.1166-41.6023L63.0694-41.6023Q61.6721-41.6023 60.7824-42.512Q59.8928-43.4218 59.8928-44.7488Q59.8928-46.0657 60.7824-46.9503Q61.6721-47.8349 63.0694-47.8349L75.5144-47.8349Q77.1228-47.8349 77.9824-46.7895Q78.8419-45.744 78.8419-44.1457L78.8419-6.74056L88.6229-6.74056Q89.97-6.74056 90.8998-5.81567Q91.8296-4.89083 91.8296-3.62411Q91.8296-2.29721 90.8998-1.40252Q89.97-0.507827 88.6229-0.507827ZM73.6044-60.0085Q70.9204-60.0085 69.0807-61.8632Q67.241-63.7179 67.241-66.402Q67.241-69.1162 69.0807-70.996Q70.9204-72.8759 73.6044-72.8759Q76.2885-72.8759 78.1783-70.996Q80.0683-69.1162 80.0683-66.402Q80.0683-63.7179 78.1783-61.8632Q76.2885-60.0085 73.6044-60.0085Z"/>
  </g>
  <g id="Thin-L" transform="matrix(1 0 0 1 783.716 1556)">
   <path d="M72.6746 26.1464Q85.405 26.1464 96.4885 21.3895Q107.572 16.6327 116.074 8.12879Q124.577-0.375088 129.374-11.4585Q134.171-22.542 134.171-35.2694Q134.171-47.9969 129.374-59.0802Q124.577-70.1636 116.073-78.6676Q107.569-87.1714 96.4854-91.9283Q85.402-96.6851 72.6716-96.6851Q60.0215-96.6851 48.8994-91.9283Q37.7773-87.1714 29.315-78.6676Q20.8529-70.1636 16.0558-59.0802Q11.2588-47.9969 11.2588-35.2694Q11.2588-22.542 16.0558-11.4585Q20.8529-0.375088 29.3165 8.12879Q37.7803 16.6327 48.9024 21.3895Q60.0246 26.1464 72.6746 26.1464ZM60.9514-1.32212Q60.0929-1.32212 59.5309-1.91825Q58.9689-2.51439 58.9689-3.29843Q58.9689-4.0766 59.5309-4.67575Q60.0929-5.27491 60.9514-5.27491L72.0623-5.27491L72.0623-44.1536L61.3866-44.1536Q60.4507-44.1536 59.9274-44.7512Q59.4043-45.3489 59.4043-46.1331Q59.4043-46.9884 59.9274-47.5474Q60.4507-48.1064 61.3866-48.1064L73.9944-48.1064Q74.9515-48.1064 75.4717-47.4952Q75.992-46.8839 75.992-46.0727L75.992-5.27491L87.1029-5.27491Q87.9615-5.27491 88.5249-4.67575Q89.0883-4.0766 89.0883-3.29843Q89.0883-2.51439 88.5249-1.91825Q87.9615-1.32212 87.1029-1.32212ZM72.5729-61.3385Q70.5676-61.3385 69.1893-62.7181Q67.811-64.0979 67.811-66.1034Q67.811-68.112 69.1893-69.5303Q70.5676-70.9488 72.5729-70.9488Q74.5785-70.9488 76.0341-69.5303Q77.4898-68.112 77.4898-66.1034Q77.4898-64.0979 76.0341-62.7181Q74.5785-61.3385 72.5729-61.3385Z"/>
  </g>
  <g id="Ultralight-L" transform="matrix(1 0 0 1 487.632 1556)">
   <path d="M72.049 25.5208Q84.6682 25.5208 95.6335 20.8196Q106.599 16.1183 115.018 7.70478Q123.437-0.708714 128.178-11.674Q132.919-22.6393 132.919-35.2694Q132.919-47.8996 128.178-58.8647Q123.437-69.83 115.023-78.2436Q106.609-86.657 95.6444-91.3584Q84.6791-96.0595 72.0599-96.0595Q59.5211-96.0595 48.5102-91.3584Q37.4993-86.657 29.1204-78.2436Q20.7417-69.83 16.0002-58.8647Q11.2588-47.8996 11.2588-35.2694Q11.2588-22.6393 16.0002-11.674Q20.7417-0.708714 29.115 7.70478Q37.4884 16.1183 48.4993 20.8196Q59.5102 25.5208 72.049 25.5208ZM60.2424-1.73919Q59.6341-1.73919 59.2528-2.18241Q58.8716-2.62563 58.8716-3.13162Q58.8716-3.65955 59.2528-4.09189Q59.6341-4.52421 60.2424-4.52421L72.0345-4.52421L72.0345-45.4604L60.5247-45.4604Q59.8251-45.4604 59.4895-45.8981Q59.1541-46.3359 59.1541-46.8421Q59.1541-47.4611 59.4895-47.8532Q59.8251-48.2454 60.5247-48.2454L73.2159-48.2454Q73.8393-48.2454 74.1858-47.8566Q74.5323-47.4678 74.5323-47.0598L74.5323-4.52421L86.3244-4.52421Q86.9327-4.52421 87.3085-4.09189Q87.6842-3.65955 87.6842-3.13162Q87.6842-2.62563 87.3085-2.18241Q86.9327-1.73919 86.3244-1.73919ZM72.0447-62.0197Q70.3868-62.0197 69.2449-63.156Q68.1029-64.2925 68.1029-65.9505Q68.1029-67.5976 69.2449-68.7796Q70.3868-69.9617 72.0447-69.9617Q73.7027-69.9617 74.9359-68.7796Q76.1691-67.5976 76.1691-65.9505Q76.1691-64.2925 74.9359-63.156Q73.7027-62.0197 72.0447-62.0197Z"/>
  </g>
  <g id="Black-M" transform="matrix(1 0 0 1 2871.35 1126)">
   <path d="M62.0423 18.1163Q73.0725 18.1163 82.714 13.9615Q92.3555 9.80668 99.704 2.45545Q107.052-4.89575 111.21-14.5373Q115.367-24.1788 115.367-35.2034Q115.367-46.2281 111.21-55.8696Q107.052-65.511 99.7012-72.8623Q92.35-80.2135 82.7085-84.3683Q73.067-88.5231 62.0368-88.5231Q51.0119-88.5231 41.3705-84.3683Q31.7292-80.2135 24.3833-72.8623Q17.0375-65.511 12.88-55.8696Q8.72266-46.2281 8.72266-35.2034Q8.72266-24.1788 12.88-14.5373Q17.0375-4.89575 24.386 2.45545Q31.7347 9.80668 41.376 13.9615Q51.0174 18.1163 62.0423 18.1163ZM52.3509-7.89422Q49.9157-7.89422 48.2115-9.44726Q46.5073-11.0003 46.5073-13.6126Q46.5073-15.9854 48.2115-17.6297Q49.9157-19.2738 52.3509-19.2738L57.4918-19.2738L57.4918-32.0245L53.4653-32.0245Q50.9734-32.0245 49.269-33.6088Q47.5646-35.1931 47.5646-37.7483Q47.5646-40.1209 49.269-41.7626Q50.9734-43.4041 53.4653-43.4041L63.8992-43.4041Q67.115-43.4041 68.7566-41.3953Q70.3985-39.3865 70.3985-35.9823L70.3985-19.2738L73.3697-19.2738Q75.862-19.2738 77.5403-17.6297Q79.2188-15.9854 79.2188-13.6126Q79.2188-11.0003 77.5403-9.44726Q75.862-7.89422 73.3697-7.89422ZM62.3411-49.0782Q58.8238-49.0782 56.2461-51.6587Q53.6684-54.2392 53.6684-57.6993Q53.6684-61.3934 56.2461-63.9167Q58.8238-66.4398 62.3411-66.4398Q65.8584-66.4398 68.4073-63.9167Q70.9561-61.3934 70.9561-57.6993Q70.9561-54.2392 68.4073-51.6587Q65.8584-49.0782 62.3411-49.0782Z"/>
  </g>
  <g id="Heavy-M" transform="matrix(1 0 0 1 2575.47 1126)">
   <path d="M61.2044 17.2649Q72.0509 17.2649 81.541 13.175Q91.0312 9.08512 98.2688 1.83935Q105.506-5.40642 109.606-14.8966Q113.705-24.3867 113.705-35.2169Q113.705-46.0471 109.606-55.5373Q105.506-65.0273 98.2607-72.2731Q91.0149-79.5189 81.5248-83.6088Q72.0347-87.6987 61.1882-87.6987Q50.3604-87.6987 40.8691-83.6088Q31.3778-79.5189 24.1494-72.2731Q16.9211-65.0273 12.8219-55.5373Q8.72266-46.0471 8.72266-35.2169Q8.72266-24.3867 12.8219-14.8966Q16.9211-5.40642 24.1575 1.83935Q31.394 9.08512 40.8853 13.175Q50.3767 17.2649 61.2044 17.2649ZM51.7256-7.80153Q49.5016-7.80153 47.9477-9.22326Q46.3937-10.645 46.3937-13.0136Q46.3937-15.1753 47.9477-16.6788Q49.5016-18.1822 51.7256-18.1822L57.1225-18.1822L57.1225-33.334L52.7828-33.334Q50.5128-33.334 48.96-34.7856Q47.4073-36.2373 47.4073-38.5623Q47.4073-40.7264 48.96-42.2205Q50.5128-43.7146 52.7828-43.7146L62.9907-43.7146Q65.8979-43.7146 67.3907-41.8845Q68.8836-40.0544 68.8836-36.9725L68.8836-18.1822L72.6229-18.1822Q74.8905-18.1822 76.4307-16.6788Q77.971-15.1753 77.971-13.0136Q77.971-10.645 76.4307-9.22326Q74.8905-7.80153 72.6229-7.80153ZM61.3338-50.0214Q57.9931-50.0214 55.5766-52.446Q53.1602-54.8705 53.1602-58.1676Q53.1602-61.6555 55.5766-64.0377Q57.9931-66.4198 61.3338-66.4198Q64.6746-66.4198 67.0717-64.0377Q69.4687-61.6555 69.4687-58.1676Q69.4687-54.8705 67.0717-52.446Q64.6746-50.0214 61.3338-50.0214Z"/>
  </g>
  <g id="Bold-M" transform="matrix(1 0 0 1 2279.69 1126)">
   <path d="M60.2671 16.3126Q70.9081 16.3126 80.2289 12.2953Q89.5497 8.27795 96.6634 1.15014Q103.777-5.97767 107.811-15.2985Q111.845-24.6192 111.845-35.232Q111.845-45.8447 107.811-55.1655Q103.777-64.4863 96.6492-71.6141Q89.5215-78.7419 80.2007-82.7592Q70.8799-86.7765 60.2389-86.7765Q49.6317-86.7765 40.3082-82.7592Q30.9847-78.7419 23.8878-71.6141Q16.791-64.4863 12.7568-55.1655Q8.72266-45.8447 8.72266-35.232Q8.72266-24.6192 12.7568-15.2985Q16.791-5.97767 23.9019 1.15014Q31.0129 8.27795 40.3364 12.2953Q49.6599 16.3126 60.2671 16.3126ZM51.0261-7.69783Q49.0383-7.69783 47.6525-8.97269Q46.2666-10.2475 46.2666-12.3436Q46.2666-14.2691 47.6525-15.615Q49.0383-16.961 51.0261-16.961L56.7094-16.961L56.7094-34.7988L52.0193-34.7988Q49.9976-34.7988 48.6144-36.102Q47.2314-37.4053 47.2314-39.4728Q47.2314-41.4038 48.6144-42.7329Q49.9976-44.0619 52.0193-44.0619L61.9743-44.0619Q64.5364-44.0619 65.8626-42.4317Q67.1889-40.8016 67.1889-38.0802L67.1889-16.961L71.7874-16.961Q73.8037-16.961 75.1893-15.615Q76.575-14.2691 76.575-12.3436Q76.575-10.2475 75.1893-8.97269Q73.8037-7.69783 71.7874-7.69783ZM60.207-51.0765Q57.0637-51.0765 54.8277-53.3267Q52.5917-55.5768 52.5917-58.6915Q52.5917-61.9487 54.8277-64.1731Q57.0637-66.3974 60.207-66.3974Q63.3504-66.3974 65.5776-64.1731Q67.8049-61.9487 67.8049-58.6915Q67.8049-55.5768 65.5776-53.3267Q63.3504-51.0765 60.207-51.0765Z"/>
  </g>
  <g id="Semibold-M" transform="matrix(1 0 0 1 1983.62 1126)">
   <path d="M59.621 15.656Q70.1203 15.656 79.3244 11.6887Q88.5284 7.72149 95.5566 0.675012Q102.585-6.37149 106.574-15.5755Q110.564-24.7796 110.564-35.2424Q110.564-45.7052 106.574-54.9092Q102.585-64.1132 95.5383-71.1597Q88.4919-78.2062 79.2879-82.1734Q70.0838-86.1407 59.5845-86.1407Q49.1293-86.1407 39.9215-82.1734Q30.7137-78.2062 23.7074-71.1597Q16.7013-64.1132 12.712-54.9092Q8.72266-45.7052 8.72266-35.2424Q8.72266-24.7796 12.712-15.5755Q16.7013-6.37149 23.7257 0.675012Q30.7502 7.72149 39.958 11.6887Q49.1658 15.656 59.621 15.656ZM50.5439-7.62634Q48.719-7.62634 47.4491-8.79994Q46.1791-9.97354 46.1791-11.8817Q46.1791-13.6443 47.4491-14.8817Q48.719-16.1191 50.5439-16.1191L56.4246-16.1191L56.4246-35.8086L51.4929-35.8086Q49.6424-35.8086 48.3762-37.0096Q47.1101-38.2105 47.1101-40.1005Q47.1101-41.8708 48.3762-43.086Q49.6424-44.3013 51.4929-44.3013L61.2737-44.3013Q63.5978-44.3013 64.8092-42.809Q66.0207-41.3167 66.0207-38.8439L66.0207-16.1191L71.2115-16.1191Q73.0545-16.1191 74.3336-14.8817Q75.6127-13.6443 75.6127-11.8817Q75.6127-9.97354 74.3336-8.79994Q73.0545-7.62634 71.2115-7.62634ZM59.4302-51.8039Q56.4231-51.8039 54.3114-53.9338Q52.1997-56.0637 52.1997-59.0527Q52.1997-62.1508 54.3114-64.2665Q56.4231-66.382 59.4302-66.382Q62.4374-66.382 64.5476-64.2665Q66.6578-62.1508 66.6578-59.0527Q66.6578-56.0637 64.5476-53.9338Q62.4374-51.8039 59.4302-51.8039Z"/>
  </g>
  <g id="Medium-M" transform="matrix(1 0 0 1 1687.4 1126)">
   <path d="M59.131 15.1582Q69.523 15.1582 78.6385 11.2289Q87.754 7.29956 94.7175 0.314747Q101.681-6.6701 105.636-15.7856Q109.592-24.9011 109.592-35.2502Q109.592-45.5993 105.636-54.7149Q101.681-63.8304 94.696-70.8152Q87.7112-77.8 78.5957-81.7293Q69.4802-85.6586 59.0883-85.6586Q48.7484-85.6586 39.6283-81.7293Q30.5082-77.8 23.5707-70.8152Q16.6333-63.8304 12.678-54.7149Q8.72266-45.5993 8.72266-35.2502Q8.72266-24.9011 12.678-15.7856Q16.6333-6.6701 23.5921 0.314747Q30.5509 7.29956 39.671 11.2289Q48.7912 15.1582 59.131 15.1582ZM50.1782-7.57214Q48.4768-7.57214 47.2948-8.66896Q46.1127-9.76578 46.1127-11.5315Q46.1127-13.1706 47.2948-14.3256Q48.4768-15.4807 50.1782-15.4807L56.2086-15.4807L56.2086-36.5743L51.0939-36.5743Q49.373-36.5743 48.1955-37.6977Q47.0181-38.821 47.0181-40.5765Q47.0181-42.2248 48.1955-43.3538Q49.373-44.4828 51.0939-44.4828L60.7424-44.4828Q62.8861-44.4828 64.0105-43.0951Q65.1349-41.7072 65.1349-39.4229L65.1349-15.4807L70.7747-15.4807Q72.4864-15.4807 73.6847-14.3256Q74.883-13.1706 74.883-11.5315Q74.883-9.76578 73.6847-8.66896Q72.4864-7.57214 70.7747-7.57214ZM58.8412-52.3554Q55.9373-52.3554 53.92-54.3942Q51.9026-56.4329 51.9026-59.3266Q51.9026-62.3041 53.92-64.3372Q55.9373-66.3703 58.8412-66.3703Q61.7452-66.3703 63.7666-64.3372Q65.7881-62.3041 65.7881-59.3266Q65.7881-56.4329 63.7666-54.3942Q61.7452-52.3554 58.8412-52.3554Z"/>
  </g>
  <g id="Regular-M" transform="matrix(1 0 0 1 1391.32 1126)">
   <path d="M58.492 14.5088Q68.7438 14.5088 77.7439 10.629Q86.7439 6.74922 93.6229-0.155165Q100.502-7.05959 104.413-16.0596Q108.324-25.0597 108.324-35.2605Q108.324-45.4613 104.413-54.4615Q100.502-63.4615 93.5973-70.3658Q86.693-77.2703 77.6929-81.15Q68.6929-85.0298 58.441-85.0298Q48.2516-85.0298 39.2459-81.15Q30.2401-77.2703 23.3923-70.3658Q16.5446-63.4615 12.6336-54.4615Q8.72266-45.4613 8.72266-35.2605Q8.72266-25.0597 12.6336-16.0596Q16.5446-7.05959 23.4178-0.155165Q30.2911 6.74922 39.2968 10.629Q48.3025 14.5088 58.492 14.5088ZM49.7013-7.50143Q48.161-7.50143 47.0935-8.49811Q46.026-9.49479 46.026-11.0747Q46.026-12.5528 47.0935-13.6004Q48.161-14.6481 49.7013-14.6481L55.927-14.6481L55.927-37.5731L50.5733-37.5731Q49.0217-37.5731 47.9599-38.5952Q46.8982-39.6174 46.8982-41.1973Q46.8982-42.6867 47.9599-43.7032Q49.0217-44.7196 50.5733-44.7196L60.0494-44.7196Q61.9578-44.7196 62.9686-43.4682Q63.9794-42.2167 63.9794-40.1782L63.9794-14.6481L70.2051-14.6481Q71.7454-14.6481 72.8383-13.6004Q73.9313-12.5528 73.9313-11.0747Q73.9313-9.49479 72.8383-8.49811Q71.7454-7.50143 70.2051-7.50143ZM58.073-53.0748Q55.3037-53.0748 53.4094-54.9947Q51.515-56.9144 51.515-59.6838Q51.515-62.504 53.4094-64.4295Q55.3037-66.355 58.073-66.355Q60.8423-66.355 62.7479-64.4295Q64.6537-62.504 64.6537-59.6838Q64.6537-56.9144 62.7479-54.9947Q60.8423-53.0748 58.073-53.0748Z"/>
  </g>
  <g id="Light-M" transform="matrix(1 0 0 1 1095.44 1126)">
   <path d="M57.664 13.6809Q67.7687 13.6809 76.6123 9.87467Q85.4559 6.06845 92.2245-0.716336Q98.993-7.50114 102.83-16.3448Q106.668-25.1885 106.668-35.2605Q106.668-45.3326 102.83-54.1762Q98.993-63.0199 92.2082-69.8047Q85.4234-76.5895 76.5798-80.3957Q67.7361-84.2019 57.6315-84.2019Q47.5892-84.2019 38.7307-80.3957Q29.8721-76.5895 23.1347-69.8047Q16.3974-63.0199 12.56-54.1762Q8.72266-45.3326 8.72266-35.2605Q8.72266-25.1885 12.56-16.3448Q16.3974-7.50114 23.151-0.716336Q29.9047 6.06845 38.7632 9.87467Q47.6218 13.6809 57.664 13.6809ZM48.7629-8.05343Q47.5538-8.05343 46.7256-8.84772Q45.8972-9.64202 45.8972-10.8539Q45.8972-12.0008 46.7256-12.8276Q47.5538-13.6545 48.7629-13.6545L55.8901-13.6545L55.8901-39.3026L49.4326-39.3026Q48.1938-39.3026 47.3803-40.1131Q46.567-40.9237 46.567-42.1357Q46.567-43.3122 47.3803-44.1079Q48.1938-44.9036 49.4326-44.9036L59.0191-44.9036Q60.4859-44.9036 61.2667-43.9466Q62.0476-42.9894 62.0476-41.4845L62.0476-13.6545L69.1748-13.6545Q70.3839-13.6545 71.2284-12.8276Q72.073-12.0008 72.073-10.8539Q72.073-9.64202 71.2284-8.84772Q70.3839-8.05343 69.1748-8.05343ZM57.3738-53.9764Q55.0645-53.9764 53.4829-55.5742Q51.9013-57.172 51.9013-59.4814Q51.9013-61.8233 53.4829-63.436Q55.0645-65.0486 57.3738-65.0486Q59.6831-65.0486 61.2944-63.436Q62.9058-61.8233 62.9058-59.4814Q62.9058-57.172 61.2944-55.5742Q59.6831-53.9764 57.3738-53.9764Z"/>
  </g>
  <g id="Thin-M" transform="matrix(1 0 0 1 799.828 1126)">
   <path d="M56.569 12.5858Q66.4789 12.5858 75.1158 8.87697Q83.7525 5.16809 90.3751-1.45853Q96.9976-8.08512 100.738-16.722Q104.478-25.3588 104.478-35.2605Q104.478-45.1623 100.738-53.799Q96.9976-62.4359 90.371-69.0625Q83.7443-75.6891 75.1076-79.398Q66.4707-83.1068 56.5608-83.1068Q46.7132-83.1068 38.0493-79.398Q29.3854-75.6891 22.794-69.0625Q16.2027-62.4359 12.4627-53.799Q8.72266-45.1623 8.72266-35.2605Q8.72266-25.3588 12.4627-16.722Q16.2027-8.08512 22.7981-1.45853Q29.3937 5.16809 38.0575 8.87697Q46.7214 12.5858 56.569 12.5858ZM47.5219-8.78348Q46.7508-8.78348 46.2388-9.3101Q45.7269-9.83673 45.7269-10.5619Q45.7269-11.2708 46.2388-11.8056Q46.7508-12.3405 47.5219-12.3405L55.8415-12.3405L55.8415-41.59L47.9239-41.59Q47.0987-41.59 46.6138-42.1207Q46.129-42.6514 46.129-43.3767Q46.129-44.1396 46.6138-44.6433Q47.0987-45.147 47.9239-45.147L57.6564-45.147Q58.5391-45.147 59.0158-44.5792Q59.4925-44.0115 59.4925-43.2122L59.4925-12.3405L67.812-12.3405Q68.5832-12.3405 69.0992-11.8056Q69.6152-11.2708 69.6152-10.5619Q69.6152-9.83673 69.0992-9.3101Q68.5832-8.78348 67.812-8.78348ZM56.4491-55.1688Q54.7482-55.1688 53.5803-56.3407Q52.4124-57.5127 52.4124-59.2137Q52.4124-60.9229 53.5803-62.1219Q54.7482-63.3209 56.4491-63.3209Q58.1501-63.3209 59.372-62.1219Q60.594-60.9229 60.594-59.2137Q60.594-57.5127 59.372-56.3407Q58.1501-55.1688 56.4491-55.1688Z"/>
  </g>
  <g id="Ultralight-M" transform="matrix(1 0 0 1 503.679 1126)">
   <path d="M56.0082 12.025Q65.8184 12.025 74.3493 8.36595Q82.8801 4.70693 89.4278-1.83868Q95.9756-8.38424 99.6658-16.9152Q103.356-25.4461 103.356-35.2605Q103.356-45.0751 99.6658-53.6058Q95.9756-62.1367 89.4299-68.6824Q82.8843-75.2279 74.3535-78.887Q65.8226-82.5459 56.0124-82.5459Q46.2645-82.5459 37.7003-78.887Q29.1362-75.2279 22.6195-68.6824Q16.103-62.1367 12.4128-53.6058Q8.72266-45.0751 8.72266-35.2605Q8.72266-25.4461 12.4128-16.9152Q16.103-8.38424 22.6174-1.83868Q29.1319 4.70693 37.6961 8.36595Q46.2603 12.025 56.0082 12.025ZM46.8863-9.15741Q46.3395-9.15741 45.9896-9.54693Q45.6397-9.93646 45.6397-10.4124Q45.6397-10.8969 45.9896-11.2822Q46.3395-11.6675 46.8863-11.6675L55.8165-11.6675L55.8165-42.7616L47.1511-42.7616Q46.5378-42.7616 46.2212-43.149Q45.9046-43.5364 45.9046-44.0124Q45.9046-44.5633 46.2212-44.9175Q46.5378-45.2716 47.1511-45.2716L56.9584-45.2716Q57.542-45.2716 57.8629-44.9033Q58.1838-44.535 58.1838-44.0972L58.1838-11.6675L67.1141-11.6675Q67.6608-11.6675 68.0087-11.2822Q68.3563-10.8969 68.3563-10.4124Q68.3563-9.93646 68.0087-9.54693Q67.6608-9.15741 67.1141-9.15741ZM55.9754-55.7795Q54.5862-55.7795 53.6301-56.7333Q52.6741-57.6872 52.6741-59.0766Q52.6741-60.4618 53.6301-61.4488Q54.5862-62.436 55.9754-62.436Q57.3648-62.436 58.3874-61.4488Q59.4099-60.4618 59.4099-59.0766Q59.4099-57.6872 58.3874-56.7333Q57.3648-55.7795 55.9754-55.7795Z"/>
  </g>
  <g id="Black-S" transform="matrix(1 0 0 1 2884.57 696)">
   <path d="M48.8281 6.78711Q57.5195 6.78711 65.1123 3.51562Q72.7051 0.244141 78.4912-5.54199Q84.2773-11.3281 87.5488-18.9209Q90.8203-26.5137 90.8203-35.2051Q90.8203-43.8965 87.5488-51.4893Q84.2773-59.082 78.4912-64.8682Q72.7051-70.6543 65.1123-73.9258Q57.5195-77.1973 48.8281-77.1973Q40.1367-77.1973 32.5439-73.9258Q24.9512-70.6543 19.165-64.8682Q13.3789-59.082 10.1074-51.4893Q6.83594-43.8965 6.83594-35.2051Q6.83594-26.5137 10.1074-18.9209Q13.3789-11.3281 19.165-5.54199Q24.9512 0.244141 32.5439 3.51562Q40.1367 6.78711 48.8281 6.78711ZM41.1621-13.8672Q39.209-13.8672 37.8418-15.1123Q36.4746-16.3574 36.4746-18.457Q36.4746-20.3613 37.8418-21.6797Q39.209-22.998 41.1621-22.998L45.166-22.998L45.166-32.4219L42.041-32.4219Q40.0391-32.4219 38.6719-33.6914Q37.3047-34.9609 37.3047-37.0117Q37.3047-38.916 38.6719-40.2344Q40.0391-41.5527 42.041-41.5527L50.293-41.5527Q52.8809-41.5527 54.1992-39.9414Q55.5176-38.3301 55.5176-35.5957L55.5176-22.998L57.666-22.998Q59.668-22.998 61.0107-21.6797Q62.3535-20.3613 62.3535-18.457Q62.3535-16.3574 61.0107-15.1123Q59.668-13.8672 57.666-13.8672ZM49.1211-45.8496Q46.3379-45.8496 44.2871-47.9004Q42.2363-49.9512 42.2363-52.6855Q42.2363-55.6152 44.2871-57.6172Q46.3379-59.6191 49.1211-59.6191Q51.9043-59.6191 53.9307-57.6172Q55.957-55.6152 55.957-52.6855Q55.957-49.9512 53.9307-47.9004Q51.9043-45.8496 49.1211-45.8496Z"/>
  </g>
  <g id="Heavy-S" transform="matrix(1 0 0 1 2588.46 696)">
   <path d="M48.2173 6.16479Q56.7704 6.16479 64.2537 2.9394Q71.737-0.285984 77.4425-5.99721Q83.1479-11.7084 86.3791-19.1917Q89.6102-26.675 89.6102-35.2166Q89.6102-43.7582 86.3791-51.2415Q83.1479-58.7248 77.4367-64.436Q71.7255-70.1472 64.2422-73.3726Q56.7589-76.598 48.2058-76.598Q39.6642-76.598 32.1809-73.3726Q24.6977-70.1472 18.9979-64.436Q13.2982-58.7248 10.0671-51.2415Q6.83594-43.7582 6.83594-35.2166Q6.83594-26.675 10.0671-19.1917Q13.2982-11.7084 19.0037-5.99721Q24.7092-0.285984 32.1924 2.9394Q39.6757 6.16479 48.2173 6.16479ZM40.7472-13.7174Q38.9324-13.7174 37.6632-14.876Q36.3939-16.0347 36.3939-17.973Q36.3939-19.739 37.6632-20.9652Q38.9324-22.1913 40.7472-22.1913L44.8549-22.1913L44.8549-33.3208L41.6031-33.3208Q39.751-33.3208 38.4817-34.5039Q37.2125-35.6869 37.2125-37.5879Q37.2125-39.3539 38.4817-40.5744Q39.751-41.7947 41.6031-41.7947L49.6476-41.7947Q52.0281-41.7947 53.2484-40.2987Q54.4689-38.8026 54.4689-36.2757L54.4689-22.1913L57.1589-22.1913Q59.0111-22.1913 60.2674-20.9652Q61.5237-19.739 61.5237-17.973Q61.5237-16.0347 60.2674-14.876Q59.0111-13.7174 57.1589-13.7174ZM48.349-46.5411Q45.6579-46.5411 43.7051-48.4997Q41.7523-50.4583 41.7523-53.1119Q41.7523-55.9264 43.7051-57.8477Q45.6579-59.7689 48.349-59.7689Q51.04-59.7689 52.9742-57.8477Q54.9083-55.9264 54.9083-53.1119Q54.9083-50.4583 52.9742-48.4997Q51.04-46.5411 48.349-46.5411Z"/>
  </g>
  <g id="Bold-S" transform="matrix(1 0 0 1 2292.43 696)">
   <path d="M47.5342 5.46875Q55.9326 5.46875 63.2935 2.29492Q70.6543-0.878904 76.2695-6.50635Q81.8848-12.1338 85.0708-19.4946Q88.2568-26.8555 88.2568-35.2295Q88.2568-43.6035 85.0708-50.9644Q81.8848-58.3252 76.2573-63.9527Q70.6299-69.5801 63.2691-72.7539Q55.9082-75.9278 47.5098-75.9278Q39.1358-75.9278 31.7749-72.7539Q24.4141-69.5801 18.811-63.9527Q13.208-58.3252 10.022-50.9644Q6.83594-43.6035 6.83594-35.2295Q6.83594-26.8555 10.022-19.4946Q13.208-12.1338 18.8232-6.50635Q24.4385-0.878904 31.7993 2.29492Q39.1602 5.46875 47.5342 5.46875ZM40.2832-13.5498Q38.623-13.5498 37.4634-14.6118Q36.3037-15.6738 36.3037-17.4316Q36.3037-19.043 37.4634-20.166Q38.623-21.2891 40.2832-21.2891L44.5069-21.2891L44.5069-34.3262L41.1133-34.3262Q39.4288-34.3262 38.269-35.4126Q37.1094-36.499 37.1094-38.2324Q37.1094-39.8438 38.269-40.9546Q39.4288-42.0654 41.1133-42.0654L48.9258-42.0654Q51.0743-42.0654 52.1851-40.6983Q53.2959-39.3311 53.2959-37.0361L53.2959-21.2891L56.5918-21.2891Q58.2764-21.2891 59.436-20.166Q60.5957-19.043 60.5957-17.4316Q60.5957-15.6738 59.436-14.6118Q58.2764-13.5498 56.5918-13.5498ZM47.4853-47.3145Q44.8975-47.3145 43.0542-49.1699Q41.2109-51.0254 41.2109-53.5889Q41.2109-56.2744 43.0542-58.1055Q44.8975-59.9365 47.4853-59.9365Q50.0733-59.9365 51.9043-58.1055Q53.7353-56.2744 53.7353-53.5889Q53.7353-51.0254 51.9043-49.1699Q50.0733-47.3145 47.4853-47.3145Z"/>
  </g>
  <g id="Semibold-S" transform="matrix(1 0 0 1 1996.19 696)">
   <path d="M47.0632 4.98887Q55.355 4.98887 62.6314 1.85059Q69.9078-1.28769 75.4609-6.85737Q81.0139-12.4271 84.1688-19.7035Q87.3238-26.9799 87.3238-35.2384Q87.3238-43.4968 84.1688-50.7733Q81.0139-58.0497 75.4442-63.6194Q69.8745-69.1891 62.5981-72.3273Q55.3217-75.4656 47.0299-75.4656Q38.7714-75.4656 31.495-72.3273Q24.2186-69.1891 18.6821-63.6194Q13.1458-58.0497 9.99086-50.7733Q6.83594-43.4968 6.83594-35.2384Q6.83594-26.9799 9.99086-19.7035Q13.1458-12.4271 18.6988-6.85737Q24.2519-1.28769 31.5283 1.85059Q38.8047 4.98887 47.0632 4.98887ZM39.9633-13.4343Q38.4098-13.4343 37.3257-14.4296Q36.2415-15.425 36.2415-17.0584Q36.2415-18.5631 37.3257-19.615Q38.4098-20.667 39.9633-20.667L44.2669-20.667L44.2669-35.0194L40.7755-35.0194Q39.2066-35.0194 38.1224-36.0391Q37.0383-37.0589 37.0383-38.6767Q37.0383-40.1815 38.1224-41.2168Q39.2066-42.252 40.7755-42.252L48.4281-42.252Q50.4166-42.252 51.4519-40.9737Q52.4872-39.6954 52.4872-37.5605L52.4872-20.667L56.2008-20.667Q57.7699-20.667 58.8628-19.615Q59.9559-18.5631 59.9559-17.0584Q59.9559-15.425 58.8628-14.4296Q57.7699-13.4343 56.2008-13.4343ZM46.8899-47.8477Q44.3731-47.8477 42.6054-49.6321Q40.8377-51.4164 40.8377-53.9177Q40.8377-56.5143 42.6054-58.2832Q44.3731-60.052 46.8899-60.052Q49.4067-60.052 51.1667-58.2832Q52.9267-56.5143 52.9267-53.9177Q52.9267-51.4164 51.1667-49.6321Q49.4067-47.8477 46.8899-47.8477Z"/>
  </g>
  <g id="Medium-S" transform="matrix(1 0 0 1 1699.83 696)">
   <path d="M46.706 4.625Q54.917 4.625 62.1294 1.51367Q69.3418-1.59765 74.8477-7.12353Q80.3535-12.6494 83.4849-19.8618Q86.6162-27.0743 86.6162-35.2451Q86.6162-43.416 83.4849-50.6285Q80.3535-57.8408 74.8276-63.3667Q69.3018-68.8926 62.0894-72.0039Q54.877-75.1152 46.666-75.1152Q38.4951-75.1152 31.2827-72.0039Q24.0704-68.8926 18.5844-63.3667Q13.0986-57.8408 9.96728-50.6285Q6.83594-43.416 6.83594-35.2451Q6.83594-27.0743 9.96728-19.8618Q13.0986-12.6494 18.6044-7.12353Q24.1104-1.59765 31.3228 1.51367Q38.5352 4.625 46.706 4.625ZM39.7207-13.3467Q38.248-13.3467 37.2212-14.2915Q36.1943-15.2363 36.1943-16.7753Q36.1943-18.1992 37.2212-19.1972Q38.248-20.1953 39.7207-20.1953L44.085-20.1953L44.085-35.545L40.5195-35.545Q39.0381-35.545 38.0112-36.5142Q36.9844-37.4834 36.9844-39.0136Q36.9844-40.4375 38.0112-41.4155Q39.0381-42.3935 40.5195-42.3935L48.0508-42.3935Q49.918-42.3935 50.896-41.1826Q51.874-39.9717 51.874-37.958L51.874-20.1953L55.9043-20.1953Q57.3858-20.1953 58.4282-19.1972Q59.4707-18.1992 59.4707-16.7753Q59.4707-15.2363 58.4282-14.2915Q57.3858-13.3467 55.9043-13.3467ZM46.4385-48.252Q43.9756-48.252 42.2651-49.9825Q40.5546-51.7129 40.5546-54.167Q40.5546-56.6963 42.2651-58.418Q43.9756-60.1396 46.4385-60.1396Q48.9014-60.1396 50.6074-58.418Q52.3135-56.6963 52.3135-54.167Q52.3135-51.7129 50.6074-49.9825Q48.9014-48.252 46.4385-48.252Z"/>
  </g>
  <g id="Regular-S" transform="matrix(1 0 0 1 1403.58 696)">
   <path d="M46.2402 4.15039Q54.3457 4.15039 61.4746 1.07422Q68.6035-2.00195 74.0479-7.4707Q79.4922-12.9395 82.5928-20.0684Q85.6934-27.1973 85.6934-35.2539Q85.6934-43.3105 82.5928-50.4395Q79.4922-57.5684 74.0234-63.0371Q68.5547-68.5059 61.4258-71.582Q54.2969-74.6582 46.1914-74.6582Q38.1348-74.6582 31.0059-71.582Q23.877-68.5059 18.457-63.0371Q13.0371-57.5684 9.93652-50.4395Q6.83594-43.3105 6.83594-35.2539Q6.83594-27.1973 9.93652-20.0684Q13.0371-12.9395 18.4814-7.4707Q23.9258-2.00195 31.0547 1.07422Q38.1836 4.15039 46.2402 4.15039ZM39.4043-13.2324Q38.0371-13.2324 37.085-14.1113Q36.1328-14.9902 36.1328-16.4062Q36.1328-17.7246 37.085-18.6523Q38.0371-19.5801 39.4043-19.5801L43.8477-19.5801L43.8477-36.2305L40.1855-36.2305Q38.8184-36.2305 37.8662-37.1338Q36.9141-38.0371 36.9141-39.4531Q36.9141-40.7715 37.8662-41.6748Q38.8184-42.5781 40.1855-42.5781L47.5586-42.5781Q49.2676-42.5781 50.1709-41.4551Q51.0742-40.332 51.0742-38.4766L51.0742-19.5801L55.5176-19.5801Q56.8848-19.5801 57.8613-18.6523Q58.8379-17.7246 58.8379-16.4062Q58.8379-14.9902 57.8613-14.1113Q56.8848-13.2324 55.5176-13.2324ZM45.8496-48.7793Q43.457-48.7793 41.8213-50.4395Q40.1855-52.0996 40.1855-54.4922Q40.1855-56.9336 41.8213-58.5938Q43.457-60.2539 45.8496-60.2539Q48.2422-60.2539 49.8779-58.5938Q51.5137-56.9336 51.5137-54.4922Q51.5137-52.0996 49.8779-50.4395Q48.2422-48.7793 45.8496-48.7793Z"/>
  </g>
  <g id="Light-S" transform="matrix(1 0 0 1 1107.6 696)">
   <path d="M45.5078 3.41797Q53.4831 3.41797 60.4736 0.406902Q67.4642-2.60416 72.8109-7.96712Q78.1576-13.3301 81.1931-20.3207Q84.2285-27.3112 84.2285-35.2539Q84.2285-43.1966 81.1931-50.1872Q78.1576-57.1778 72.7946-62.5407Q67.4316-67.9037 60.4411-70.9147Q53.4505-73.9258 45.4753-73.9258Q37.5489-73.9258 30.5502-70.9147Q23.5515-67.9037 18.2291-62.5407Q12.9069-57.1778 9.87142-50.1872Q6.83594-43.1966 6.83594-35.2539Q6.83594-27.3112 9.87142-20.3207Q12.9069-13.3301 18.2454-7.96712Q23.584-2.60416 30.5827 0.406902Q37.5814 3.41797 45.5078 3.41797ZM38.5742-13.7207Q37.5-13.7207 36.7595-14.4206Q36.0189-15.1204 36.0189-16.2109Q36.0189-17.2363 36.7595-17.9687Q37.5-18.7012 38.5742-18.7012L43.8151-18.7012L43.8151-37.7604L39.1764-37.7604Q38.086-37.7604 37.3535-38.4766Q36.6211-39.1927 36.6211-40.2832Q36.6211-41.3249 37.3535-42.0329Q38.086-42.7409 39.1764-42.7409L46.6471-42.7409Q47.9655-42.7409 48.6654-41.8783Q49.3652-41.0156 49.3652-39.6322L49.3652-18.7012L54.6061-18.7012Q55.6804-18.7012 56.4372-17.9687Q57.194-17.2363 57.194-16.2109Q57.194-15.1204 56.4372-14.4206Q55.6804-13.7207 54.6061-13.7207ZM45.2311-49.5768Q43.2454-49.5768 41.8864-50.9522Q40.5273-52.3275 40.5273-54.3132Q40.5273-56.3314 41.8864-57.7149Q43.2454-59.0983 45.2311-59.0983Q47.2168-59.0983 48.5921-57.7149Q49.9675-56.3314 49.9675-54.3132Q49.9675-52.3275 48.5921-50.9522Q47.2168-49.5768 45.2311-49.5768Z"/>
  </g>
  <g id="Thin-S" transform="matrix(1 0 0 1 811.863 696)">
   <path d="M44.5391 2.44928Q52.3422 2.44928 59.1498-0.47568Q65.9573-3.40064 71.1749-8.62368Q76.3924-13.8467 79.3418-20.6543Q82.2911-27.4619 82.2911-35.2539Q82.2911-43.046 79.3418-49.8535Q76.3924-56.6611 71.1693-61.8842Q65.9463-67.1072 59.1388-70.0321Q52.3311-72.9571 44.5281-72.9571Q36.7739-72.9571 29.9474-70.0321Q23.1209-67.1072 17.9278-61.8842Q12.7347-56.6611 9.78531-49.8535Q6.83594-43.046 6.83594-35.2539Q6.83594-27.4619 9.78531-20.6543Q12.7347-13.8467 17.9333-8.62368Q23.1319-3.40064 29.9584-0.47568Q36.7849 2.44928 44.5391 2.44928ZM37.4764-14.3665Q36.7896-14.3665 36.3289-14.8296Q35.8682-15.2927 35.8682-15.9526Q35.8682-16.5906 36.3289-17.0647Q36.7896-17.5388 37.4764-17.5388L43.7721-17.5388L43.7721-39.7839L37.8418-39.7839Q37.1173-39.7839 36.6754-40.2525Q36.2337-40.7211 36.2337-41.3811Q36.2337-42.0567 36.6754-42.5064Q37.1173-42.9561 37.8418-42.9561L45.4416-42.9561Q46.2434-42.9561 46.6742-42.4379Q47.105-41.9197 47.105-41.1606L47.105-17.5388L53.4006-17.5388Q54.0874-17.5388 54.5536-17.0647Q55.0198-16.5906 55.0198-15.9526Q55.0198-15.2927 54.5536-14.8296Q54.0874-14.3665 53.4006-14.3665ZM44.4131-50.6316Q42.9656-50.6316 41.9725-51.6302Q40.9794-52.6288 40.9794-54.0764Q40.9794-55.5349 41.9725-56.5524Q42.9656-57.5699 44.4131-57.5699Q45.8606-57.5699 46.8915-56.5524Q47.9224-55.5349 47.9224-54.0764Q47.9224-52.6288 46.8915-51.6302Q45.8606-50.6316 44.4131-50.6316Z"/>
  </g>
  <g id="Ultralight-S" transform="matrix(1 0 0 1 515.649 696)">
   <path d="M44.043 1.95312Q51.7578 1.95312 58.4717-0.927734Q65.1855-3.80859 70.3369-8.95996Q75.4883-14.1113 78.3936-20.8252Q81.2988-27.5391 81.2988-35.2539Q81.2988-42.9688 78.3936-49.6826Q75.4883-56.3965 70.3369-61.5479Q65.1855-66.6992 58.4717-69.5801Q51.7578-72.4609 44.043-72.4609Q36.377-72.4609 29.6387-69.5801Q22.9004-66.6992 17.7734-61.5479Q12.6465-56.3965 9.74121-49.6826Q6.83594-42.9688 6.83594-35.2539Q6.83594-27.5391 9.74121-20.8252Q12.6465-14.1113 17.7734-8.95996Q22.9004-3.80859 29.6387-0.927734Q36.377 1.95312 44.043 1.95312ZM36.9141-14.6973Q36.4258-14.6973 36.1084-15.0391Q35.791-15.3809 35.791-15.8203Q35.791-16.2598 36.1084-16.6016Q36.4258-16.9434 36.9141-16.9434L43.75-16.9434L43.75-40.8203L37.1582-40.8203Q36.6211-40.8203 36.3281-41.1621Q36.0352-41.5039 36.0352-41.9434Q36.0352-42.4316 36.3281-42.749Q36.6211-43.0664 37.1582-43.0664L44.8242-43.0664Q45.3613-43.0664 45.6543-42.7246Q45.9473-42.3828 45.9473-41.9434L45.9473-16.9434L52.7832-16.9434Q53.2715-16.9434 53.5889-16.6016Q53.9062-16.2598 53.9062-15.8203Q53.9062-15.3809 53.5889-15.0391Q53.2715-14.6973 52.7832-14.6973ZM43.9941-51.1719Q42.8223-51.1719 42.0166-51.9775Q41.2109-52.7832 41.2109-53.9551Q41.2109-55.127 42.0166-55.957Q42.8223-56.7871 43.9941-56.7871Q45.166-56.7871 46.0205-55.957Q46.875-55.127 46.875-53.9551Q46.875-52.7832 46.0205-51.9775Q45.166-51.1719 43.9941-51.1719Z"/>
  </g>
 </g>
</svg>
