<?xml version="1.0" encoding="UTF-8"?>
<!--Generator: Apple Native CoreSVG 175-->
<!DOCTYPE svg
PUBLIC "-//W3C//DTD SVG 1.1//EN"
       "http://www.w3.org/Graphics/SVG/1.1/DTD/svg11.dtd">
<svg version="1.1" xmlns="http://www.w3.org/2000/svg" xmlns:xlink="http://www.w3.org/1999/xlink" width="3300" height="2200">
 <!--glyph: "", point size: 100.0, font version: "17.0d12e1", template writer version: "65.1"-->
 <g id="Notes">
  <rect height="2200" id="artboard" style="fill:white;opacity:1" width="3300" x="0" y="0"/>
  <line style="fill:none;stroke:black;opacity:1;stroke-width:0.5;" x1="263" x2="3036" y1="292" y2="292"/>
  <text style="stroke:none;fill:black;font-family:sans-serif;font-size:13;font-weight:bold;" transform="matrix(1 0 0 1 263 322)">Weight/Scale Variations</text>
  <text style="stroke:none;fill:black;font-family:sans-serif;font-size:13;text-anchor:middle;" transform="matrix(1 0 0 1 559.711 322)">Ultralight</text>
  <text style="stroke:none;fill:black;font-family:sans-serif;font-size:13;text-anchor:middle;" transform="matrix(1 0 0 1 856.422 322)">Thin</text>
  <text style="stroke:none;fill:black;font-family:sans-serif;font-size:13;text-anchor:middle;" transform="matrix(1 0 0 1 1153.13 322)">Light</text>
  <text style="stroke:none;fill:black;font-family:sans-serif;font-size:13;text-anchor:middle;" transform="matrix(1 0 0 1 1449.84 322)">Regular</text>
  <text style="stroke:none;fill:black;font-family:sans-serif;font-size:13;text-anchor:middle;" transform="matrix(1 0 0 1 1746.56 322)">Medium</text>
  <text style="stroke:none;fill:black;font-family:sans-serif;font-size:13;text-anchor:middle;" transform="matrix(1 0 0 1 2043.27 322)">Semibold</text>
  <text style="stroke:none;fill:black;font-family:sans-serif;font-size:13;text-anchor:middle;" transform="matrix(1 0 0 1 2339.98 322)">Bold</text>
  <text style="stroke:none;fill:black;font-family:sans-serif;font-size:13;text-anchor:middle;" transform="matrix(1 0 0 1 2636.69 322)">Heavy</text>
  <text style="stroke:none;fill:black;font-family:sans-serif;font-size:13;text-anchor:middle;" transform="matrix(1 0 0 1 2933.4 322)">Black</text>
  <line style="fill:none;stroke:black;opacity:1;stroke-width:0.5;" x1="263" x2="3036" y1="1903" y2="1903"/>
  <g transform="matrix(1 0 0 1 263 1933)">
   <path d="M9.24805 0.830078Q10.8691 0.830078 12.2949 0.214844Q13.7207-0.400391 14.8096-1.49414Q15.8984-2.58789 16.5186-4.01367Q17.1387-5.43945 17.1387-7.05078Q17.1387-8.66211 16.5186-10.0879Q15.8984-11.5137 14.8047-12.6074Q13.7109-13.7012 12.2852-14.3164Q10.8594-14.9316 9.23828-14.9316Q7.62695-14.9316 6.20117-14.3164Q4.77539-13.7012 3.69141-12.6074Q2.60742-11.5137 1.9873-10.0879Q1.36719-8.66211 1.36719-7.05078Q1.36719-5.43945 1.9873-4.01367Q2.60742-2.58789 3.69629-1.49414Q4.78516-0.400391 6.21094 0.214844Q7.63672 0.830078 9.24805 0.830078ZM9.24805-0.654297Q7.91992-0.654297 6.7627-1.14746Q5.60547-1.64062 4.73145-2.51953Q3.85742-3.39844 3.36426-4.56055Q2.87109-5.72266 2.87109-7.05078Q2.87109-8.37891 3.35938-9.54102Q3.84766-10.7031 4.72168-11.582Q5.5957-12.4609 6.75293-12.9541Q7.91016-13.4473 9.23828-13.4473Q10.5762-13.4473 11.7334-12.9541Q12.8906-12.4609 13.7695-11.582Q14.6484-10.7031 15.1465-9.54102Q15.6445-8.37891 15.6445-7.05078Q15.6445-5.72266 15.1514-4.56055Q14.6582-3.39844 13.7842-2.51953Q12.9102-1.64062 11.748-1.14746Q10.5859-0.654297 9.24805-0.654297ZM5.6543-7.05078Q5.6543-6.72852 5.85938-6.52832Q6.06445-6.32812 6.40625-6.32812L8.51562-6.32812L8.51562-4.20898Q8.51562-3.88672 8.71094-3.67676Q8.90625-3.4668 9.23828-3.4668Q9.56055-3.4668 9.77051-3.67676Q9.98047-3.88672 9.98047-4.20898L9.98047-6.32812L12.0898-6.32812Q12.4219-6.32812 12.627-6.52832Q12.832-6.72852 12.832-7.05078Q12.832-7.38281 12.627-7.58789Q12.4219-7.79297 12.0898-7.79297L9.98047-7.79297L9.98047-9.90234Q9.98047-10.2344 9.77051-10.4443Q9.56055-10.6543 9.23828-10.6543Q8.90625-10.6543 8.71094-10.4443Q8.51562-10.2344 8.51562-9.90234L8.51562-7.79297L6.40625-7.79297Q6.06445-7.79297 5.85938-7.58789Q5.6543-7.38281 5.6543-7.05078Z"/>
  </g>
  <g transform="matrix(1 0 0 1 281.867 1933)">
   <path d="M11.709 2.91016Q13.75 2.91016 15.5518 2.12891Q17.3535 1.34766 18.7305-0.0292969Q20.1074-1.40625 20.8887-3.20801Q21.6699-5.00977 21.6699-7.05078Q21.6699-9.0918 20.8887-10.8936Q20.1074-12.6953 18.7305-14.0723Q17.3535-15.4492 15.5469-16.2305Q13.7402-17.0117 11.6992-17.0117Q9.6582-17.0117 7.85645-16.2305Q6.05469-15.4492 4.68262-14.0723Q3.31055-12.6953 2.5293-10.8936Q1.74805-9.0918 1.74805-7.05078Q1.74805-5.00977 2.5293-3.20801Q3.31055-1.40625 4.6875-0.0292969Q6.06445 1.34766 7.86621 2.12891Q9.66797 2.91016 11.709 2.91016ZM11.709 1.25Q9.98047 1.25 8.47656 0.605469Q6.97266-0.0390625 5.83496-1.17676Q4.69727-2.31445 4.05762-3.81836Q3.41797-5.32227 3.41797-7.05078Q3.41797-8.7793 4.05762-10.2832Q4.69727-11.7871 5.83008-12.9297Q6.96289-14.0723 8.4668-14.7119Q9.9707-15.3516 11.6992-15.3516Q13.4277-15.3516 14.9316-14.7119Q16.4355-14.0723 17.5781-12.9297Q18.7207-11.7871 19.3652-10.2832Q20.0098-8.7793 20.0098-7.05078Q20.0098-5.32227 19.3701-3.81836Q18.7305-2.31445 17.5928-1.17676Q16.4551-0.0390625 14.9463 0.605469Q13.4375 1.25 11.709 1.25ZM7.17773-7.05078Q7.17773-6.69922 7.41211-6.47461Q7.64648-6.25 8.01758-6.25L10.8887-6.25L10.8887-3.36914Q10.8887-2.99805 11.1133-2.76855Q11.3379-2.53906 11.6895-2.53906Q12.0605-2.53906 12.29-2.76855Q12.5195-2.99805 12.5195-3.36914L12.5195-6.25L15.4004-6.25Q15.7715-6.25 16.001-6.47461Q16.2305-6.69922 16.2305-7.05078Q16.2305-7.42188 16.001-7.65137Q15.7715-7.88086 15.4004-7.88086L12.5195-7.88086L12.5195-10.752Q12.5195-11.1328 12.29-11.3623Q12.0605-11.5918 11.6895-11.5918Q11.3379-11.5918 11.1133-11.3574Q10.8887-11.123 10.8887-10.752L10.8887-7.88086L8.01758-7.88086Q7.63672-7.88086 7.40723-7.65137Q7.17773-7.42188 7.17773-7.05078Z"/>
  </g>
  <g transform="matrix(1 0 0 1 305.646 1933)">
   <path d="M14.9707 5.66406Q17.0605 5.66406 18.96 5.01465Q20.8594 4.36523 22.4512 3.19336Q24.043 2.02148 25.2197 0.429688Q26.3965-1.16211 27.0459-3.06641Q27.6953-4.9707 27.6953-7.05078Q27.6953-9.14062 27.0459-11.04Q26.3965-12.9395 25.2197-14.5312Q24.043-16.123 22.4512-17.2998Q20.8594-18.4766 18.9551-19.126Q17.0508-19.7754 14.9609-19.7754Q12.8711-19.7754 10.9717-19.126Q9.07227-18.4766 7.48535-17.2998Q5.89844-16.123 4.72168-14.5312Q3.54492-12.9395 2.90039-11.04Q2.25586-9.14062 2.25586-7.05078Q2.25586-4.9707 2.90527-3.06641Q3.55469-1.16211 4.72656 0.429688Q5.89844 2.02148 7.49023 3.19336Q9.08203 4.36523 10.9814 5.01465Q12.8809 5.66406 14.9707 5.66406ZM14.9707 3.84766Q13.1641 3.84766 11.5283 3.2959Q9.89258 2.74414 8.53516 1.74805Q7.17773 0.751953 6.17676-0.610352Q5.17578-1.97266 4.62891-3.6084Q4.08203-5.24414 4.08203-7.05078Q4.08203-8.86719 4.62891-10.5029Q5.17578-12.1387 6.17188-13.501Q7.16797-14.8633 8.52539-15.8594Q9.88281-16.8555 11.5186-17.4023Q13.1543-17.9492 14.9609-17.9492Q16.7773-17.9492 18.4131-17.4023Q20.0488-16.8555 21.4111-15.8594Q22.7734-14.8633 23.7695-13.501Q24.7656-12.1387 25.3174-10.5029Q25.8691-8.86719 25.8691-7.05078Q25.8789-5.24414 25.332-3.6084Q24.7852-1.97266 23.7842-0.610352Q22.7832 0.751953 21.4209 1.74805Q20.0586 2.74414 18.4229 3.2959Q16.7871 3.84766 14.9707 3.84766ZM9.19922-7.05078Q9.19922-6.66992 9.45801-6.4209Q9.7168-6.17188 10.1172-6.17188L14.0625-6.17188L14.0625-2.2168Q14.0625-1.81641 14.3115-1.55762Q14.5605-1.29883 14.9512-1.29883Q15.3516-1.29883 15.6104-1.55273Q15.8691-1.80664 15.8691-2.2168L15.8691-6.17188L19.8242-6.17188Q20.2246-6.17188 20.4785-6.4209Q20.7324-6.66992 20.7324-7.05078Q20.7324-7.46094 20.4785-7.71484Q20.2246-7.96875 19.8242-7.96875L15.8691-7.96875L15.8691-11.9141Q15.8691-12.3242 15.6104-12.583Q15.3516-12.8418 14.9512-12.8418Q14.5605-12.8418 14.3115-12.583Q14.0625-12.3242 14.0625-11.9141L14.0625-7.96875L10.1172-7.96875Q9.70703-7.96875 9.45312-7.71484Q9.19922-7.46094 9.19922-7.05078Z"/>
  </g>
  <text style="stroke:none;fill:black;font-family:sans-serif;font-size:13;font-weight:bold;" transform="matrix(1 0 0 1 263 1953)">Design Variations</text>
  <text style="stroke:none;fill:black;font-family:sans-serif;font-size:13;" transform="matrix(1 0 0 1 263 1971)">Symbols are supported in up to nine weights and three scales.</text>
  <text style="stroke:none;fill:black;font-family:sans-serif;font-size:13;" transform="matrix(1 0 0 1 263 1989)">For optimal layout with text and other symbols, vertically align</text>
  <text style="stroke:none;fill:black;font-family:sans-serif;font-size:13;" transform="matrix(1 0 0 1 263 2007)">symbols with the adjacent text.</text>
  <line style="fill:none;stroke:#00AEEF;stroke-width:0.5;opacity:1.0;" x1="776" x2="776" y1="1919" y2="1933"/>
  <g transform="matrix(1 0 0 1 776 1933)">
   <path d="M3.31055 0.15625Q3.70117 0.15625 3.91602-0.00976562Q4.13086-0.175781 4.26758-0.585938L5.52734-4.0332L11.2891-4.0332L12.5488-0.585938Q12.6855-0.175781 12.9004-0.00976562Q13.1152 0.15625 13.4961 0.15625Q13.8867 0.15625 14.1162-0.0585938Q14.3457-0.273438 14.3457-0.644531Q14.3457-0.869141 14.2383-1.17188L9.6582-13.3691Q9.48242-13.8184 9.17969-14.043Q8.87695-14.2676 8.4082-14.2676Q7.5-14.2676 7.17773-13.3789L2.59766-1.16211Q2.49023-0.859375 2.49023-0.634766Q2.49023-0.263672 2.70996-0.0537109Q2.92969 0.15625 3.31055 0.15625ZM6.00586-5.51758L8.37891-12.0898L8.42773-12.0898L10.8008-5.51758Z"/>
  </g>
  <line style="fill:none;stroke:#00AEEF;stroke-width:0.5;opacity:1.0;" x1="793.197" x2="793.197" y1="1919" y2="1933"/>
  <text style="stroke:none;fill:black;font-family:sans-serif;font-size:13;font-weight:bold;" transform="matrix(1 0 0 1 776 1953)">Margins</text>
  <text style="stroke:none;fill:black;font-family:sans-serif;font-size:13;" transform="matrix(1 0 0 1 776 1971)">Leading and trailing margins on the left and right side of each symbol</text>
  <text style="stroke:none;fill:black;font-family:sans-serif;font-size:13;" transform="matrix(1 0 0 1 776 1989)">can be adjusted by modifying the x-location of the margin guidelines.</text>
  <text style="stroke:none;fill:black;font-family:sans-serif;font-size:13;" transform="matrix(1 0 0 1 776 2007)">Modifications are automatically applied proportionally to all</text>
  <text style="stroke:none;fill:black;font-family:sans-serif;font-size:13;" transform="matrix(1 0 0 1 776 2025)">scales and weights.</text>
  <g transform="matrix(1 0 0 1 1289 1933)">
   <path d="M2.8418 1.86523L4.54102 3.57422Q5.18555 4.22852 5.90332 4.17969Q6.62109 4.13086 7.31445 3.35938L18.0078-8.42773L17.041-9.4043L6.42578 2.27539Q6.16211 2.57812 5.89355 2.61719Q5.625 2.65625 5.27344 2.30469L4.10156 1.14258Q3.75 0.791016 3.79395 0.522461Q3.83789 0.253906 4.14062-0.0195312L15.6152-10.8203L14.6387-11.7871L3.04688-0.898438Q2.30469-0.214844 2.25098 0.498047Q2.19727 1.21094 2.8418 1.86523ZM9.25781-16.3281Q8.94531-16.0254 8.90625-15.6348Q8.86719-15.2441 9.04297-14.9512Q9.21875-14.6777 9.55566-14.541Q9.89258-14.4043 10.3809-14.5215Q11.4746-14.7754 12.5977-14.7314Q13.7207-14.6875 14.7949-13.9844L14.209-12.5293Q13.9551-11.9043 14.0674-11.4404Q14.1797-10.9766 14.5801-10.5664L16.875-8.25195Q17.2363-7.88086 17.5781-7.82227Q17.9199-7.76367 18.3398-7.8418L19.4043-8.03711L20.0684-7.36328L20.0293-6.80664Q20-6.43555 20.1221-6.12305Q20.2441-5.81055 20.6055-5.44922L21.3672-4.70703Q21.7285-4.3457 22.1533-4.33105Q22.5781-4.31641 22.9297-4.66797L25.8398-7.58789Q26.1914-7.93945 26.1816-8.35449Q26.1719-8.76953 25.8105-9.13086L25.0391-9.89258Q24.6875-10.2539 24.3799-10.3857Q24.0723-10.5176 23.7109-10.4883L23.1348-10.4395L22.4902-11.0742L22.7344-12.1973Q22.832-12.6172 22.6953-12.9834Q22.5586-13.3496 22.1191-13.7891L19.9219-15.9766Q18.6719-17.2168 17.2607-17.8369Q15.8496-18.457 14.4189-18.4814Q12.9883-18.5059 11.665-17.959Q10.3418-17.4121 9.25781-16.3281ZM10.752-15.957Q11.6602-16.6211 12.7002-16.9043Q13.7402-17.1875 14.8047-17.085Q15.8691-16.9824 16.8701-16.5137Q17.8711-16.0449 18.7012-15.2051L21.1328-12.793Q21.3086-12.6172 21.3525-12.4512Q21.3965-12.2852 21.3379-12.0312L21.0156-10.5469L22.5195-9.0625L23.5059-9.12109Q23.6914-9.13086 23.7891-9.09668Q23.8867-9.0625 24.0332-8.91602L24.6094-8.33984L22.168-5.89844L21.5918-6.47461Q21.4453-6.62109 21.4062-6.71875Q21.3672-6.81641 21.377-7.01172L21.4453-7.98828L19.9512-9.47266L18.4277-9.21875Q18.1836-9.16992 18.042-9.2041Q17.9004-9.23828 17.7148-9.41406L15.7129-11.416Q15.5176-11.5918 15.4932-11.7529Q15.4688-11.9141 15.5859-12.1875L16.4648-14.2773Q15.293-15.3711 13.8281-15.791Q12.3633-16.2109 10.8398-15.7617Q10.7227-15.7324 10.6885-15.8057Q10.6543-15.8789 10.752-15.957Z"/>
  </g>
  <text style="stroke:none;fill:black;font-family:sans-serif;font-size:13;font-weight:bold;" transform="matrix(1 0 0 1 1289 1953)">Exporting</text>
  <text style="stroke:none;fill:black;font-family:sans-serif;font-size:13;" transform="matrix(1 0 0 1 1289 1971)">Symbols should be outlined when exporting to ensure the</text>
  <text style="stroke:none;fill:black;font-family:sans-serif;font-size:13;" transform="matrix(1 0 0 1 1289 1989)">design is preserved when submitting to Xcode.</text>
  <text id="template-version" style="stroke:none;fill:black;font-family:sans-serif;font-size:13;text-anchor:end;" transform="matrix(1 0 0 1 3036 1933)">Template v.3.0</text>
  <text style="stroke:none;fill:black;font-family:sans-serif;font-size:13;text-anchor:end;" transform="matrix(1 0 0 1 3036 1951)">Requires Xcode 13 or greater</text>
  <text id="descriptive-name" style="stroke:none;fill:black;font-family:sans-serif;font-size:13;text-anchor:end;" transform="matrix(1 0 0 1 3036 1969)">Generated from message</text>
  <text style="stroke:none;fill:black;font-family:sans-serif;font-size:13;text-anchor:end;" transform="matrix(1 0 0 1 3036 1987)">Typeset at 100 points</text>
  <text style="stroke:none;fill:black;font-family:sans-serif;font-size:13;" transform="matrix(1 0 0 1 263 726)">Small</text>
  <text style="stroke:none;fill:black;font-family:sans-serif;font-size:13;" transform="matrix(1 0 0 1 263 1156)">Medium</text>
  <text style="stroke:none;fill:black;font-family:sans-serif;font-size:13;" transform="matrix(1 0 0 1 263 1586)">Large</text>
 </g>
 <g id="Guides">
  <g id="H-reference" style="fill:#27AAE1;stroke:none;" transform="matrix(1 0 0 1 339 696)">
   <path d="M0.993347 0L3.6377 0L29.3282-67.1326L30.0301-67.1326L30.0301-70.459L28.1227-70.459ZM11.6882-24.4797L46.9818-24.4797L46.2311-26.7288L12.4382-26.7288ZM55.1193 0L57.7637 0L30.6381-70.459L29.4327-70.459L29.4327-67.1326Z"/>
  </g>
  <line id="Baseline-S" style="fill:none;stroke:#27AAE1;opacity:1;stroke-width:0.5;" x1="263" x2="3036" y1="696" y2="696"/>
  <line id="Capline-S" style="fill:none;stroke:#27AAE1;opacity:1;stroke-width:0.5;" x1="263" x2="3036" y1="625.541" y2="625.541"/>
  <g id="H-reference" style="fill:#27AAE1;stroke:none;" transform="matrix(1 0 0 1 339 1126)">
   <path d="M0.993347 0L3.6377 0L29.3282-67.1326L30.0301-67.1326L30.0301-70.459L28.1227-70.459ZM11.6882-24.4797L46.9818-24.4797L46.2311-26.7288L12.4382-26.7288ZM55.1193 0L57.7637 0L30.6381-70.459L29.4327-70.459L29.4327-67.1326Z"/>
  </g>
  <line id="Baseline-M" style="fill:none;stroke:#27AAE1;opacity:1;stroke-width:0.5;" x1="263" x2="3036" y1="1126" y2="1126"/>
  <line id="Capline-M" style="fill:none;stroke:#27AAE1;opacity:1;stroke-width:0.5;" x1="263" x2="3036" y1="1055.54" y2="1055.54"/>
  <g id="H-reference" style="fill:#27AAE1;stroke:none;" transform="matrix(1 0 0 1 339 1556)">
   <path d="M0.993347 0L3.6377 0L29.3282-67.1326L30.0301-67.1326L30.0301-70.459L28.1227-70.459ZM11.6882-24.4797L46.9818-24.4797L46.2311-26.7288L12.4382-26.7288ZM55.1193 0L57.7637 0L30.6381-70.459L29.4327-70.459L29.4327-67.1326Z"/>
  </g>
  <line id="Baseline-L" style="fill:none;stroke:#27AAE1;opacity:1;stroke-width:0.5;" x1="263" x2="3036" y1="1556" y2="1556"/>
  <line id="Capline-L" style="fill:none;stroke:#27AAE1;opacity:1;stroke-width:0.5;" x1="263" x2="3036" y1="1485.54" y2="1485.54"/>
  <line id="left-margin-Regular-M" style="fill:none;stroke:#00AEEF;stroke-width:0.5;opacity:1.0;" x1="1391.32" x2="1391.32" y1="1030.78" y2="1150.12"/>
  <line id="right-margin-Regular-M" style="fill:none;stroke:#00AEEF;stroke-width:0.5;opacity:1.0;" x1="1508.37" x2="1508.37" y1="1030.78" y2="1150.12"/>
 </g>
 <g id="Symbols">
  <g id="Black-L" transform="matrix(1 0 0 1 2854.19 1556)">
   <path d="M79.1953 34.4144Q93.2356 34.4144 105.521 29.1195Q117.806 23.8245 127.174 14.4462Q136.542 5.06792 141.848-7.21735Q147.154-19.5026 147.154-33.5222Q147.154-47.5417 141.848-59.827Q136.542-72.1122 127.164-81.4905Q117.785-90.8688 105.5-96.1637Q93.2149-101.459 79.1746-101.459Q65.1563-101.459 52.8704-96.1637Q40.5846-90.8688 31.2276-81.4905Q21.8707-72.1122 16.5647-59.827Q11.2588-47.5417 11.2588-33.5222Q11.2588-19.5026 16.5647-7.21735Q21.8707 5.06792 31.2379 14.4462Q40.6053 23.8245 52.8911 29.1195Q65.177 34.4144 79.1953 34.4144ZM81.5255 6.87036Q78.813 6.87036 77.3613 5.10112Q75.9096 3.33185 75.0289 0.546932L70.3017-14.4472Q69.6479-16.5773 69.9158-18.4092Q70.1837-20.2412 71.6133-21.7876L107.436-61.3995Q108.215-62.3426 107.437-63.1534Q106.602-63.8281 105.706-63.1509L66.0386-27.2468Q64.2366-25.642 62.5987-25.5116Q60.9608-25.3812 58.6983-26.1142L43.6123-30.8024Q40.8896-31.6832 39.1521-33.1062Q37.4146-34.5293 37.4146-37.2405Q37.4146-39.6897 38.9153-41.2944Q40.416-42.8991 42.795-43.7604L103.088-66.8337Q104.965-67.5782 106.818-67.5782Q109.123-67.5782 110.503-66.2082Q111.884-64.8382 111.884-62.5329Q111.884-60.6805 111.119-58.8041L88.1061 1.38492Q87.1839 3.89093 85.5689 5.38066Q83.954 6.87036 81.5255 6.87036Z"/>
  </g>
  <g id="Heavy-L" transform="matrix(1 0 0 1 2558.42 1556)">
   <path d="M78.251 33.4563Q92.0879 33.4563 104.202 28.2355Q116.316 23.0147 125.559 13.7569Q134.802 4.49906 140.04-7.61489Q145.279-19.7288 145.279-33.5359Q145.279-47.3431 140.04-59.457Q134.802-71.5709 125.544-80.8288Q116.286-90.0866 104.172-95.3074Q92.0582-100.528 78.2213-100.528Q64.4202-100.528 52.3033-95.3074Q40.1864-90.0866 30.9612-80.8288Q21.7362-71.5709 16.4975-59.457Q11.2588-47.3431 11.2588-33.5359Q11.2588-19.7288 16.4975-7.61489Q21.7362 4.49906 30.9761 13.7569Q40.2161 23.0147 52.333 28.2355Q64.45 33.4563 78.251 33.4563ZM80.3982 6.99059Q77.7665 6.99059 76.4074 5.2415Q75.0484 3.49237 74.1819 0.723115L69.1421-15.3891Q68.5439-17.4341 68.7821-19.0862Q69.0203-20.7382 70.3568-22.164L106.486-61.8348Q107.242-62.7641 106.492-63.5051Q105.703-64.1332 104.863-63.493L65.1865-27.2511Q63.5465-25.7808 62.0357-25.6615Q60.5249-25.5424 58.4116-26.2149L42.0849-31.2339Q39.405-32.1004 37.7036-33.4401Q36.0021-34.7798 36.0021-37.4055Q36.0021-39.7335 37.4967-41.2772Q38.9913-42.8208 41.3137-43.6636L102.252-66.9939Q104.274-67.7741 106.069-67.7741Q108.222-67.7741 109.509-66.5015Q110.796-65.2289 110.796-63.0766Q110.796-61.2817 109.987-59.2659L86.7394 1.52403Q85.8134 4.03721 84.2549 5.51392Q82.6965 6.99059 80.3982 6.99059Z"/>
  </g>
  <g id="Bold-L" transform="matrix(1 0 0 1 2262.89 1556)">
   <path d="M77.0652 32.2551Q90.6516 32.2551 102.549 27.1288Q114.447 22.0024 123.533 12.898Q132.619 3.79363 137.771-8.1042Q142.923-20.002 142.923-33.5513Q142.923-47.1007 137.771-58.9986Q132.619-70.8963 123.515-80.0007Q114.41-89.1051 102.512-94.2314Q90.6146-99.3578 77.0283-99.3578Q63.4932-99.3578 51.5882-94.2314Q39.6833-89.1051 30.623-80.0007Q21.5627-70.8963 16.4107-58.9986Q11.2588-47.1007 11.2588-33.5513Q11.2588-20.002 16.4107-8.1042Q21.5627 3.79363 30.6414 12.898Q39.7203 22.0024 51.6252 27.1288Q63.5302 32.2551 77.0652 32.2551ZM79.022 7.13947Q76.5296 7.13947 75.2886 5.44602Q74.0476 3.75253 73.2057 1.03532L67.727-16.6125Q67.1995-18.5192 67.4073-19.9571Q67.6153-21.395 68.8245-22.6627L105.357-62.385Q106.081-63.2989 105.371-63.9445Q104.646-64.509 103.877-63.9161L64.1929-27.2501Q62.7572-25.9533 61.403-25.8408Q60.0488-25.7283 58.1427-26.3219L40.1691-31.7942Q37.563-32.6362 35.9321-33.8696Q34.3012-35.1031 34.3012-37.5814Q34.3012-39.7422 35.7602-41.1931Q37.2191-42.644 39.4524-43.4632L101.338-67.1616Q103.467-67.9615 105.154-67.9615Q107.11-67.9615 108.274-66.8152Q109.439-65.6688 109.439-63.7136Q109.439-62.0261 108.602-59.912L85.0005 1.78901Q84.0846 4.2728 82.6152 5.70616Q81.1459 7.13947 79.022 7.13947Z"/>
  </g>
  <g id="Semibold-L" transform="matrix(1 0 0 1 1966.99 1556)">
   <path d="M76.2478 31.427Q89.6614 31.427 101.41 26.3658Q113.159 21.3045 122.137 12.3059Q131.114 3.30732 136.206-8.44153Q141.299-20.1904 141.299-33.562Q141.299-46.9337 136.206-58.6825Q131.114-70.4313 122.116-79.4299Q113.117-88.4285 101.368-93.4897Q89.6194-98.551 76.2058-98.551Q62.8541-98.551 51.0953-93.4897Q39.3366-88.4285 30.3898-79.4299Q21.4431-70.4313 16.351-58.6825Q11.2588-46.9337 11.2588-33.562Q11.2588-20.1904 16.351-8.44153Q21.4431 3.30732 30.4107 12.3059Q39.3785 21.3045 51.1373 26.3658Q62.896 31.427 76.2478 31.427ZM78.0733 7.24211Q75.6769 7.24211 74.5173 5.58702Q73.3577 3.93189 72.5327 1.25056L66.7514-17.4559Q66.2727-19.2672 66.4596-20.5575Q66.6466-21.8477 67.7682-23.0065L104.578-62.7644Q105.281-63.6676 104.598-64.2475Q103.917-64.7681 103.197-64.2078L63.5079-27.2495Q62.2131-26.0722 60.9669-25.9643Q59.7206-25.8565 57.9574-26.3957L38.8484-32.1805Q36.2931-33.0056 34.7108-34.1657Q33.1286-35.326 33.1286-37.7026Q33.1286-39.7482 34.563-41.1351Q35.9973-42.522 38.1692-43.325L100.708-67.2772Q102.91-68.0908 104.523-68.0908Q106.343-68.0908 107.423-67.0315Q108.503-65.9721 108.503-64.1528Q108.503-62.5393 107.648-60.3574L83.8017 1.97169Q82.8928 4.43521 81.4848 5.83868Q80.077 7.24211 78.0733 7.24211Z"/>
  </g>
  <g id="Medium-L" transform="matrix(1 0 0 1 1670.89 1556)">
   <path d="M75.6279 30.7991Q88.9105 30.7991 100.546 25.7872Q112.182 20.7753 121.078 11.857Q129.973 2.93858 135.02-8.69731Q140.067-20.3332 140.067-33.57Q140.067-46.807 135.02-58.4428Q129.973-70.0787 121.055-78.997Q112.137-87.9154 100.501-92.9273Q88.8648-97.9392 75.5822-97.9392Q62.3695-97.9392 50.7215-92.9273Q39.0736-87.9154 30.213-78.997Q21.3525-70.0787 16.3056-58.4428Q11.2588-46.807 11.2588-33.57Q11.2588-20.3332 16.3056-8.69731Q21.3525 2.93858 30.2358 11.857Q39.1193 20.7753 50.7673 25.7872Q62.4152 30.7991 75.6279 30.7991ZM77.3539 7.31994Q75.0303 7.31994 73.9324 5.69393Q72.8346 4.06788 72.0224 1.41376L66.0116-18.0953Q65.57-19.8344 65.741-21.0127Q65.9122-22.191 66.9673-23.2672L103.988-63.052Q104.674-63.9472 104.012-64.4772Q103.364-64.9646 102.681-64.4289L62.9886-27.249Q61.8005-26.1623 60.6362-26.058Q59.4718-25.9538 57.8168-26.4516L37.847-32.4735Q35.3302-33.2856 33.7848-34.3903Q32.2395-35.495 32.2395-37.7946Q32.2395-39.7527 33.6552-41.0912Q35.071-42.4296 37.1963-43.2202L100.23-67.3649Q102.488-68.1888 104.045-68.1888Q105.762-68.1888 106.778-67.1954Q107.794-66.202 107.794-64.4858Q107.794-62.9285 106.924-60.6952L82.8927 2.11021Q81.9891 4.55835 80.6277 5.93917Q79.2665 7.31994 77.3539 7.31994Z"/>
  </g>
  <g id="Regular-L" transform="matrix(1 0 0 1 1374.99 1556)">
   <path d="M74.8194 29.9801Q87.9312 29.9801 99.4198 25.0326Q110.908 20.0851 119.697 11.2714Q128.485 2.45761 133.473-9.03094Q138.461-20.5195 138.461-33.5805Q138.461-46.6417 133.473-58.1302Q128.485-69.6188 119.671-78.4325Q110.858-87.2462 99.3691-92.1937Q87.8806-97.1412 74.7688-97.1412Q61.7374-97.1412 50.234-92.1937Q38.7306-87.2462 29.9823-78.4325Q21.2342-69.6188 16.2465-58.1302Q11.2588-46.6417 11.2588-33.5805Q11.2588-20.5195 16.2465-9.03094Q21.2342 2.45761 30.0077 11.2714Q38.7813 20.0851 50.2847 25.0326Q61.7881 29.9801 74.8194 29.9801ZM76.4156 7.42145Q74.187 7.42145 73.1696 5.83338Q72.1522 4.24526 71.3568 1.62663L65.0467-18.9295Q64.6534-20.5743 64.8037-21.6065Q64.9542-22.6388 65.9226-23.6072L103.219-63.4272Q103.883-64.3118 103.248-64.7768Q102.643-65.2208 102.009-64.7174L62.3111-27.2483Q61.2624-26.28 60.2048-26.1803Q59.1472-26.0806 57.6335-26.5246L36.5408-32.8555Q34.0742-33.651 32.577-34.6832Q31.0798-35.7154 31.0798-37.9145Q31.0798-39.7586 32.4712-41.0339Q33.8626-42.309 35.9272-43.0836L99.6073-67.4792Q101.937-68.3166 103.421-68.3166Q105.003-68.3166 105.936-67.4093Q106.868-66.502 106.868-64.9201Q106.868-63.436 105.98-61.1357L81.707 2.29088Q80.8104 4.71898 79.5098 6.07024Q78.2093 7.42145 76.4156 7.42145Z"/>
  </g>
  <g id="Light-L" transform="matrix(1 0 0 1 1079.2 1556)">
   <path d="M73.896 29.0566Q86.8435 29.0566 98.1577 24.1912Q109.472 19.3258 118.137 10.6454Q126.802 1.96511 131.708-9.34901Q136.614-20.6631 136.614-33.5805Q136.614-46.4981 131.708-57.8121Q126.802-69.1262 118.122-77.8066Q109.442-86.4869 98.1275-91.3523Q86.8134-96.2177 73.8658-96.2177Q60.9986-96.2177 49.6594-91.3523Q38.3202-86.4869 29.695-77.8066Q21.07-69.1262 16.1644-57.8121Q11.2588-46.4981 11.2588-33.5805Q11.2588-20.6631 16.1644-9.34901Q21.07 1.96511 29.7101 10.6454Q38.3503 19.3258 49.6896 24.1912Q61.0288 29.0566 73.896 29.0566ZM75.5948 7.52406Q73.7149 7.52406 72.8002 6.17199Q71.8854 4.81988 71.1516 2.4475L64.2053-20.1402Q63.8736-21.4772 64.0444-22.4172Q64.2154-23.3571 65.0196-24.1613L102.747-63.8787Q103.37-64.7634 102.797-65.1051Q102.274-65.4671 101.701-65.0047L62.0238-27.2073Q61.1392-26.4031 60.1842-26.2623Q59.2293-26.1216 58.0029-26.4835L35.0632-33.4096Q32.7813-34.1435 31.4996-35.0833Q30.2178-36.0232 30.2178-37.8529Q30.2178-39.4713 31.404-40.5721Q32.5903-41.6729 34.4701-42.4269L99.7509-67.3971Q101.691-68.0908 102.867-68.0908Q104.265-68.0908 105.064-67.3067Q105.863-66.5225 105.863-65.1253Q105.863-63.9491 105.139-62.0592L80.209 3.07073Q79.4149 5.23203 78.299 6.37807Q77.1832 7.52406 75.5948 7.52406Z"/>
  </g>
  <g id="Thin-L" transform="matrix(1 0 0 1 783.716 1556)">
   <path d="M72.6746 27.8352Q85.405 27.8352 96.4885 23.0784Q107.572 18.3215 116.074 9.8176Q124.577 1.31375 129.374-9.76969Q134.171-20.8531 134.171-33.5805Q134.171-46.3081 129.374-57.3914Q124.577-68.4748 116.073-76.9788Q107.569-85.4826 96.4854-90.2395Q85.402-94.9962 72.6716-94.9962Q60.0215-94.9962 48.8994-90.2395Q37.7773-85.4826 29.315-76.9788Q20.8529-68.4748 16.0558-57.3914Q11.2588-46.3081 11.2588-33.5805Q11.2588-20.8531 16.0558-9.76969Q20.8529 1.31375 29.3165 9.8176Q37.7803 18.3215 48.9024 23.0784Q60.0246 27.8352 72.6746 27.8352ZM74.5091 7.65977Q73.0906 7.65977 72.3117 6.61983Q71.5325 5.57986 70.8802 3.53316L63.0925-21.7416Q62.8421-22.6714 63.0402-23.4893Q63.2383-24.3071 63.8254-24.8941L102.122-64.4758Q102.691-65.3605 102.2-65.5394Q101.786-65.7927 101.294-65.3847L61.6438-27.153Q60.9764-26.566 60.1571-26.3709Q59.3379-26.1758 58.4914-26.4292L33.109-34.1424Q31.0713-34.7949 30.0747-35.6126Q29.0779-36.4304 29.0779-37.7715Q29.0779-39.0913 29.9926-39.9614Q30.9074-40.8314 32.543-41.5583L99.9409-67.2886Q101.365-67.7923 102.134-67.7923Q103.287-67.7923 103.91-67.171Q104.533-66.5496 104.533-65.3967Q104.533-64.6276 104.026-63.2806L78.2276 4.10214Q77.5692 5.91058 76.6976 6.7852Q75.8261 7.65977 74.5091 7.65977Z"/>
  </g>
  <g id="Ultralight-L" transform="matrix(1 0 0 1 487.632 1556)">
   <path d="M72.049 27.2096Q84.6682 27.2096 95.6335 22.5084Q106.599 17.8072 115.018 9.39359Q123.437 0.98012 128.178-9.98516Q132.919-20.9504 132.919-33.5805Q132.919-46.2108 128.178-57.1759Q123.437-68.1412 115.023-76.5548Q106.609-84.9682 95.6444-89.6695Q84.6791-94.3706 72.0599-94.3706Q59.5211-94.3706 48.5102-89.6695Q37.4993-84.9682 29.1204-76.5548Q20.7417-68.1412 16.0002-57.1759Q11.2588-46.2108 11.2588-33.5805Q11.2588-20.9504 16.0002-9.98516Q20.7417 0.98012 29.115 9.39359Q37.4884 17.8072 48.4993 22.5084Q59.5102 27.2096 72.049 27.2096ZM73.953 7.72928Q72.7709 7.72928 72.0614 6.84921Q71.3518 5.96912 70.7411 4.08924L62.5225-22.5618Q62.3139-23.2831 62.5259-24.0384Q62.7378-24.7936 63.2137-25.2695L101.803-64.7816Q102.344-65.6664 101.894-65.7618Q101.535-65.9596 101.085-65.5793L61.4492-27.1253Q60.893-26.6494 60.1431-26.4265Q59.3935-26.2036 58.7417-26.4014L32.1081-34.5177Q30.1955-35.1286 29.3449-35.8836Q28.494-36.6389 28.494-37.7298Q28.494-38.8967 29.2697-39.6486Q30.0455-40.4005 31.556-41.1134L100.038-67.233Q101.198-67.6393 101.759-67.6393Q102.787-67.6393 103.319-67.1015Q103.852-66.5635 103.852-65.5358Q103.852-64.9752 103.456-63.9062L77.2128 4.63042Q76.6239 6.25812 75.8774 6.99373Q75.131 7.72928 73.953 7.72928Z"/>
  </g>
  <g id="Black-M" transform="matrix(1 0 0 1 2871.35 1126)">
   <path d="M62.0423 19.4247Q73.0725 19.4247 82.714 15.2699Q92.3555 11.1151 99.704 3.76385Q107.052-3.58734 111.21-13.2289Q115.367-22.8704 115.367-33.895Q115.367-44.9197 111.21-54.5612Q107.052-64.2026 99.7012-71.5539Q92.35-78.9051 82.7085-83.0599Q73.067-87.2147 62.0368-87.2147Q51.0119-87.2147 41.3705-83.0599Q31.7292-78.9051 24.3833-71.5539Q17.0375-64.2026 12.88-54.5612Q8.72266-44.9197 8.72266-33.895Q8.72266-22.8704 12.88-13.2289Q17.0375-3.58734 24.386 3.76385Q31.7347 11.1151 41.376 15.2699Q51.0174 19.4247 62.0423 19.4247ZM64.0188-2.70252Q61.8952-2.70252 60.7047-4.05856Q59.5144-5.41463 58.8281-7.55231L55.3482-18.4833Q54.8023-20.165 55.0381-21.7263Q55.274-23.2877 56.4394-24.5673L83.9876-55.1916Q84.6059-55.9342 83.9873-56.6057Q83.311-57.1573 82.5781-56.6063L51.8564-29.0359Q50.3432-27.6992 48.9789-27.583Q47.6146-27.4668 45.7724-28.0754L34.9007-31.504Q32.7797-32.1903 31.4317-33.352Q30.0838-34.5136 30.0838-36.6375Q30.0838-38.6086 31.2239-39.8806Q32.3641-41.1527 34.2307-41.8331L80.6035-59.5659Q81.8817-60.0926 83.3244-60.0926Q85.217-60.0926 86.3481-58.9642Q87.4793-57.8357 87.4793-55.9433Q87.4793-54.5004 86.9472-53.222L69.2311-6.87678Q68.5338-4.97758 67.259-3.84003Q65.9844-2.70252 64.0188-2.70252Z"/>
  </g>
  <g id="Heavy-M" transform="matrix(1 0 0 1 2575.47 1126)">
   <path d="M61.2044 18.5733Q72.0509 18.5733 81.541 14.4834Q91.0312 10.3935 98.2688 3.14775Q105.506-4.09801 109.606-13.5881Q113.705-23.0783 113.705-33.9085Q113.705-44.7387 109.606-54.2289Q105.506-63.7189 98.2607-70.9647Q91.0149-78.2105 81.5248-82.3004Q72.0347-86.3903 61.1882-86.3903Q50.3604-86.3903 40.8691-82.3004Q31.3778-78.2105 24.1494-70.9647Q16.9211-63.7189 12.8219-54.2289Q8.72266-44.7387 8.72266-33.9085Q8.72266-23.0783 12.8219-13.5881Q16.9211-4.09801 24.1575 3.14775Q31.394 10.3935 40.8853 14.4834Q50.3767 18.5733 61.2044 18.5733ZM62.9925-2.59445Q60.9157-2.59445 59.8064-3.95257Q58.6971-5.31071 58.0191-7.45581L54.2923-19.2923Q53.795-20.9192 53.9999-22.3133Q54.2049-23.7073 55.2943-24.8841L83.1024-55.5755Q83.7018-56.3046 83.1048-56.9192Q82.4665-57.4328 81.7823-56.9143L51.0498-29.0438Q49.6799-27.8235 48.4304-27.722Q47.1809-27.6206 45.4581-28.1777L33.5439-31.8747Q31.4476-32.5527 30.1151-33.6414Q28.7825-34.7301 28.7825-36.8045Q28.7825-38.6779 29.9356-39.9064Q31.0887-41.1348 32.9171-41.799L79.7739-59.7301Q81.2289-60.3049 82.6438-60.3049Q84.4038-60.3049 85.4565-59.2604Q86.5091-58.2157 86.5091-56.4558Q86.5091-55.0408 85.9182-53.5883L68.0333-6.81274Q67.3228-4.88191 66.0862-3.73816Q64.8498-2.59445 62.9925-2.59445Z"/>
  </g>
  <g id="Bold-M" transform="matrix(1 0 0 1 2279.69 1126)">
   <path d="M60.2671 17.621Q70.9081 17.621 80.2289 13.6037Q89.5497 9.58635 96.6634 2.45854Q103.777-4.66926 107.811-13.99Q111.845-23.3108 111.845-33.9236Q111.845-44.5363 107.811-53.8571Q103.777-63.1778 96.6492-70.3057Q89.5215-77.4335 80.2007-81.4508Q70.8799-85.4681 60.2389-85.4681Q49.6317-85.4681 40.3082-81.4508Q30.9847-77.4335 23.8878-70.3057Q16.791-63.1778 12.7568-53.8571Q8.72266-44.5363 8.72266-33.9236Q8.72266-23.3108 12.7568-13.99Q16.791-4.66926 23.9019 2.45854Q31.0129 9.58635 40.3364 13.6037Q49.6599 17.621 60.2671 17.621ZM61.8445-2.47356Q59.82-2.47356 58.8014-3.834Q57.7829-5.19447 57.1141-7.34785L53.1111-20.1973Q52.6682-21.763 52.8385-22.9699Q53.0089-24.1767 54.0134-25.2384L82.1121-56.005Q82.6904-56.7189 82.1176-57.2699Q81.5219-57.7411 80.892-57.2589L50.1476-29.0527Q48.938-27.9625 47.8169-27.8775Q46.6958-27.7925 45.1065-28.2922L32.0262-32.2893Q29.9576-32.9581 28.6422-33.9651Q27.3269-34.9722 27.3269-36.9912Q27.3269-38.7554 28.4944-39.9351Q29.662-41.1148 31.4476-41.7609L78.8458-59.9137Q80.4986-60.5424 81.8825-60.5424Q83.4942-60.5424 84.4591-59.5917Q85.4239-58.6409 85.4239-57.0292Q85.4239-55.6452 84.7671-53.998L66.6933-6.74109Q65.9681-4.77489 64.7743-3.62421Q63.5805-2.47356 61.8445-2.47356Z"/>
  </g>
  <g id="Semibold-M" transform="matrix(1 0 0 1 1983.62 1126)">
   <path d="M59.621 16.9644Q70.1203 16.9644 79.3244 12.9971Q88.5284 9.02989 95.5566 1.98341Q102.585-5.06308 106.574-14.2671Q110.564-23.4712 110.564-33.9339Q110.564-44.3968 106.574-53.6008Q102.585-62.8048 95.5383-69.8513Q88.4919-76.8978 79.2879-80.865Q70.0838-84.8323 59.5845-84.8323Q49.1293-84.8323 39.9215-80.865Q30.7137-76.8978 23.7074-69.8513Q16.7013-62.8048 12.712-53.6008Q8.72266-44.3968 8.72266-33.9339Q8.72266-23.4712 12.712-14.2671Q16.7013-5.06308 23.7257 1.98341Q30.7502 9.02989 39.958 12.9971Q49.1658 16.9644 59.621 16.9644ZM61.053-2.39022Q59.0646-2.39022 58.1086-3.75226Q57.1526-5.11433 56.4902-7.27343L52.2968-20.8212Q51.8914-22.3447 52.0378-23.4225Q52.1844-24.5003 53.1304-25.4827L81.4295-56.301Q81.9931-57.0045 81.4371-57.5116Q80.8706-57.9536 80.2783-57.4964L49.5256-29.0589Q48.4264-28.0584 47.3939-27.9847Q46.3614-27.9111 44.8641-28.3711L30.9799-32.5752Q28.9303-33.2376 27.6268-34.1883Q26.3234-35.1391 26.3234-37.1199Q26.3234-38.8088 27.5009-39.955Q28.6784-41.101 30.4346-41.7346L78.206-60.0404Q79.9951-60.7061 81.3576-60.7061Q82.8671-60.7061 83.7714-59.8201Q84.6757-58.9339 84.6757-57.4245Q84.6757-56.0619 83.9735-54.2805L65.7696-6.6917Q65.0342-4.70112 63.8698-3.54565Q62.7055-2.39022 61.053-2.39022Z"/>
  </g>
  <g id="Medium-M" transform="matrix(1 0 0 1 1687.4 1126)">
   <path d="M59.131 16.4666Q69.523 16.4666 78.6385 12.5373Q87.754 8.60796 94.7175 1.62314Q101.681-5.36169 105.636-14.4772Q109.592-23.5927 109.592-33.9418Q109.592-44.291 105.636-53.4065Q101.681-62.522 94.696-69.5068Q87.7112-76.4916 78.5957-80.4209Q69.4802-84.3502 59.0883-84.3502Q48.7484-84.3502 39.6283-80.4209Q30.5082-76.4916 23.5707-69.5068Q16.6333-62.522 12.678-53.4065Q8.72266-44.291 8.72266-33.9418Q8.72266-23.5927 12.678-14.4772Q16.6333-5.36169 23.5921 1.62314Q30.5509 8.60796 39.671 12.5373Q48.7912 16.4666 59.131 16.4666ZM60.4529-2.32703Q58.4918-2.32703 57.5833-3.69028Q56.6747-5.05356 56.0171-7.217L51.6793-21.2943Q51.3024-22.7857 51.4307-23.7657Q51.5592-24.7457 52.4609-25.6679L80.9118-56.5255Q81.4644-57.2211 80.9211-57.695Q80.3768-58.1147 79.8129-57.6765L49.0539-29.0636Q48.0386-28.1311 47.0732-28.066Q46.1078-28.0009 44.6803-28.4309L30.1865-32.7919Q28.1514-33.4495 26.8569-34.3576Q25.5625-35.2656 25.5625-37.2176Q25.5625-38.8494 26.7475-39.97Q27.9326-41.0906 29.6665-41.7147L77.7208-60.1364Q79.6134-60.8303 80.9596-60.8303Q82.3916-60.8303 83.25-59.9932Q84.1084-59.1562 84.1084-57.7243Q84.1084-56.3779 83.3718-54.4946L65.0692-6.65425Q64.3261-4.64518 63.184-3.48608Q62.0421-2.32703 60.4529-2.32703Z"/>
  </g>
  <g id="Regular-M" transform="matrix(1 0 0 1 1391.32 1126)">
   <path d="M58.492 15.8172Q68.7438 15.8172 77.7439 11.9374Q86.7439 8.05761 93.6229 1.15323Q100.502-5.75118 104.413-14.7512Q108.324-23.7513 108.324-33.9521Q108.324-44.153 104.413-53.153Q100.502-62.1531 93.5973-69.0574Q86.693-75.9618 77.6929-79.8416Q68.6929-83.7214 58.441-83.7214Q48.2516-83.7214 39.2459-79.8416Q30.2401-75.9618 23.3923-69.0574Q16.5446-62.1531 12.6336-53.153Q8.72266-44.153 8.72266-33.9521Q8.72266-23.7513 12.6336-14.7512Q16.5446-5.75118 23.4178 1.15323Q30.2911 8.05761 39.2968 11.9374Q48.3025 15.8172 58.492 15.8172ZM59.6702-2.2446Q57.7447-2.2446 56.8981-3.60944Q56.0514-4.97431 55.4001-7.14339L50.8739-21.9113Q50.5341-23.361 50.6389-24.2134Q50.7437-25.0658 51.5875-25.9096L80.2367-56.8183Q80.7748-57.5036 80.248-57.9341Q79.7327-58.3248 79.206-57.9114L48.4388-29.0696Q47.5327-28.2258 46.6549-28.172Q45.777-28.1182 44.4406-28.5089L29.1517-33.0746Q27.1355-33.726 25.8527-34.5783Q24.57-35.4307 24.57-37.3449Q24.57-38.9022 25.7649-39.9897Q26.9599-41.077 28.6646-41.6887L77.0881-60.2616Q79.1154-60.9922 80.4405-60.9922Q81.7715-60.9922 82.57-60.2191Q83.3685-59.446 83.3685-58.1152Q83.3685-56.79 82.587-54.774L64.1556-6.6054Q63.4024-4.57221 62.2895-3.40839Q61.1767-2.2446 59.6702-2.2446Z"/>
  </g>
  <g id="Light-M" transform="matrix(1 0 0 1 1095.44 1126)">
   <path d="M57.664 14.9893Q67.7687 14.9893 76.6123 11.1831Q85.4559 7.37685 92.2245 0.592062Q98.993-6.19273 102.83-15.0364Q106.668-23.8801 106.668-33.9521Q106.668-44.0242 102.83-52.8678Q98.993-61.7115 92.2082-68.4963Q85.4234-75.2811 76.5798-79.0873Q67.7361-82.8935 57.6315-82.8935Q47.5892-82.8935 38.7307-79.0873Q29.8721-75.2811 23.1347-68.4963Q16.3974-61.7115 12.56-52.8678Q8.72266-44.0242 8.72266-33.9521Q8.72266-23.8801 12.56-15.0364Q16.3974-6.19273 23.151 0.592062Q29.9047 7.37685 38.7632 11.1831Q47.6218 14.9893 57.664 14.9893ZM58.9342-2.15261Q57.3215-2.15261 56.5669-3.30585Q55.8122-4.45913 55.2161-6.40744L50.1195-22.9969Q49.8349-24.1706 49.9581-24.9402Q50.0814-25.7097 50.778-26.4063L79.8135-57.223Q80.3148-57.9084 79.8432-58.2284Q79.4015-58.5456 78.93-58.169L48.1812-29.0329Q47.4223-28.3363 46.6365-28.2456Q45.8506-28.155 44.7718-28.4721L27.8269-33.5714Q25.9763-34.1676 24.8868-34.9371Q23.7972-35.7066 23.7972-37.2897Q23.7972-38.6446 24.8082-39.5756Q25.8191-40.5066 27.3583-41.0999L77.2169-60.188Q78.8946-60.7898 79.9438-60.7898Q81.1091-60.7898 81.788-60.1271Q82.467-59.4644 82.467-58.2992Q82.467-57.25 81.8326-55.602L62.8124-5.90622Q62.1513-4.11224 61.204-3.1324Q60.2568-2.15261 58.9342-2.15261Z"/>
  </g>
  <g id="Thin-M" transform="matrix(1 0 0 1 799.828 1126)">
   <path d="M56.569 13.8943Q66.4789 13.8943 75.1158 10.1854Q83.7525 6.47649 90.3751-0.150131Q96.9976-6.77671 100.738-15.4136Q104.478-24.0504 104.478-33.9521Q104.478-43.8539 100.738-52.4906Q96.9976-61.1275 90.371-67.7541Q83.7443-74.3807 75.1076-78.0896Q66.4707-81.7984 56.5608-81.7984Q46.7132-81.7984 38.0493-78.0896Q29.3854-74.3807 22.794-67.7541Q16.2027-61.1275 12.4627-52.4906Q8.72266-43.8539 8.72266-33.9521Q8.72266-24.0504 12.4627-15.4136Q16.2027-6.77671 22.7981-0.150131Q29.3937 6.47649 38.0575 10.1854Q46.7214 13.8943 56.569 13.8943ZM57.9609-2.03094Q56.7618-2.03094 56.1289-2.90434Q55.4958-3.77777 54.9727-5.43409L49.1218-24.4325Q48.9102-25.2413 49.0578-25.9014Q49.2053-26.5614 49.7073-27.0634L79.2539-57.7584Q79.7065-58.4438 79.3079-58.6177Q78.9635-58.8376 78.565-58.5097L47.8405-28.9842Q47.2763-28.4823 46.6121-28.3429Q45.948-28.2036 45.2098-28.4234L26.0749-34.2284Q24.4433-34.7516 23.6093-35.4116Q22.7752-36.0716 22.7752-37.2167Q22.7752-38.304 23.5428-39.0281Q24.3104-39.7522 25.6305-40.3212L77.3872-60.0907Q78.6026-60.5221 79.2868-60.5221Q80.2331-60.5221 80.7538-60.0055Q81.2746-59.4887 81.2746-58.5426Q81.2746-57.8584 80.8349-56.697L61.0361-4.98151Q60.4965-3.50388 59.7683-2.76739Q59.0401-2.03094 57.9609-2.03094Z"/>
  </g>
  <g id="Ultralight-M" transform="matrix(1 0 0 1 503.679 1126)">
   <path d="M56.0082 13.3334Q65.8184 13.3334 74.3493 9.67435Q82.8801 6.01533 89.4278-0.530279Q95.9756-7.07582 99.6658-15.6067Q103.356-24.1377 103.356-33.9521Q103.356-43.7666 99.6658-52.2974Q95.9756-60.8283 89.4299-67.374Q82.8843-73.9195 74.3535-77.5786Q65.8226-81.2375 56.0124-81.2375Q46.2645-81.2375 37.7003-77.5786Q29.1362-73.9195 22.6195-67.374Q16.103-60.8283 12.4128-52.2974Q8.72266-43.7666 8.72266-33.9521Q8.72266-24.1377 12.4128-15.6067Q16.103-7.07582 22.6174-0.530279Q29.1319 6.01533 37.6961 9.67435Q46.2603 13.3334 56.0082 13.3334ZM57.4623-1.96862Q56.4751-1.96862 55.9045-2.69869Q55.3338-3.42878 54.8481-4.93554L48.6108-25.1679Q48.4366-25.7897 48.5966-26.3937Q48.7567-26.9977 49.1589-27.3999L78.9672-58.0326Q79.3949-58.7181 79.0337-58.8172Q78.7392-58.9871 78.378-58.6841L47.666-28.9593Q47.2015-28.5571 46.5996-28.3928Q45.9979-28.2285 45.4341-28.3985L25.1775-34.5649Q23.658-35.0507 22.9549-35.6546Q22.2517-36.2586 22.2517-37.1793Q22.2517-38.1295 22.8946-38.7476Q23.5376-39.3658 24.7456-39.9224L77.4744-60.0408Q78.453-60.385 78.9502-60.385Q79.7844-60.385 80.2241-59.9432Q80.6638-59.5012 80.6638-58.6672Q80.6638-58.17 80.3239-57.2579L60.1262-4.50787Q59.649-3.19229 59.0329-2.58043Q58.4169-1.96862 57.4623-1.96862Z"/>
  </g>
  <g id="Black-S" transform="matrix(1 0 0 1 2884.57 696)">
   <path d="M48.8281 7.8125Q57.5195 7.8125 65.1123 4.54102Q72.7051 1.26953 78.4912-4.5166Q84.2773-10.3027 87.5488-17.8955Q90.8203-25.4883 90.8203-34.1797Q90.8203-42.8711 87.5488-50.4639Q84.2773-58.0566 78.4912-63.8428Q72.7051-69.6289 65.1123-72.9004Q57.5195-76.1719 48.8281-76.1719Q40.1367-76.1719 32.5439-72.9004Q24.9512-69.6289 19.165-63.8428Q13.3789-58.0566 10.1074-50.4639Q6.83594-42.8711 6.83594-34.1797Q6.83594-25.4883 10.1074-17.8955Q13.3789-10.3027 19.165-4.5166Q24.9512 1.26953 32.5439 4.54102Q40.1367 7.8125 48.8281 7.8125ZM50.4395-9.76562Q48.7793-9.76562 47.8271-10.8154Q46.875-11.8652 46.3379-13.5254L43.6523-21.9238Q43.2129-23.2422 43.4082-24.5117Q43.6035-25.7812 44.5312-26.8066L66.0645-50.7812Q66.5527-51.3672 66.0645-51.9043Q65.5273-52.3438 64.9414-51.9043L40.8691-30.3711Q39.6484-29.2969 38.5498-29.1992Q37.4512-29.1016 35.9863-29.5898L27.6855-32.2266Q26.0254-32.7637 24.9756-33.6914Q23.9258-34.6191 23.9258-36.2793Q23.9258-37.8418 24.8047-38.8428Q25.6836-39.8438 27.1484-40.3809L63.4277-54.248Q64.3555-54.6387 65.4785-54.6387Q66.9922-54.6387 67.8955-53.7354Q68.7988-52.832 68.7988-51.3184Q68.7988-50.1953 68.4082-49.2676L54.541-12.9883Q54.0039-11.5234 53.0029-10.6445Q52.002-9.76562 50.4395-9.76562Z"/>
  </g>
  <g id="Heavy-S" transform="matrix(1 0 0 1 2588.46 696)">
   <path d="M48.2173 7.19018Q56.7704 7.19018 64.2537 3.9648Q71.737 0.739405 77.4425-4.97182Q83.1479-10.683 86.3791-18.1663Q89.6102-25.6496 89.6102-34.1912Q89.6102-42.7328 86.3791-50.2161Q83.1479-57.6994 77.4367-63.4106Q71.7255-69.1218 64.2422-72.3472Q56.7589-75.5726 48.2058-75.5726Q39.6642-75.5726 32.1809-72.3472Q24.6977-69.1218 18.9979-63.4106Q13.2982-57.6994 10.0671-50.2161Q6.83594-42.7328 6.83594-34.1912Q6.83594-25.6496 10.0671-18.1663Q13.2982-10.683 19.0037-4.97182Q24.7092 0.739405 32.1924 3.9648Q39.6757 7.19018 48.2173 7.19018ZM49.6558-9.68495Q47.9956-9.68495 47.1011-10.7635Q46.2066-11.8422 45.6695-13.5369L42.8456-22.477Q42.4408-23.7838 42.6072-24.9208Q42.7737-26.0578 43.6553-27.014L65.3615-51.0578Q65.8382-51.6323 65.3615-52.1348Q64.8474-52.5512 64.296-52.1348L40.2122-30.3826Q39.0952-29.3891 38.0831-29.3087Q37.0709-29.2284 35.6752-29.682L26.6944-32.4801Q25.0343-33.0172 23.973-33.8931Q22.9116-34.7689 22.9116-36.4291Q22.9116-37.934 23.8251-38.9177Q24.7386-39.9014 26.1919-40.427L62.7017-54.3978Q63.8254-54.8461 64.9599-54.8461Q66.3814-54.8461 67.2328-54.0005Q68.0843-53.1547 68.0843-51.7333Q68.0843-50.5987 67.6245-49.475L53.6882-13.0229Q53.128-11.5004 52.1386-10.5926Q51.1492-9.68495 49.6558-9.68495Z"/>
  </g>
  <g id="Bold-S" transform="matrix(1 0 0 1 2292.43 696)">
   <path d="M47.5342 6.49414Q55.9326 6.49414 63.2935 3.32031Q70.6543 0.146484 76.2695-5.48095Q81.8848-11.1084 85.0708-18.4692Q88.2568-25.8301 88.2568-34.2041Q88.2568-42.5781 85.0708-49.939Q81.8848-57.2998 76.2573-62.9273Q70.6299-68.5547 63.2691-71.7285Q55.9082-74.9024 47.5098-74.9024Q39.1358-74.9024 31.7749-71.7285Q24.4141-68.5547 18.811-62.9273Q13.208-57.2998 10.022-49.939Q6.83594-42.5781 6.83594-34.2041Q6.83594-25.8301 10.022-18.4692Q13.208-11.1084 18.8232-5.48095Q24.4385 0.146484 31.7993 3.32031Q39.1602 6.49414 47.5342 6.49414ZM48.7793-9.59472Q47.1192-9.59472 46.289-10.7055Q45.459-11.8164 44.9219-13.5498L41.9434-23.0957Q41.5771-24.3897 41.7114-25.3784Q41.8457-26.3671 42.6757-27.2461L64.5752-51.3671Q65.0391-51.9287 64.5752-52.3926Q64.0869-52.7833 63.5742-52.3926L39.4775-30.3955Q38.4765-29.4922 37.561-29.4312Q36.6455-29.3701 35.3271-29.7851L25.5859-32.7637Q23.9258-33.3008 22.8516-34.1187Q21.7773-34.9365 21.7773-36.5967Q21.7773-38.0371 22.7295-39.0015Q23.6816-39.9658 25.1221-40.4785L61.8897-54.5654Q63.2325-55.0781 64.3799-55.0781Q65.6983-55.0781 66.4917-54.2969Q67.2852-53.5156 67.2852-52.1973Q67.2852-51.0498 66.748-49.7071L52.7344-13.0616Q52.1485-11.4746 51.1718-10.5346Q50.1953-9.59472 48.7793-9.59472Z"/>
  </g>
  <g id="Semibold-S" transform="matrix(1 0 0 1 1996.19 696)">
   <path d="M47.0632 6.01426Q55.355 6.01426 62.6314 2.87598Q69.9078-0.262305 75.4609-5.83198Q81.0139-11.4017 84.1688-18.6781Q87.3238-25.9545 87.3238-34.213Q87.3238-42.4715 84.1688-49.7479Q81.0139-57.0243 75.4442-62.594Q69.8745-68.1637 62.5981-71.3019Q55.3217-74.4402 47.0299-74.4402Q38.7714-74.4402 31.495-71.3019Q24.2186-68.1637 18.6821-62.594Q13.1458-57.0243 9.99086-49.7479Q6.83594-42.4715 6.83594-34.213Q6.83594-25.9545 9.99086-18.6781Q13.1458-11.4017 18.6988-5.83198Q24.2519-0.262305 31.5283 2.87598Q38.8047 6.01426 47.0632 6.01426ZM48.175-9.53252Q46.5149-9.53252 45.7292-10.6656Q44.9436-11.7986 44.4065-13.5587L41.3213-23.5223Q40.9817-24.8073 41.0938-25.6939Q41.2059-26.5804 42.0004-27.406L64.0331-51.5804Q64.4881-52.1331 64.0331-52.5703Q63.5626-52.9432 63.0765-52.5703L38.971-30.4044Q38.05-29.5633 37.2011-29.5156Q36.3522-29.4679 35.0872-29.8563L24.8216-32.9592Q23.1615-33.4963 22.0784-34.2742Q20.9953-35.052 20.9953-36.7122Q20.9953-38.1082 21.9741-39.0593Q22.9529-40.0103 24.3845-40.5141L61.3298-54.6809Q62.8237-55.2381 63.9799-55.2381Q65.2273-55.2381 65.9807-54.5013Q66.7342-53.7644 66.7342-52.5172Q66.7342-51.3608 66.1438-49.867L52.0767-13.0882Q51.4731-11.4568 50.5053-10.4947Q49.5377-9.53252 48.175-9.53252Z"/>
  </g>
  <g id="Medium-S" transform="matrix(1 0 0 1 1699.83 696)">
   <path d="M46.706 5.65039Q54.917 5.65039 62.1294 2.53906Q69.3418-0.572265 74.8477-6.09814Q80.3535-11.624 83.4849-18.8364Q86.6162-26.0489 86.6162-34.2197Q86.6162-42.3907 83.4849-49.6031Q80.3535-56.8154 74.8276-62.3413Q69.3018-67.8672 62.0894-70.9785Q54.877-74.0898 46.666-74.0898Q38.4951-74.0898 31.2827-70.9785Q24.0704-67.8672 18.5844-62.3413Q13.0986-56.8154 9.96728-49.6031Q6.83594-42.3907 6.83594-34.2197Q6.83594-26.0489 9.96728-18.8364Q13.0986-11.624 18.6044-6.09814Q24.1104-0.572265 31.3228 2.53906Q38.5352 5.65039 46.706 5.65039ZM47.7168-9.48535Q46.0567-9.48535 45.3047-10.6352Q44.5528-11.7852 44.0157-13.5654L40.8496-23.8457Q40.5303-25.124 40.6254-25.9331Q40.7207-26.7422 41.4883-27.5273L63.622-51.7422Q64.0703-52.2881 63.622-52.7051Q63.165-53.0645 62.6992-52.7051L38.5869-30.4111Q37.7266-29.6172 36.9282-29.5796Q36.1299-29.542 34.9053-29.9102L24.2422-33.1074Q22.5821-33.6445 21.4922-34.3921Q20.4023-35.1396 20.4023-36.7998Q20.4023-38.1621 21.4014-39.1031Q22.4004-40.044 23.8252-40.541L60.9053-54.7685Q62.5137-55.3594 63.6767-55.3594Q64.8701-55.3594 65.5933-54.6563Q66.3164-53.9531 66.3164-52.7598Q66.3164-51.5967 65.6856-49.9883L51.5781-13.1084Q50.961-11.4434 50-10.4643Q49.0391-9.48535 47.7168-9.48535Z"/>
  </g>
  <g id="Regular-S" transform="matrix(1 0 0 1 1403.58 696)">
   <path d="M46.2402 5.17578Q54.3457 5.17578 61.4746 2.09961Q68.6035-0.976562 74.0479-6.44531Q79.4922-11.9141 82.5928-19.043Q85.6934-26.1719 85.6934-34.2285Q85.6934-42.2852 82.5928-49.4141Q79.4922-56.543 74.0234-62.0117Q68.5547-67.4805 61.4258-70.5566Q54.2969-73.6328 46.1914-73.6328Q38.1348-73.6328 31.0059-70.5566Q23.877-67.4805 18.457-62.0117Q13.0371-56.543 9.93652-49.4141Q6.83594-42.2852 6.83594-34.2285Q6.83594-26.1719 9.93652-19.043Q13.0371-11.9141 18.4814-6.44531Q23.9258-0.976562 31.0547 2.09961Q38.1836 5.17578 46.2402 5.17578ZM47.1191-9.42383Q45.459-9.42383 44.751-10.5957Q44.043-11.7676 43.5059-13.5742L40.2344-24.2676Q39.9414-25.5371 40.0146-26.2451Q40.0879-26.9531 40.8203-27.6855L63.0859-51.9531Q63.5254-52.4902 63.0859-52.8809Q62.6465-53.2227 62.207-52.8809L38.0859-30.4199Q37.3047-29.6875 36.5723-29.6631Q35.8398-29.6387 34.668-29.9805L23.4863-33.3008Q21.8262-33.8379 20.7275-34.5459Q19.6289-35.2539 19.6289-36.9141Q19.6289-38.2324 20.6543-39.1602Q21.6797-40.0879 23.0957-40.5762L60.3516-54.8828Q62.1094-55.5176 63.2812-55.5176Q64.4043-55.5176 65.0879-54.8584Q65.7715-54.1992 65.7715-53.0762Q65.7715-51.9043 65.0879-50.1465L50.9277-13.1348Q50.293-11.4258 49.3408-10.4248Q48.3887-9.42383 47.1191-9.42383Z"/>
  </g>
  <g id="Light-S" transform="matrix(1 0 0 1 1107.6 696)">
   <path d="M45.5078 4.44336Q53.4831 4.44336 60.4736 1.43229Q67.4642-1.57877 72.8109-6.94173Q78.1576-12.3047 81.1931-19.2953Q84.2285-26.2858 84.2285-34.2285Q84.2285-42.1713 81.1931-49.1618Q78.1576-56.1524 72.7946-61.5153Q67.4316-66.8783 60.4411-69.8893Q53.4505-72.9004 45.4753-72.9004Q37.5489-72.9004 30.5502-69.8893Q23.5515-66.8783 18.2291-61.5153Q12.9069-56.1524 9.87142-49.1618Q6.83594-42.1713 6.83594-34.2285Q6.83594-26.2858 9.87142-19.2953Q12.9069-12.3047 18.2454-6.94173Q23.584-1.57877 30.5827 1.43229Q37.5814 4.44336 45.5078 4.44336ZM46.4681-9.34245Q45.0846-9.34245 44.458-10.3271Q43.8314-11.3119 43.3431-12.9232L39.5671-25.2279Q39.3229-26.2532 39.4124-26.888Q39.502-27.5228 40.1042-28.125L62.7116-52.3112Q63.1185-52.8483 62.7278-53.1413Q62.3535-53.418 61.9629-53.1088L37.858-30.3874Q37.207-29.7852 36.556-29.7282Q35.9049-29.6712 34.961-29.9479L22.3144-33.7402Q20.8008-34.2285 19.873-34.8633Q18.9453-35.498 18.9453-36.8653Q18.9453-38.0045 19.8079-38.794Q20.6706-39.5833 21.9401-40.0554L60.4655-54.8177Q61.9141-55.3386 62.8418-55.3386Q63.8184-55.3386 64.3962-54.777Q64.974-54.2155 64.974-53.239Q64.974-52.3112 64.4206-50.8789L49.7396-12.5163Q49.1862-11.0189 48.3805-10.1807Q47.5749-9.34245 46.4681-9.34245Z"/>
  </g>
  <g id="Thin-S" transform="matrix(1 0 0 1 811.863 696)">
   <path d="M44.5391 3.47468Q52.3422 3.47468 59.1498 0.54971Q65.9573-2.37525 71.1749-7.59829Q76.3924-12.8213 79.3418-19.6289Q82.2911-26.4365 82.2911-34.2285Q82.2911-42.0206 79.3418-48.8281Q76.3924-55.6357 71.1693-60.8588Q65.9463-66.0818 59.1388-69.0067Q52.3311-71.9317 44.5281-71.9317Q36.7739-71.9317 29.9474-69.0067Q23.1209-66.0818 17.9278-60.8588Q12.7347-55.6357 9.78531-48.8281Q6.83594-42.0206 6.83594-34.2285Q6.83594-26.4365 9.78531-19.6289Q12.7347-12.8213 17.9333-7.59829Q23.1319-2.37525 29.9584 0.54971Q36.7849 3.47468 44.5391 3.47468ZM45.607-9.23482Q44.5895-9.23482 44.0706-9.97196Q43.5515-10.7091 43.1279-12.0621L38.6845-26.4979Q38.5049-27.2004 38.6159-27.7383Q38.727-28.2762 39.157-28.7062L62.2165-52.7847Q62.5803-53.3219 62.2543-53.4857Q61.9661-53.6763 61.64-53.4101L37.5567-30.3443Q37.0779-29.9143 36.5344-29.8143Q35.9911-29.7143 35.3484-29.9049L20.7645-34.3214Q19.4446-34.7452 18.7429-35.283Q18.0412-35.8209 18.0412-36.8007Q18.0412-37.7032 18.6885-38.3096Q19.3359-38.916 20.4117-39.3665L60.6162-54.7316Q61.6557-55.1018 62.2606-55.1018Q63.0434-55.1018 63.4813-54.6694Q63.9192-54.237 63.9192-53.4542Q63.9192-52.8494 63.538-51.8476L48.1682-11.6983Q47.7224-10.4807 47.1105-9.85777Q46.4986-9.23482 45.607-9.23482Z"/>
  </g>
  <g id="Ultralight-S" transform="matrix(1 0 0 1 515.649 696)">
   <path d="M44.043 2.97852Q51.7578 2.97852 58.4717 0.0976562Q65.1855-2.7832 70.3369-7.93457Q75.4883-13.0859 78.3936-19.7998Q81.2988-26.5137 81.2988-34.2285Q81.2988-41.9434 78.3936-48.6572Q75.4883-55.3711 70.3369-60.5225Q65.1855-65.6738 58.4717-68.5547Q51.7578-71.4355 44.043-71.4355Q36.377-71.4355 29.6387-68.5547Q22.9004-65.6738 17.7734-60.5225Q12.6465-55.3711 9.74121-48.6572Q6.83594-41.9434 6.83594-34.2285Q6.83594-26.5137 9.74121-19.7998Q12.6465-13.0859 17.7734-7.93457Q22.9004-2.7832 29.6387 0.0976562Q36.377 2.97852 44.043 2.97852ZM45.166-9.17969Q44.3359-9.17969 43.8721-9.79004Q43.4082-10.4004 43.0176-11.6211L38.2324-27.1484Q38.0859-27.6855 38.208-28.1738Q38.3301-28.6621 38.6719-29.0039L61.9629-53.0273Q62.3047-53.5645 62.0117-53.6621Q61.7676-53.8086 61.4746-53.5645L37.4023-30.3223Q37.0117-29.9805 36.5234-29.8584Q36.0352-29.7363 35.5469-29.8828L19.9707-34.6191Q18.75-35.0098 18.1641-35.498Q17.5781-35.9863 17.5781-36.7676Q17.5781-37.5488 18.1152-38.0615Q18.6523-38.5742 19.6289-39.0137L60.6934-54.6875Q61.5234-54.9805 61.9629-54.9805Q62.6465-54.9805 63.0127-54.6143Q63.3789-54.248 63.3789-53.5645Q63.3789-53.125 63.0859-52.3438L47.3633-11.2793Q46.9727-10.2051 46.46-9.69238Q45.9473-9.17969 45.166-9.17969Z"/>
  </g>
 </g>
</svg>
