<?xml version="1.0" encoding="UTF-8"?>
<!--Generator: Apple Native CoreSVG 175-->
<!DOCTYPE svg
PUBLIC "-//W3C//DTD SVG 1.1//EN"
       "http://www.w3.org/Graphics/SVG/1.1/DTD/svg11.dtd">
<svg version="1.1" xmlns="http://www.w3.org/2000/svg" xmlns:xlink="http://www.w3.org/1999/xlink" width="3300" height="2200">
 <!--glyph: "", point size: 100.0, font version: "17.0d12e1", template writer version: "65.1"-->
 <g id="Notes">
  <rect height="2200" id="artboard" style="fill:white;opacity:1" width="3300" x="0" y="0"/>
  <line style="fill:none;stroke:black;opacity:1;stroke-width:0.5;" x1="263" x2="3036" y1="292" y2="292"/>
  <text style="stroke:none;fill:black;font-family:sans-serif;font-size:13;font-weight:bold;" transform="matrix(1 0 0 1 263 322)">Weight/Scale Variations</text>
  <text style="stroke:none;fill:black;font-family:sans-serif;font-size:13;text-anchor:middle;" transform="matrix(1 0 0 1 559.711 322)">Ultralight</text>
  <text style="stroke:none;fill:black;font-family:sans-serif;font-size:13;text-anchor:middle;" transform="matrix(1 0 0 1 856.422 322)">Thin</text>
  <text style="stroke:none;fill:black;font-family:sans-serif;font-size:13;text-anchor:middle;" transform="matrix(1 0 0 1 1153.13 322)">Light</text>
  <text style="stroke:none;fill:black;font-family:sans-serif;font-size:13;text-anchor:middle;" transform="matrix(1 0 0 1 1449.84 322)">Regular</text>
  <text style="stroke:none;fill:black;font-family:sans-serif;font-size:13;text-anchor:middle;" transform="matrix(1 0 0 1 1746.56 322)">Medium</text>
  <text style="stroke:none;fill:black;font-family:sans-serif;font-size:13;text-anchor:middle;" transform="matrix(1 0 0 1 2043.27 322)">Semibold</text>
  <text style="stroke:none;fill:black;font-family:sans-serif;font-size:13;text-anchor:middle;" transform="matrix(1 0 0 1 2339.98 322)">Bold</text>
  <text style="stroke:none;fill:black;font-family:sans-serif;font-size:13;text-anchor:middle;" transform="matrix(1 0 0 1 2636.69 322)">Heavy</text>
  <text style="stroke:none;fill:black;font-family:sans-serif;font-size:13;text-anchor:middle;" transform="matrix(1 0 0 1 2933.4 322)">Black</text>
  <line style="fill:none;stroke:black;opacity:1;stroke-width:0.5;" x1="263" x2="3036" y1="1903" y2="1903"/>
  <g transform="matrix(1 0 0 1 263 1933)">
   <path d="M9.24805 0.830078Q10.8691 0.830078 12.2949 0.214844Q13.7207-0.400391 14.8096-1.49414Q15.8984-2.58789 16.5186-4.01367Q17.1387-5.43945 17.1387-7.05078Q17.1387-8.66211 16.5186-10.0879Q15.8984-11.5137 14.8047-12.6074Q13.7109-13.7012 12.2852-14.3164Q10.8594-14.9316 9.23828-14.9316Q7.62695-14.9316 6.20117-14.3164Q4.77539-13.7012 3.69141-12.6074Q2.60742-11.5137 1.9873-10.0879Q1.36719-8.66211 1.36719-7.05078Q1.36719-5.43945 1.9873-4.01367Q2.60742-2.58789 3.69629-1.49414Q4.78516-0.400391 6.21094 0.214844Q7.63672 0.830078 9.24805 0.830078ZM9.24805-0.654297Q7.91992-0.654297 6.7627-1.14746Q5.60547-1.64062 4.73145-2.51953Q3.85742-3.39844 3.36426-4.56055Q2.87109-5.72266 2.87109-7.05078Q2.87109-8.37891 3.35938-9.54102Q3.84766-10.7031 4.72168-11.582Q5.5957-12.4609 6.75293-12.9541Q7.91016-13.4473 9.23828-13.4473Q10.5762-13.4473 11.7334-12.9541Q12.8906-12.4609 13.7695-11.582Q14.6484-10.7031 15.1465-9.54102Q15.6445-8.37891 15.6445-7.05078Q15.6445-5.72266 15.1514-4.56055Q14.6582-3.39844 13.7842-2.51953Q12.9102-1.64062 11.748-1.14746Q10.5859-0.654297 9.24805-0.654297ZM5.6543-7.05078Q5.6543-6.72852 5.85938-6.52832Q6.06445-6.32812 6.40625-6.32812L8.51562-6.32812L8.51562-4.20898Q8.51562-3.88672 8.71094-3.67676Q8.90625-3.4668 9.23828-3.4668Q9.56055-3.4668 9.77051-3.67676Q9.98047-3.88672 9.98047-4.20898L9.98047-6.32812L12.0898-6.32812Q12.4219-6.32812 12.627-6.52832Q12.832-6.72852 12.832-7.05078Q12.832-7.38281 12.627-7.58789Q12.4219-7.79297 12.0898-7.79297L9.98047-7.79297L9.98047-9.90234Q9.98047-10.2344 9.77051-10.4443Q9.56055-10.6543 9.23828-10.6543Q8.90625-10.6543 8.71094-10.4443Q8.51562-10.2344 8.51562-9.90234L8.51562-7.79297L6.40625-7.79297Q6.06445-7.79297 5.85938-7.58789Q5.6543-7.38281 5.6543-7.05078Z"/>
  </g>
  <g transform="matrix(1 0 0 1 281.867 1933)">
   <path d="M11.709 2.91016Q13.75 2.91016 15.5518 2.12891Q17.3535 1.34766 18.7305-0.0292969Q20.1074-1.40625 20.8887-3.20801Q21.6699-5.00977 21.6699-7.05078Q21.6699-9.0918 20.8887-10.8936Q20.1074-12.6953 18.7305-14.0723Q17.3535-15.4492 15.5469-16.2305Q13.7402-17.0117 11.6992-17.0117Q9.6582-17.0117 7.85645-16.2305Q6.05469-15.4492 4.68262-14.0723Q3.31055-12.6953 2.5293-10.8936Q1.74805-9.0918 1.74805-7.05078Q1.74805-5.00977 2.5293-3.20801Q3.31055-1.40625 4.6875-0.0292969Q6.06445 1.34766 7.86621 2.12891Q9.66797 2.91016 11.709 2.91016ZM11.709 1.25Q9.98047 1.25 8.47656 0.605469Q6.97266-0.0390625 5.83496-1.17676Q4.69727-2.31445 4.05762-3.81836Q3.41797-5.32227 3.41797-7.05078Q3.41797-8.7793 4.05762-10.2832Q4.69727-11.7871 5.83008-12.9297Q6.96289-14.0723 8.4668-14.7119Q9.9707-15.3516 11.6992-15.3516Q13.4277-15.3516 14.9316-14.7119Q16.4355-14.0723 17.5781-12.9297Q18.7207-11.7871 19.3652-10.2832Q20.0098-8.7793 20.0098-7.05078Q20.0098-5.32227 19.3701-3.81836Q18.7305-2.31445 17.5928-1.17676Q16.4551-0.0390625 14.9463 0.605469Q13.4375 1.25 11.709 1.25ZM7.17773-7.05078Q7.17773-6.69922 7.41211-6.47461Q7.64648-6.25 8.01758-6.25L10.8887-6.25L10.8887-3.36914Q10.8887-2.99805 11.1133-2.76855Q11.3379-2.53906 11.6895-2.53906Q12.0605-2.53906 12.29-2.76855Q12.5195-2.99805 12.5195-3.36914L12.5195-6.25L15.4004-6.25Q15.7715-6.25 16.001-6.47461Q16.2305-6.69922 16.2305-7.05078Q16.2305-7.42188 16.001-7.65137Q15.7715-7.88086 15.4004-7.88086L12.5195-7.88086L12.5195-10.752Q12.5195-11.1328 12.29-11.3623Q12.0605-11.5918 11.6895-11.5918Q11.3379-11.5918 11.1133-11.3574Q10.8887-11.123 10.8887-10.752L10.8887-7.88086L8.01758-7.88086Q7.63672-7.88086 7.40723-7.65137Q7.17773-7.42188 7.17773-7.05078Z"/>
  </g>
  <g transform="matrix(1 0 0 1 305.646 1933)">
   <path d="M14.9707 5.66406Q17.0605 5.66406 18.96 5.01465Q20.8594 4.36523 22.4512 3.19336Q24.043 2.02148 25.2197 0.429688Q26.3965-1.16211 27.0459-3.06641Q27.6953-4.9707 27.6953-7.05078Q27.6953-9.14062 27.0459-11.04Q26.3965-12.9395 25.2197-14.5312Q24.043-16.123 22.4512-17.2998Q20.8594-18.4766 18.9551-19.126Q17.0508-19.7754 14.9609-19.7754Q12.8711-19.7754 10.9717-19.126Q9.07227-18.4766 7.48535-17.2998Q5.89844-16.123 4.72168-14.5312Q3.54492-12.9395 2.90039-11.04Q2.25586-9.14062 2.25586-7.05078Q2.25586-4.9707 2.90527-3.06641Q3.55469-1.16211 4.72656 0.429688Q5.89844 2.02148 7.49023 3.19336Q9.08203 4.36523 10.9814 5.01465Q12.8809 5.66406 14.9707 5.66406ZM14.9707 3.84766Q13.1641 3.84766 11.5283 3.2959Q9.89258 2.74414 8.53516 1.74805Q7.17773 0.751953 6.17676-0.610352Q5.17578-1.97266 4.62891-3.6084Q4.08203-5.24414 4.08203-7.05078Q4.08203-8.86719 4.62891-10.5029Q5.17578-12.1387 6.17188-13.501Q7.16797-14.8633 8.52539-15.8594Q9.88281-16.8555 11.5186-17.4023Q13.1543-17.9492 14.9609-17.9492Q16.7773-17.9492 18.4131-17.4023Q20.0488-16.8555 21.4111-15.8594Q22.7734-14.8633 23.7695-13.501Q24.7656-12.1387 25.3174-10.5029Q25.8691-8.86719 25.8691-7.05078Q25.8789-5.24414 25.332-3.6084Q24.7852-1.97266 23.7842-0.610352Q22.7832 0.751953 21.4209 1.74805Q20.0586 2.74414 18.4229 3.2959Q16.7871 3.84766 14.9707 3.84766ZM9.19922-7.05078Q9.19922-6.66992 9.45801-6.4209Q9.7168-6.17188 10.1172-6.17188L14.0625-6.17188L14.0625-2.2168Q14.0625-1.81641 14.3115-1.55762Q14.5605-1.29883 14.9512-1.29883Q15.3516-1.29883 15.6104-1.55273Q15.8691-1.80664 15.8691-2.2168L15.8691-6.17188L19.8242-6.17188Q20.2246-6.17188 20.4785-6.4209Q20.7324-6.66992 20.7324-7.05078Q20.7324-7.46094 20.4785-7.71484Q20.2246-7.96875 19.8242-7.96875L15.8691-7.96875L15.8691-11.9141Q15.8691-12.3242 15.6104-12.583Q15.3516-12.8418 14.9512-12.8418Q14.5605-12.8418 14.3115-12.583Q14.0625-12.3242 14.0625-11.9141L14.0625-7.96875L10.1172-7.96875Q9.70703-7.96875 9.45312-7.71484Q9.19922-7.46094 9.19922-7.05078Z"/>
  </g>
  <text style="stroke:none;fill:black;font-family:sans-serif;font-size:13;font-weight:bold;" transform="matrix(1 0 0 1 263 1953)">Design Variations</text>
  <text style="stroke:none;fill:black;font-family:sans-serif;font-size:13;" transform="matrix(1 0 0 1 263 1971)">Symbols are supported in up to nine weights and three scales.</text>
  <text style="stroke:none;fill:black;font-family:sans-serif;font-size:13;" transform="matrix(1 0 0 1 263 1989)">For optimal layout with text and other symbols, vertically align</text>
  <text style="stroke:none;fill:black;font-family:sans-serif;font-size:13;" transform="matrix(1 0 0 1 263 2007)">symbols with the adjacent text.</text>
  <line style="fill:none;stroke:#00AEEF;stroke-width:0.5;opacity:1.0;" x1="776" x2="776" y1="1919" y2="1933"/>
  <g transform="matrix(1 0 0 1 776 1933)">
   <path d="M3.31055 0.15625Q3.70117 0.15625 3.91602-0.00976562Q4.13086-0.175781 4.26758-0.585938L5.52734-4.0332L11.2891-4.0332L12.5488-0.585938Q12.6855-0.175781 12.9004-0.00976562Q13.1152 0.15625 13.4961 0.15625Q13.8867 0.15625 14.1162-0.0585938Q14.3457-0.273438 14.3457-0.644531Q14.3457-0.869141 14.2383-1.17188L9.6582-13.3691Q9.48242-13.8184 9.17969-14.043Q8.87695-14.2676 8.4082-14.2676Q7.5-14.2676 7.17773-13.3789L2.59766-1.16211Q2.49023-0.859375 2.49023-0.634766Q2.49023-0.263672 2.70996-0.0537109Q2.92969 0.15625 3.31055 0.15625ZM6.00586-5.51758L8.37891-12.0898L8.42773-12.0898L10.8008-5.51758Z"/>
  </g>
  <line style="fill:none;stroke:#00AEEF;stroke-width:0.5;opacity:1.0;" x1="793.197" x2="793.197" y1="1919" y2="1933"/>
  <text style="stroke:none;fill:black;font-family:sans-serif;font-size:13;font-weight:bold;" transform="matrix(1 0 0 1 776 1953)">Margins</text>
  <text style="stroke:none;fill:black;font-family:sans-serif;font-size:13;" transform="matrix(1 0 0 1 776 1971)">Leading and trailing margins on the left and right side of each symbol</text>
  <text style="stroke:none;fill:black;font-family:sans-serif;font-size:13;" transform="matrix(1 0 0 1 776 1989)">can be adjusted by modifying the x-location of the margin guidelines.</text>
  <text style="stroke:none;fill:black;font-family:sans-serif;font-size:13;" transform="matrix(1 0 0 1 776 2007)">Modifications are automatically applied proportionally to all</text>
  <text style="stroke:none;fill:black;font-family:sans-serif;font-size:13;" transform="matrix(1 0 0 1 776 2025)">scales and weights.</text>
  <g transform="matrix(1 0 0 1 1289 1933)">
   <path d="M2.8418 1.86523L4.54102 3.57422Q5.18555 4.22852 5.90332 4.17969Q6.62109 4.13086 7.31445 3.35938L18.0078-8.42773L17.041-9.4043L6.42578 2.27539Q6.16211 2.57812 5.89355 2.61719Q5.625 2.65625 5.27344 2.30469L4.10156 1.14258Q3.75 0.791016 3.79395 0.522461Q3.83789 0.253906 4.14062-0.0195312L15.6152-10.8203L14.6387-11.7871L3.04688-0.898438Q2.30469-0.214844 2.25098 0.498047Q2.19727 1.21094 2.8418 1.86523ZM9.25781-16.3281Q8.94531-16.0254 8.90625-15.6348Q8.86719-15.2441 9.04297-14.9512Q9.21875-14.6777 9.55566-14.541Q9.89258-14.4043 10.3809-14.5215Q11.4746-14.7754 12.5977-14.7314Q13.7207-14.6875 14.7949-13.9844L14.209-12.5293Q13.9551-11.9043 14.0674-11.4404Q14.1797-10.9766 14.5801-10.5664L16.875-8.25195Q17.2363-7.88086 17.5781-7.82227Q17.9199-7.76367 18.3398-7.8418L19.4043-8.03711L20.0684-7.36328L20.0293-6.80664Q20-6.43555 20.1221-6.12305Q20.2441-5.81055 20.6055-5.44922L21.3672-4.70703Q21.7285-4.3457 22.1533-4.33105Q22.5781-4.31641 22.9297-4.66797L25.8398-7.58789Q26.1914-7.93945 26.1816-8.35449Q26.1719-8.76953 25.8105-9.13086L25.0391-9.89258Q24.6875-10.2539 24.3799-10.3857Q24.0723-10.5176 23.7109-10.4883L23.1348-10.4395L22.4902-11.0742L22.7344-12.1973Q22.832-12.6172 22.6953-12.9834Q22.5586-13.3496 22.1191-13.7891L19.9219-15.9766Q18.6719-17.2168 17.2607-17.8369Q15.8496-18.457 14.4189-18.4814Q12.9883-18.5059 11.665-17.959Q10.3418-17.4121 9.25781-16.3281ZM10.752-15.957Q11.6602-16.6211 12.7002-16.9043Q13.7402-17.1875 14.8047-17.085Q15.8691-16.9824 16.8701-16.5137Q17.8711-16.0449 18.7012-15.2051L21.1328-12.793Q21.3086-12.6172 21.3525-12.4512Q21.3965-12.2852 21.3379-12.0312L21.0156-10.5469L22.5195-9.0625L23.5059-9.12109Q23.6914-9.13086 23.7891-9.09668Q23.8867-9.0625 24.0332-8.91602L24.6094-8.33984L22.168-5.89844L21.5918-6.47461Q21.4453-6.62109 21.4062-6.71875Q21.3672-6.81641 21.377-7.01172L21.4453-7.98828L19.9512-9.47266L18.4277-9.21875Q18.1836-9.16992 18.042-9.2041Q17.9004-9.23828 17.7148-9.41406L15.7129-11.416Q15.5176-11.5918 15.4932-11.7529Q15.4688-11.9141 15.5859-12.1875L16.4648-14.2773Q15.293-15.3711 13.8281-15.791Q12.3633-16.2109 10.8398-15.7617Q10.7227-15.7324 10.6885-15.8057Q10.6543-15.8789 10.752-15.957Z"/>
  </g>
  <text style="stroke:none;fill:black;font-family:sans-serif;font-size:13;font-weight:bold;" transform="matrix(1 0 0 1 1289 1953)">Exporting</text>
  <text style="stroke:none;fill:black;font-family:sans-serif;font-size:13;" transform="matrix(1 0 0 1 1289 1971)">Symbols should be outlined when exporting to ensure the</text>
  <text style="stroke:none;fill:black;font-family:sans-serif;font-size:13;" transform="matrix(1 0 0 1 1289 1989)">design is preserved when submitting to Xcode.</text>
  <text id="template-version" style="stroke:none;fill:black;font-family:sans-serif;font-size:13;text-anchor:end;" transform="matrix(1 0 0 1 3036 1933)">Template v.3.0</text>
  <text style="stroke:none;fill:black;font-family:sans-serif;font-size:13;text-anchor:end;" transform="matrix(1 0 0 1 3036 1951)">Requires Xcode 13 or greater</text>
  <text id="descriptive-name" style="stroke:none;fill:black;font-family:sans-serif;font-size:13;text-anchor:end;" transform="matrix(1 0 0 1 3036 1969)">Generated from connection</text>
  <text style="stroke:none;fill:black;font-family:sans-serif;font-size:13;text-anchor:end;" transform="matrix(1 0 0 1 3036 1987)">Typeset at 100 points</text>
  <text style="stroke:none;fill:black;font-family:sans-serif;font-size:13;" transform="matrix(1 0 0 1 263 726)">Small</text>
  <text style="stroke:none;fill:black;font-family:sans-serif;font-size:13;" transform="matrix(1 0 0 1 263 1156)">Medium</text>
  <text style="stroke:none;fill:black;font-family:sans-serif;font-size:13;" transform="matrix(1 0 0 1 263 1586)">Large</text>
 </g>
 <g id="Guides">
  <g id="H-reference" style="fill:#27AAE1;stroke:none;" transform="matrix(1 0 0 1 339 696)">
   <path d="M0.993347 0L3.6377 0L29.3282-67.1326L30.0301-67.1326L30.0301-70.459L28.1227-70.459ZM11.6882-24.4797L46.9818-24.4797L46.2311-26.7288L12.4382-26.7288ZM55.1193 0L57.7637 0L30.6381-70.459L29.4327-70.459L29.4327-67.1326Z"/>
  </g>
  <line id="Baseline-S" style="fill:none;stroke:#27AAE1;opacity:1;stroke-width:0.5;" x1="263" x2="3036" y1="696" y2="696"/>
  <line id="Capline-S" style="fill:none;stroke:#27AAE1;opacity:1;stroke-width:0.5;" x1="263" x2="3036" y1="625.541" y2="625.541"/>
  <g id="H-reference" style="fill:#27AAE1;stroke:none;" transform="matrix(1 0 0 1 339 1126)">
   <path d="M0.993347 0L3.6377 0L29.3282-67.1326L30.0301-67.1326L30.0301-70.459L28.1227-70.459ZM11.6882-24.4797L46.9818-24.4797L46.2311-26.7288L12.4382-26.7288ZM55.1193 0L57.7637 0L30.6381-70.459L29.4327-70.459L29.4327-67.1326Z"/>
  </g>
  <line id="Baseline-M" style="fill:none;stroke:#27AAE1;opacity:1;stroke-width:0.5;" x1="263" x2="3036" y1="1126" y2="1126"/>
  <line id="Capline-M" style="fill:none;stroke:#27AAE1;opacity:1;stroke-width:0.5;" x1="263" x2="3036" y1="1055.54" y2="1055.54"/>
  <g id="H-reference" style="fill:#27AAE1;stroke:none;" transform="matrix(1 0 0 1 339 1556)">
   <path d="M0.993347 0L3.6377 0L29.3282-67.1326L30.0301-67.1326L30.0301-70.459L28.1227-70.459ZM11.6882-24.4797L46.9818-24.4797L46.2311-26.7288L12.4382-26.7288ZM55.1193 0L57.7637 0L30.6381-70.459L29.4327-70.459L29.4327-67.1326Z"/>
  </g>
  <line id="Baseline-L" style="fill:none;stroke:#27AAE1;opacity:1;stroke-width:0.5;" x1="263" x2="3036" y1="1556" y2="1556"/>
  <line id="Capline-L" style="fill:none;stroke:#27AAE1;opacity:1;stroke-width:0.5;" x1="263" x2="3036" y1="1485.54" y2="1485.54"/>
  <line id="left-margin-Regular-M" style="fill:none;stroke:#00AEEF;stroke-width:0.5;opacity:1.0;" x1="1370.85" x2="1370.85" y1="1030.78" y2="1150.12"/>
  <line id="right-margin-Regular-M" style="fill:none;stroke:#FF3B30;stroke-width:0.5;opacity:1.0;" x1="1528.84" x2="1528.84" y1="1030.78" y2="1150.12"/>
 </g>
 <g id="Symbols">
  <g id="Black-L" transform="matrix(1 0 0 1 2829.97 1556)">
   <path d="M98.5975 23.3015L175.022 23.3015Q183.943 23.3015 187.362 20.3986Q190.78 17.4957 190.78 12.4986Q190.78 6.50472 186.965-0.102702Q183.152-6.71018 176.061-12.4733Q168.971-18.2363 159.006-21.8176Q149.042-25.3989 136.799-25.3989Q124.557-25.3989 114.602-21.8176Q104.647-18.2363 97.5578-12.4733Q90.4682-6.71018 86.6534-0.102702Q82.8384 6.50472 82.8384 12.4986Q82.8384 17.4957 86.2462 20.3986Q89.6541 23.3015 98.5975 23.3015ZM136.802-36.2501Q144.085-36.2501 150.017-40.0645Q155.949-43.8787 159.453-50.3457Q162.957-56.8128 162.957-64.7499Q162.957-72.3866 159.423-78.7415Q155.89-85.0962 149.957-88.9181Q144.024-92.74 136.802-92.74Q129.599-92.74 123.637-88.8978Q117.675-85.0557 114.17-78.69Q110.665-72.3242 110.666-64.7083Q110.724-56.792 114.2-50.3353Q117.675-43.8787 123.607-40.0645Q129.539-36.2501 136.802-36.2501ZM29.5821 23.3599L74.5856 23.3599Q71.8774 19.5536 71.4941 14.3654Q71.1107 9.17725 72.9443 3.40845Q74.7779-2.36047 78.7795-8.10649Q82.7811-13.8526 88.8244-18.8125Q83.8891-21.6616 77.2686-23.5827Q70.6479-25.5038 63.0339-25.5038Q52.8078-25.5038 44.2168-22.1727Q35.6259-18.8416 29.3334-13.4555Q23.0408-8.06921 19.5625-1.75262Q16.084 4.56405 16.084 10.5559Q16.084 16.5108 19.0221 19.9353Q21.9603 23.3599 29.5821 23.3599ZM63.0363-34.8621Q69.3767-34.8621 74.5453-38.1939Q79.7141-41.5257 82.7768-47.1593Q85.8396-52.793 85.8396-59.6859Q85.8396-66.3576 82.747-71.8983Q79.6544-77.439 74.4851-80.7602Q69.3159-84.0813 63.0363-84.0813Q56.7765-84.0813 51.5969-80.7498Q46.4171-77.4182 43.3544-71.8573Q40.2916-66.2963 40.2928-59.6442Q40.3512-52.7722 43.3842-47.1489Q46.4171-41.5257 51.5669-38.1939Q56.7169-34.8621 63.0363-34.8621ZM186.878-33.2668Q190.207-31.2547 193.806-31.915Q197.406-32.575 199.422-35.4598Q203.8-41.5675 206.215-49.165Q208.628-56.7622 208.628-65.0194Q208.628-73.2984 206.215-80.9146Q203.8-88.5308 199.422-94.6373Q197.406-97.4648 193.806-98.1249Q190.207-98.785 186.878-96.7522Q183.31-94.6193 182.64-90.5976Q181.972-86.576 184.927-81.5082Q187.111-78.0007 188.263-73.7869Q189.414-69.5733 189.414-65.0194Q189.414-60.5458 188.252-56.3023Q187.091-52.0588 184.927-48.5524Q181.993-43.5211 182.651-39.4812Q183.31-35.4414 186.878-33.2668ZM218.297-15.0665Q221.725-13.1298 225.411-13.9171Q229.098-14.7045 231.231-18.0565Q237.73-28.0679 241.238-40.0787Q244.745-52.0896 244.745-65.0194Q244.745-77.9712 241.238-89.9923Q237.73-102.014 231.231-112.003Q229.098-115.335 225.411-116.123Q221.725-116.91 218.297-114.994Q214.38-112.824 213.867-108.629Q213.355-104.435 215.92-100.243Q220.572-92.72 223.082-83.7002Q225.591-74.6804 225.591-65.0194Q225.591-55.3594 223.061-46.35Q220.531-37.3406 215.92-29.8172Q213.355-25.6244 213.867-21.4599Q214.38-17.2954 218.297-15.0665Z"/>
  </g>
  <g id="Heavy-L" transform="matrix(1 0 0 1 2533.62 1556)">
   <path d="M97.7172 23.011L174.923 23.011Q183.421 23.011 186.734 20.3088Q190.045 17.6067 190.045 12.8114Q190.045 6.79438 186.264 0.159136Q182.485-6.47616 175.44-12.2671Q168.395-18.058 158.472-21.6624Q148.548-25.2669 136.305-25.2669Q124.062-25.2669 114.151-21.6624Q104.239-18.058 97.1977-12.2671Q90.1562-6.47616 86.3733 0.159136Q82.5903 6.79438 82.5903 12.8114Q82.5903 17.6067 85.8869 20.3088Q89.1837 23.011 97.7172 23.011ZM136.316-36.2189Q143.485-36.2189 149.367-39.9991Q155.249-43.7792 158.74-50.2076Q162.231-56.636 162.231-64.5506Q162.231-72.2027 158.715-78.5026Q155.199-84.8025 149.314-88.5574Q143.429-92.3124 136.316-92.3124Q129.229-92.3124 123.321-88.53Q117.414-84.7477 113.918-78.43Q110.421-72.1121 110.427-64.4902Q110.471-56.6059 113.943-50.1926Q117.414-43.7792 123.296-39.9991Q129.179-36.2189 136.316-36.2189ZM28.956 23.0556L74.8012 23.0556Q72.1486 19.3537 71.868 14.229Q71.5874 9.10436 73.4965 3.39431Q75.4055-2.31583 79.3693-7.94636Q83.3331-13.577 89.1504-18.3054Q84.1462-21.3354 77.4493-23.3649Q70.7522-25.3944 62.8293-25.3944Q52.5017-25.3944 43.9287-22.0261Q35.3557-18.6577 29.1319-13.2047Q22.908-7.75149 19.496-1.33369Q16.084 5.08415 16.084 11.2133Q16.084 16.764 18.9245 19.9098Q21.765 23.0556 28.956 23.0556ZM62.8406-34.8216Q69.0795-34.8216 74.2004-38.1192Q79.3214-41.4168 82.3756-47.0187Q85.4298-52.6207 85.4298-59.4953Q85.4298-66.1825 82.3504-71.6659Q79.2711-77.1492 74.1473-80.4172Q69.0236-83.6852 62.8406-83.6852Q56.6822-83.6852 51.5433-80.4021Q46.4044-77.1191 43.3503-71.6084Q40.2961-66.0975 40.3016-59.4349Q40.3462-52.5905 43.3754-47.0036Q46.4044-41.4168 51.5181-38.1192Q56.6319-34.8216 62.8406-34.8216ZM185.679-34.367Q188.57-32.5921 191.755-33.1726Q194.94-33.753 196.761-36.3565Q200.96-42.1521 203.291-49.532Q205.621-56.9118 205.621-64.9374Q205.621-72.9987 203.291-80.3858Q200.96-87.7728 196.761-93.5629Q194.94-96.1272 191.755-96.7077Q188.57-97.2881 185.679-95.4831Q182.525-93.573 181.952-90.0344Q181.38-86.4959 183.961-82.2057Q186.317-78.5828 187.554-74.1705Q188.792-69.7583 188.792-64.9374Q188.792-60.1968 187.54-55.7595Q186.287-51.3222 183.961-47.7047Q181.41-43.4235 181.967-39.8804Q182.525-36.3375 185.679-34.367ZM215.114-16.5858Q218.109-14.8398 221.358-15.5246Q224.608-16.2094 226.518-19.1698Q232.911-28.7738 236.39-40.5381Q239.869-52.3025 239.869-64.9374Q239.869-77.608 236.39-89.3875Q232.911-101.167 226.518-110.735Q224.608-113.671 221.358-114.356Q218.109-115.04 215.114-113.325Q211.732-111.4 211.285-107.753Q210.839-104.107 213.098-100.486Q217.9-92.9879 220.496-83.8603Q223.091-74.7326 223.091-64.9374Q223.091-55.1478 220.466-46.0352Q217.84-36.9226 213.098-29.4245Q210.839-25.798 211.285-22.1764Q211.732-18.5549 215.114-16.5858Z"/>
  </g>
  <g id="Bold-L" transform="matrix(1 0 0 1 2237.36 1556)">
   <path d="M96.5665 22.6439L174.912 22.6439Q182.812 22.6439 185.983 20.1877Q189.153 17.7315 189.153 13.1673Q189.153 7.12711 185.415 0.464763Q181.678-6.19762 174.686-12.0157Q167.696-17.8338 157.826-21.4614Q147.956-25.0892 135.72-25.0892Q123.485-25.0892 113.627-21.4614Q103.769-17.8338 96.7855-12.0157Q89.8017-6.19762 86.0572 0.464763Q82.3127 7.12711 82.3127 13.1673Q82.3127 17.7315 85.4637 20.1877Q88.6147 22.6439 96.5665 22.6439ZM135.747-36.1566Q142.791-36.1566 148.608-39.8946Q154.425-43.6325 157.89-50.011Q161.354-56.3895 161.354-64.2733Q161.354-71.9185 157.868-78.1531Q154.383-84.3876 148.559-88.073Q142.736-91.7584 135.747-91.7584Q128.783-91.7584 122.945-88.0416Q117.106-84.3248 113.629-78.0647Q110.151-71.8047 110.164-64.1974Q110.194-56.3516 113.65-49.9921Q117.106-43.6325 122.923-39.8946Q128.74-36.1566 135.747-36.1566ZM28.1353 22.6731L75.2564 22.6731Q72.658 19.1763 72.467 14.1695Q72.2759 9.16266 74.24 3.53306Q76.204-2.0966 80.1067-7.60729Q84.0094-13.118 89.5874-17.6143Q84.506-20.8895 77.6982-23.0684Q70.8902-25.2472 62.5684-25.2472Q52.1326-25.2472 43.5863-21.844Q35.04-18.4407 28.897-12.9181Q22.754-7.39543 19.419-0.865728Q16.084 5.66396 16.084 11.9547Q16.084 17.0507 18.7979 19.8619Q21.5117 22.6731 28.1353 22.6731ZM62.5948-34.7516Q68.7256-34.7516 73.7851-38.0069Q78.8448-41.2622 81.8799-46.822Q84.9152-52.3818 84.9152-59.2334Q84.9152-65.9137 81.8587-71.3316Q78.8022-76.7494 73.736-79.9633Q68.6699-83.177 62.5948-83.177Q56.5445-83.177 51.4594-79.9443Q46.3742-76.7115 43.339-71.2623Q40.3037-65.813 40.3169-59.1573Q40.346-52.3437 43.3601-46.8029Q46.3742-41.2622 51.438-38.0069Q56.502-34.7516 62.5948-34.7516ZM184.464-35.5542Q186.825-34.0714 189.491-34.552Q192.158-35.0326 193.726-37.2679Q197.724-42.7091 199.974-49.8349Q202.222-56.9607 202.222-64.754Q202.222-72.5985 199.974-79.7199Q197.724-86.8412 193.726-92.2693Q192.158-94.4885 189.491-94.9691Q186.825-95.4497 184.464-93.929Q181.833-92.3028 181.375-89.3635Q180.918-86.4244 183.038-83.0576Q185.632-79.244 186.98-74.5896Q188.329-69.9352 188.329-64.754Q188.329-59.6532 186.962-54.9777Q185.594-50.3021 183.038-46.5016Q180.955-43.1129 181.394-40.1845Q181.833-37.2562 184.464-35.5542ZM211.53-18.2285Q213.994-16.728 216.698-17.286Q219.402-17.844 221.028-20.3129Q227.306-29.4396 230.765-40.9376Q234.224-52.4357 234.224-64.754Q234.224-77.1234 230.765-88.6405Q227.306-100.158 221.028-109.233Q219.402-111.677 216.698-112.235Q213.994-112.793 211.53-111.331Q208.794-109.713 208.428-106.736Q208.063-103.758 209.945-100.829Q214.954-93.3244 217.664-84.0399Q220.374-74.7554 220.374-64.754Q220.374-54.7659 217.626-45.5003Q214.878-36.2348 209.945-28.7302Q208.063-25.7881 208.428-22.8314Q208.794-19.8748 211.53-18.2285Z"/>
  </g>
  <g id="Semibold-L" transform="matrix(1 0 0 1 1940.95 1556)">
   <path d="M95.7732 22.3908L174.904 22.3908Q182.393 22.3908 185.466 20.1042Q188.538 17.8175 188.538 13.4126Q188.538 7.35648 184.829 0.67546Q181.121-6.00559 174.167-11.8424Q167.214-17.6792 157.381-21.3229Q147.547-24.9666 135.317-24.9666Q123.087-24.9666 113.266-21.3229Q103.445-17.6792 96.5014-11.8424Q89.5574-6.00559 85.8394 0.67546Q82.1214 7.35648 82.1214 13.4126Q82.1214 17.8175 85.1719 20.1042Q88.2225 22.3908 95.7732 22.3908ZM135.354-36.1137Q142.314-36.1137 148.086-39.8226Q153.857-43.5313 157.304-49.8754Q160.75-56.2195 160.75-64.0822Q160.75-71.7227 157.285-77.9122Q153.821-84.1016 148.039-87.739Q142.258-91.3764 135.354-91.3764Q128.475-91.3764 122.685-87.7048Q116.894-84.0333 113.43-77.813Q109.965-71.5927 109.984-63.9955Q110.002-56.1763 113.448-49.8538Q116.894-43.5313 122.666-39.8226Q128.438-36.1137 135.354-36.1137ZM27.5695 22.4094L75.5703 22.4094Q73.0092 19.0539 72.8799 14.1284Q72.7505 9.20285 74.7525 3.62872Q76.7545-1.94547 80.6151-7.37354Q84.4757-12.8017 89.8886-17.1379Q84.7541-20.5822 77.8698-22.864Q70.9853-25.1458 62.3884-25.1458Q51.8781-25.1458 43.3502-21.7184Q34.8223-18.2911 28.7351-12.7205Q22.6478-7.14996 19.366-0.543119Q16.084 6.06367 16.084 12.4658Q16.084 17.2483 18.7106 19.8289Q21.3371 22.4094 27.5695 22.4094ZM62.4254-34.7034Q68.4816-34.7034 73.4988-37.9295Q78.5161-41.1556 81.5383-46.6863Q84.5604-52.2171 84.5604-59.0528Q84.5604-65.7284 81.5197-71.1011Q78.4789-76.4738 73.4525-79.6503Q68.4261-82.8267 62.4254-82.8267Q56.4497-82.8267 51.4015-79.6287Q46.3533-76.4306 43.3312-71.0237Q40.309-65.6168 40.3274-58.966Q40.3459-52.1736 43.3496-46.6646Q46.3533-41.1556 51.3828-37.9295Q56.4125-34.7034 62.4254-34.7034ZM183.627-36.3727Q185.622-35.0911 187.93-35.503Q190.24-35.9147 191.633-37.8962Q195.493-43.093 197.687-50.0438Q199.879-56.9944 199.879-64.6276Q199.879-72.3226 197.687-79.2608Q195.493-86.199 191.633-91.3776Q190.24-93.3587 187.93-93.7705Q185.622-94.1823 183.627-92.8575Q181.355-91.4271 180.978-88.901Q180.6-86.375 182.402-83.6448Q185.159-79.6999 186.584-74.8785Q188.01-70.0571 188.01-64.6276Q188.01-59.2785 186.563-54.4387Q185.116-49.5989 182.402-45.6721Q180.642-42.8988 180.999-40.3941Q181.355-37.8896 183.627-36.3727ZM209.059-19.3609Q211.158-18.0298 213.486-18.5003Q215.814-18.9709 217.244-21.1009Q223.442-29.8986 226.887-41.2131Q230.333-52.5274 230.333-64.6276Q230.333-76.7893 226.887-88.1256Q223.442-99.4618 217.244-108.198Q215.814-110.303 213.486-110.773Q211.158-111.244 209.059-109.956Q206.768-108.551 206.458-106.034Q206.148-103.517 207.771-101.066Q212.922-93.5564 215.712-84.1638Q218.502-74.7712 218.502-64.6276Q218.502-54.5026 215.669-45.1316Q212.836-35.7607 207.771-28.2515Q206.148-25.7813 206.458-23.2829Q206.768-20.7847 209.059-19.3609Z"/>
  </g>
  <g id="Medium-L" transform="matrix(1 0 0 1 1644.47 1556)">
   <path d="M95.1718 22.1989L174.898 22.1989Q182.075 22.1989 185.074 20.0408Q188.072 17.8828 188.072 13.5987Q188.072 7.53041 184.385 0.835219Q180.699-5.85999 173.773-11.711Q166.848-17.562 157.043-21.2178Q147.238-24.8737 135.012-24.8737Q122.785-24.8737 112.992-21.2178Q103.2-17.562 96.2859-11.711Q89.3721-5.85999 85.6742 0.835219Q81.9763 7.53041 81.9763 13.5987Q81.9763 17.8828 84.9506 20.0408Q87.925 22.1989 95.1718 22.1989ZM135.056-36.0812Q141.951-36.0812 147.689-39.7679Q153.427-43.4546 156.859-49.7726Q160.291-56.0906 160.291-63.9373Q160.291-71.5741 156.843-77.7295Q153.394-83.8848 147.645-87.4858Q141.896-91.0868 135.056-91.0868Q128.242-91.0868 122.488-87.4495Q116.733-83.8122 113.279-77.6221Q109.824-71.432 109.846-63.8424Q109.857-56.0433 113.295-49.749Q116.733-43.4546 122.471-39.7679Q128.209-36.0812 135.056-36.0812ZM27.1405 22.2094L75.8082 22.2094Q73.2755 18.9612 73.193 14.0972Q73.1104 9.23333 75.1412 3.70125Q77.1719-1.83087 81.0006-7.1963Q84.8293-12.5617 90.117-16.7766Q84.9423-20.3491 77.9999-22.709Q71.0575-25.0689 62.252-25.0689Q51.6852-25.0689 43.1713-21.6232Q34.6573-18.1776 28.6123-12.5707Q22.5673-6.96384 19.3257-0.298503Q16.084 6.36675 16.084 12.8533Q16.084 17.3982 18.6444 19.8038Q21.2048 22.2094 27.1405 22.2094ZM62.2969-34.6668Q68.2966-34.6668 73.2817-37.8708Q78.267-41.0748 81.2792-46.5835Q84.2914-52.0923 84.2914-58.9158Q84.2914-65.5879 81.2626-70.9263Q78.2338-76.2648 73.2374-79.413Q68.2412-82.5611 62.2969-82.5611Q56.3777-82.5611 51.3576-79.3894Q46.3375-76.2176 43.3253-70.8428Q40.3131-65.468 40.3353-58.8209Q40.3458-52.0446 43.3417-46.5597Q46.3375-41.0748 51.341-37.8708Q56.3446-34.6668 62.2969-34.6668ZM182.992-36.9933Q184.709-35.8644 186.747-36.2241Q188.785-36.5836 190.046-38.3726Q193.802-43.3842 195.952-50.2021Q198.102-57.0199 198.102-64.5317Q198.102-72.1134 195.952-78.9128Q193.802-85.7121 190.046-90.7014Q188.785-92.5021 186.747-92.8617Q184.709-93.2212 182.992-92.0451Q180.993-90.7632 180.676-88.5504Q180.359-86.3376 181.919-84.0901Q184.801-80.0455 186.284-75.0975Q187.768-70.1495 187.768-64.5317Q187.768-58.9943 186.261-54.03Q184.753-49.0656 181.919-45.0432Q180.405-42.7364 180.699-40.5531Q180.993-38.3699 182.992-36.9933ZM207.185-20.2196Q209.007-19.0168 211.05-19.4211Q213.093-19.8254 214.374-21.6984Q220.512-30.2467 223.947-41.4219Q227.382-52.597 227.382-64.5317Q227.382-76.536 223.947-87.7352Q220.512-98.9342 214.374-107.412Q213.093-109.26 211.05-109.665Q209.007-110.069 207.185-108.914Q205.232-107.669 204.965-105.502Q204.697-103.335 206.123-101.245Q211.382-93.7323 214.232-84.2577Q217.082-74.7831 217.082-64.5317Q217.082-54.303 214.185-44.852Q211.288-35.4011 206.123-27.8886Q204.697-25.7761 204.965-23.6253Q205.232-21.4746 207.185-20.2196Z"/>
  </g>
  <g id="Regular-L" transform="matrix(1 0 0 1 1348.07 1556)">
   <path d="M94.3872 21.9486L174.89 21.9486Q181.66 21.9486 184.563 19.9582Q187.464 17.9678 187.464 13.8413Q187.464 7.75727 183.806 1.0436Q180.148-5.67008 173.259-11.5396Q166.371-17.4091 156.602-21.0808Q146.834-24.7525 134.613-24.7525Q122.391-24.7525 112.635-21.0808Q102.879-17.4091 96.0049-11.5396Q89.1304-5.67008 85.4587 1.0436Q81.7871 7.75727 81.7871 13.8413Q81.7871 17.9678 84.662 19.9582Q87.5371 21.9486 94.3872 21.9486ZM134.668-36.0387Q141.479-36.0387 147.172-39.6967Q152.865-43.3545 156.28-49.6385Q159.694-55.9225 159.694-63.7483Q159.694-71.3804 156.266-77.4912Q152.838-83.602 147.131-87.1555Q141.423-90.7091 134.668-90.7091Q127.938-90.7091 122.231-87.1165Q116.523-83.5239 113.082-77.3731Q109.64-71.2223 109.668-63.6428Q109.668-55.8699 113.096-49.6123Q116.523-43.3545 122.217-39.6967Q127.91-36.0387 134.668-36.0387ZM26.5809 21.9486L76.1186 21.9486Q73.6229 18.8402 73.6014 14.0566Q73.5799 9.27308 75.6481 3.79585Q77.7163-1.6814 81.5034-6.96512Q85.2904-12.2488 90.415-16.3055Q85.1876-20.0451 78.1696-22.5068Q71.1516-24.9686 62.0741-24.9686Q51.4335-24.9686 42.9378-21.4991Q34.4421-18.0296 28.4522-12.3753Q22.4623-6.72107 19.2732 0.0205614Q16.084 6.76207 16.084 13.3588Q16.084 17.5936 18.5581 19.7711Q21.0321 21.9486 26.5809 21.9486ZM62.1294-34.619Q68.0553-34.619 72.9986-37.7942Q77.942-40.9694 80.9413-46.4493Q83.9406-51.9294 83.9406-58.7372Q83.9406-65.4047 80.9273-70.6984Q77.9141-75.9922 72.957-79.1035Q68-82.2147 62.1294-82.2147Q56.2839-82.2147 51.3003-79.0773Q46.3169-75.9397 43.3176-70.6068Q40.3183-65.274 40.3457-58.6316Q40.3457-51.8764 43.3313-46.4228Q46.3169-40.9694 51.2864-37.7942Q56.256-34.619 62.1294-34.619ZM182.163-37.8028Q183.519-36.873 185.204-37.1646Q186.888-37.4561 187.976-38.994Q191.595-43.7639 193.691-50.4086Q195.785-57.0533 195.785-64.4067Q195.785-71.8405 193.691-78.4588Q191.595-85.0769 187.976-89.8194Q186.888-91.3847 185.204-91.6763Q183.519-91.9678 182.163-90.9855Q180.521-89.8971 180.283-88.0929Q180.044-86.2889 181.29-84.6709Q184.334-80.4963 185.893-75.3832Q187.453-70.2701 187.453-64.4067Q187.453-58.6237 185.867-53.4969Q184.281-48.3701 181.29-44.2229Q180.095-42.5247 180.308-40.7604Q180.521-38.9963 182.163-37.8028ZM204.741-21.3396Q206.202-20.3042 207.873-20.622Q209.544-20.9399 210.631-22.4778Q216.69-30.7006 220.112-41.6943Q223.534-52.6878 223.534-64.4067Q223.534-76.2056 220.112-87.2259Q216.69-98.2461 210.631-106.388Q209.544-107.901 207.873-108.219Q206.202-108.537 204.741-107.554Q203.229-106.519 203.016-104.808Q202.804-103.097 203.973-101.479Q209.373-93.9617 212.302-84.3802Q215.229-74.7987 215.229-64.4067Q215.229-54.0426 212.249-44.4874Q209.268-34.9322 203.973-27.4152Q202.804-25.7693 203.016-24.0719Q203.229-22.3745 204.741-21.3396Z"/>
  </g>
  <g id="Light-L" transform="matrix(1 0 0 1 1051.61 1556)">
   <path d="M93.204 21.648L175.596 21.648Q181.489 21.648 184.229 19.8103Q186.968 17.9725 186.968 13.8841Q186.968 7.81933 183.338 1.13433Q179.709-5.5506 172.839-11.3916Q165.97-17.2326 156.259-20.8852Q146.548-24.5378 134.384-24.5378Q122.22-24.5378 112.502-20.8852Q102.784-17.2326 95.938-11.3916Q89.0922-5.5506 85.4397 1.13433Q81.7871 7.81933 81.7871 13.8841Q81.7871 17.9725 84.5094 19.8103Q87.2318 21.648 93.204 21.648ZM134.477-35.8429Q141.326-35.8429 146.953-39.4723Q152.579-43.1017 155.908-49.3379Q159.236-55.5741 159.236-63.3618Q159.236-70.822 155.884-76.9042Q152.533-82.9864 146.883-86.5781Q141.233-90.1699 134.477-90.1699Q127.709-90.1699 122.059-86.5677Q116.409-82.9654 113.034-76.8433Q109.659-70.7213 109.706-63.2944Q109.706-55.5407 113.057-49.3212Q116.409-43.1017 122.035-39.4723Q127.662-35.8429 134.477-35.8429ZM25.7222 21.648L77.6456 21.648Q75.0925 19.1694 74.8896 14.7198Q74.6867 10.2702 76.5451 4.89797Q78.4035-0.474254 82.0569-5.82467Q85.7101-11.1751 90.9302-15.4228Q85.7029-19.4677 78.5036-22.1299Q71.3042-24.7921 61.8451-24.7921Q51.2427-24.7921 42.7946-21.3702Q34.3465-17.9483 28.3853-12.3324Q22.4242-6.71642 19.2541 0.0157584Q16.084 6.74782 16.084 13.4016Q16.084 17.6175 18.434 19.6328Q20.7839 21.648 25.7222 21.648ZM61.9386-34.4425Q67.9027-34.4425 72.7888-37.5889Q77.6749-40.7355 80.6073-46.1678Q83.5397-51.6002 83.5397-58.3888Q83.5397-64.8847 80.5837-70.1688Q77.6277-75.4531 72.7184-78.6024Q67.8092-81.7518 61.9386-81.7518Q56.0549-81.7518 51.1286-78.5858Q46.2024-75.4197 43.27-70.125Q40.3375-64.8303 40.3839-58.3213Q40.3839-51.5661 43.2931-46.1507Q46.2024-40.7355 51.1051-37.5889Q56.0078-34.4425 61.9386-34.4425ZM183.06-37.4926Q184.13-36.7535 185.423-36.9688Q186.716-37.184 187.556-38.3403Q191.176-43.0721 193.356-49.6405Q195.536-56.2088 195.536-63.753Q195.536-71.3776 193.356-77.929Q191.176-84.4803 187.556-89.1657Q186.716-90.3684 185.423-90.5837Q184.13-90.7988 183.06-90.0265Q181.838-89.1861 181.657-87.8018Q181.475-86.4176 182.416-85.1815Q185.784-80.568 187.448-75.3117Q189.113-70.0554 189.113-63.753Q189.113-57.531 187.432-52.2517Q185.75-46.9722 182.416-42.4049Q181.508-41.0886 181.673-39.7441Q181.838-38.3997 183.06-37.4926ZM204.57-20.9341Q205.705-20.1277 206.976-20.3596Q208.246-20.5915 209.086-21.7478Q215.163-29.818 218.67-40.8783Q222.179-51.9386 222.179-63.753Q222.179-75.6472 218.67-86.7249Q215.163-97.8025 209.086-105.792Q208.246-106.961 206.976-107.193Q205.705-107.425 204.57-106.652Q203.401-105.846 203.236-104.536Q203.071-103.225 203.992-101.989Q209.679-94.2241 212.74-84.385Q215.802-74.5459 215.802-63.753Q215.802-53.0073 212.707-43.1848Q209.611-33.3624 203.992-25.5972Q203.071-24.314 203.236-23.0269Q203.401-21.7398 204.57-20.9341Z"/>
  </g>
  <g id="Thin-L" transform="matrix(1 0 0 1 755.224 1556)">
   <path d="M91.6391 21.2504L176.53 21.2504Q181.261 21.2504 183.787 19.6146Q186.312 17.9787 186.312 13.9408Q186.312 7.90142 182.719 1.25433Q179.128-5.39258 172.284-11.1959Q165.441-16.9991 155.805-20.6265Q146.169-24.2539 134.081-24.2539Q121.992-24.2539 112.325-20.6265Q102.658-16.9991 95.8496-11.1959Q89.0418-5.39258 85.4144 1.25433Q81.7871 7.90142 81.7871 13.9408Q81.7871 17.9787 84.3075 19.6146Q86.8281 21.2504 91.6391 21.2504ZM134.225-35.5839Q141.124-35.5839 146.662-39.1756Q152.2-42.7673 155.415-48.9402Q158.63-55.1133 158.63-62.8505Q158.63-70.0834 155.38-76.1278Q152.129-82.1724 146.555-85.8146Q140.98-89.4567 134.225-89.4567Q127.406-89.4567 121.832-85.8418Q116.257-82.2268 112.971-76.1426Q109.685-70.0587 109.756-62.8336Q109.756-55.1053 113.007-48.9363Q116.257-42.7673 121.796-39.1756Q127.334-35.5839 134.225-35.5839ZM24.5865 21.2504L79.6652 21.2504Q77.0361 19.6047 76.5934 15.5968Q76.1507 11.5889 77.7315 6.35561Q79.3124 1.12229 82.7889-4.31634Q86.2653-9.75497 91.6117-14.2555Q86.3845-18.7041 78.9453-21.6313Q71.5061-24.5585 61.5424-24.5585Q50.9904-24.5585 42.6052-21.1997Q34.2201-17.8408 28.2969-12.2755Q22.3737-6.71026 19.2289 0.00940586Q16.084 6.72897 16.084 13.4583Q16.084 17.6491 18.2698 19.4498Q20.4557 21.2504 24.5865 21.2504ZM61.6863-34.209Q67.7008-34.209 72.5112-37.3175Q77.3216-40.4261 80.1656-45.7954Q83.0096-51.1649 83.0096-57.928Q83.0096-64.197 80.1293-69.4685Q77.249-74.74 72.4029-77.9397Q67.5569-81.1397 61.6863-81.1397Q55.7522-81.1397 50.9016-77.9359Q46.051-74.732 43.207-69.4878Q40.363-64.2436 40.4343-57.911Q40.4343-51.1557 43.2427-45.7909Q46.051-40.4261 50.8653-37.3175Q55.6796-34.209 61.6863-34.209ZM184.246-37.0822Q184.937-36.5955 185.713-36.7098Q186.489-36.8241 187.001-37.4758Q190.621-42.1571 192.914-48.6245Q195.208-55.092 195.208-62.8885Q195.208-70.7654 192.914-77.2283Q190.621-83.6913 187.001-88.3012Q186.489-89.0242 185.713-89.1385Q184.937-89.2527 184.246-88.7582Q183.58-88.2456 183.475-87.4167Q183.367-86.5878 183.905-85.8568Q187.701-80.6627 189.506-75.217Q191.309-69.7715 191.309-62.8885Q191.309-56.0859 189.501-50.6047Q187.693-45.1234 183.905-40.0005Q183.375-39.1892 183.478-38.3999Q183.58-37.6107 184.246-37.0822ZM204.342-20.3978Q205.049-19.8942 205.789-20.0124Q206.53-20.1307 207.041-20.7823Q213.144-28.6507 216.764-39.7992Q220.387-50.9476 220.387-62.8885Q220.387-74.9086 216.764-86.0622Q213.144-97.2157 207.041-105.002Q206.53-105.718 205.789-105.836Q205.049-105.954 204.342-105.46Q203.628-104.956 203.527-104.176Q203.424-103.396 204.018-102.665Q210.083-94.5712 213.321-84.3913Q216.559-74.2115 216.559-62.8885Q216.559-51.6381 213.313-41.4621Q210.066-31.2862 204.018-23.1928Q203.424-22.3892 203.527-21.6447Q203.628-20.9002 204.342-20.3978Z"/>
  </g>
  <g id="Ultralight-L" transform="matrix(1 0 0 1 458.682 1556)">
   <path d="M90.8376 21.0468L177.009 21.0468Q181.145 21.0468 183.56 19.5143Q185.976 17.9819 185.976 13.9698Q185.976 7.94346 182.403 1.31579Q178.831-5.31165 171.999-11.0956Q165.169-16.8796 155.572-20.494Q145.975-24.1084 133.926-24.1084Q121.876-24.1084 112.234-20.494Q102.593-16.8796 95.8043-11.0956Q89.0159-5.31165 85.4015 1.31579Q81.7871 7.94346 81.7871 13.9698Q81.7871 17.9819 84.2041 19.5143Q86.6213 21.0468 90.8376 21.0468ZM134.096-35.4513Q141.021-35.4513 146.514-39.0236Q152.006-42.596 155.163-48.7365Q158.32-54.8772 158.32-62.5887Q158.32-69.7051 155.121-75.7302Q151.922-81.7554 146.387-85.4235Q140.851-89.0915 134.096-89.0915Q127.251-89.0915 121.716-85.4701Q116.18-81.8484 112.939-75.7838Q109.698-69.7193 109.782-62.5976Q109.782-54.8823 112.981-48.7392Q116.18-42.596 121.673-39.0236Q127.165-35.4513 134.096-35.4513ZM24.0048 21.0468L80.6996 21.0468Q78.0317 19.8277 77.4661 16.046Q76.9005 12.2644 78.3392 7.10221Q79.7779 1.94004 83.1638-3.54378Q86.5496-9.0276 91.9608-13.6576Q86.7336-18.313 79.1715-21.376Q71.6095-24.4389 61.3873-24.4389Q50.8611-24.4389 42.5082-21.1124Q34.1554-17.7857 28.2516-12.2464Q22.3478-6.70711 19.216 0.00615215Q16.084 6.71932 16.084 13.4873Q16.084 17.6653 18.1857 19.3561Q20.2875 21.0468 24.0048 21.0468ZM61.5571-34.0894Q67.5974-34.0894 72.3691-37.1784Q77.1407-40.2676 79.9394-45.6047Q82.7381-50.9419 82.7381-57.692Q82.7381-63.8448 79.8966-69.1097Q77.055-74.3747 72.2413-77.6003Q67.4276-80.8261 61.5571-80.8261Q55.5971-80.8261 50.7853-77.603Q45.9734-74.3798 43.1747-69.1614Q40.376-63.943 40.4602-57.7008Q40.4602-50.9455 43.2168-45.6066Q45.9734-40.2676 50.7424-37.1784Q55.5114-34.0894 61.5571-34.0894ZM184.854-36.8721Q185.351-36.5146 185.862-36.5772Q186.372-36.6398 186.717-37.033Q190.337-41.6884 192.688-48.1042Q195.039-54.52 195.039-62.4457Q195.039-70.4518 192.688-76.8695Q190.337-83.2871 186.717-87.8584Q186.372-88.3357 185.862-88.3984Q185.351-88.4608 184.854-88.1086Q184.473-87.7639 184.406-87.2194Q184.337-86.675 184.668-86.2028Q188.684-80.7112 190.559-75.1685Q192.433-69.6261 192.433-62.4457Q192.433-55.3457 190.561-49.7611Q188.689-44.1764 184.668-38.769Q184.332-38.2164 184.402-37.7114Q184.473-37.2065 184.854-36.8721ZM204.226-20.1231Q204.712-19.7747 205.182-19.8347Q205.651-19.8946 205.994-20.2878Q212.109-28.0528 215.788-39.2465Q219.469-50.4401 219.469-62.4457Q219.469-74.5304 215.788-85.7229Q212.109-96.9152 205.994-104.598Q205.651-105.081 205.182-105.141Q204.712-105.201 204.226-104.849Q203.744-104.5 203.676-103.991Q203.606-103.483 204.031-103.011Q210.29-94.749 213.618-84.3945Q216.947-74.0402 216.947-62.4457Q216.947-50.9368 213.623-40.5797Q210.298-30.2228 204.031-21.9612Q203.606-21.4034 203.676-20.9368Q203.744-20.4702 204.226-20.1231Z"/>
  </g>
  <g id="Black-M" transform="matrix(1 0 0 1 2852.98 1126)">
   <path d="M76.9838 10.3257L135.777 10.3257Q142.934 10.3257 145.652 7.92491Q148.37 5.52411 148.37 1.48436Q148.37-3.13689 145.389-8.22815Q142.409-13.3194 136.879-17.7565Q131.349-22.1936 123.602-24.9457Q115.854-27.6978 106.378-27.6978Q96.9014-27.6978 89.1569-24.9457Q81.4124-22.1936 75.8825-17.7565Q70.3526-13.3194 67.3721-8.22815Q64.3916-3.13689 64.3916 1.48436Q64.3916 5.52411 67.1066 7.92491Q69.8217 10.3257 76.9838 10.3257ZM106.377-36.0205Q112.124-36.0205 116.754-39.0012Q121.383-41.9818 124.098-47.0188Q126.812-52.0558 126.812-58.2193Q126.812-64.0993 124.069-69.0659Q121.327-74.0324 116.697-77.0561Q112.068-80.0799 106.377-80.0799Q100.693-80.0799 96.0345-77.0505Q91.3765-74.0211 88.6626-69.052Q85.9487-64.0828 85.9484-58.2083Q86.0056-52.0503 88.691-47.016Q91.3765-41.9818 96.0061-39.0012Q100.636-36.0205 106.377-36.0205ZM23.3401 10.3828L57.8063 10.3828Q55.6525 7.42952 55.2426 3.40071Q54.8327-0.628107 56.16-5.1337Q57.4872-9.6394 60.6018-14.1994Q63.7164-18.7595 68.6056-22.8269Q64.8413-24.9201 59.7532-26.3425Q54.665-27.7648 48.9798-27.7648Q41.1496-27.7648 34.4849-25.2225Q27.8202-22.6802 22.89-18.5701Q17.9597-14.4598 15.2104-9.65436Q12.4609-4.8488 12.4609-0.316886Q12.4609 4.64134 14.8043 7.51208Q17.1477 10.3828 23.3401 10.3828ZM48.9793-34.9558Q53.9838-34.9558 58.0214-37.5626Q62.0591-40.1695 64.4302-44.5548Q66.8014-48.9402 66.8014-54.2935Q66.8014-59.4259 64.4018-63.7665Q62.0022-68.1071 57.9647-70.731Q53.9273-73.355 48.9793-73.355Q44.0372-73.355 39.997-70.7283Q35.9567-68.1016 33.5856-63.7554Q31.2144-59.4091 31.2141-54.2825Q31.2712-48.9348 33.614-44.5521Q35.9567-40.1695 39.9685-37.5626Q43.9804-34.9558 48.9793-34.9558ZM145.934-32.7214Q148.851-30.9847 151.942-31.5543Q155.035-32.1238 156.731-34.5488Q160.277-39.5438 162.231-45.6064Q164.183-51.669 164.183-58.291Q164.183-64.918 162.231-71.0065Q160.277-77.0949 156.731-82.0902Q155.035-84.4577 151.942-85.0272Q148.851-85.5969 145.934-83.8546Q142.87-82.0443 142.277-78.5702Q141.684-75.0962 144.254-70.5534Q145.842-67.8757 146.674-64.7623Q147.507-61.6491 147.507-58.291Q147.507-54.9951 146.672-51.8534Q145.837-48.7116 144.254-46.0336Q141.69-41.5428 142.279-38.0427Q142.87-34.5428 145.934-32.7214ZM171.836-18.2479Q174.82-16.6144 177.998-17.3009Q181.176-17.9874 182.986-20.8692Q188.115-28.955 190.868-38.4811Q193.621-48.0073 193.621-58.291Q193.621-68.5799 190.868-78.1087Q188.115-87.6375 182.986-95.7182Q181.176-98.5941 177.998-99.2806Q174.82-99.9672 171.836-98.3391Q168.389-96.4772 167.941-92.8114Q167.494-89.1456 169.709-85.4593Q173.225-79.5753 175.113-72.6451Q177.001-65.7148 177.001-58.291Q177.001-50.8667 175.108-43.9392Q173.214-37.0118 169.709-31.1277Q167.494-27.4418 167.941-23.8043Q168.389-20.1669 171.836-18.2479Z"/>
  </g>
  <g id="Heavy-M" transform="matrix(1 0 0 1 2556.61 1126)">
   <path d="M76.2324 10.0695L135.615 10.0695Q142.439 10.0695 145.069 7.85081Q147.697 5.63216 147.697 1.78617Q147.697-2.85945 144.747-7.98055Q141.798-13.1017 136.31-17.5686Q130.823-22.0356 123.111-24.812Q115.398-27.5886 105.916-27.5886Q96.4337-27.5886 88.728-24.812Q81.0223-22.0356 75.5367-17.5686Q70.051-13.1017 67.1001-7.98055Q64.149-2.85945 64.149 1.78617Q64.149 5.63216 66.7695 7.85081Q69.39 10.0695 76.2324 10.0695ZM105.92-36.0081Q111.551-36.0081 116.138-38.958Q120.725-41.9078 123.435-46.9115Q126.144-51.9151 126.144-58.0601Q126.144-63.9709 123.412-68.8866Q120.679-73.8021 116.091-76.7568Q111.503-79.7116 105.92-79.7116Q100.352-79.7116 95.742-76.7416Q91.132-73.7715 88.4204-68.8467Q85.7087-63.9217 85.711-58.0273Q85.7547-51.8987 88.4434-46.9033Q91.132-41.9078 95.7191-38.958Q100.306-36.0081 105.92-36.0081ZM22.8074 10.1131L57.8761 10.1131Q55.782 7.20375 55.4893 3.20621Q55.1966-0.791345 56.617-5.24919Q58.0374-9.70713 61.1274-14.1481Q64.2173-18.5891 68.8768-22.4126Q65.045-24.6545 59.899-26.1643Q54.7528-27.6741 48.801-27.6741Q40.868-27.6741 34.2164-25.0911Q27.5648-22.508 22.6991-18.3289Q17.8333-14.1497 15.1472-9.24439Q12.4609-4.33905 12.4609 0.32179Q12.4609 4.88671 14.7203 7.49991Q16.9797 10.1131 22.8074 10.1131ZM48.8055-34.9325Q53.7073-34.9325 57.7035-37.5086Q61.6999-40.0846 64.0688-44.4434Q66.4378-48.8022 66.4378-54.1394Q66.4378-59.3027 64.0458-63.5881Q61.6539-67.8735 57.6565-70.442Q53.6592-73.0104 48.8055-73.0104Q43.9661-73.0104 39.9605-70.4338Q35.9548-67.8571 33.5859-63.5565Q31.217-59.2557 31.2192-54.1066Q31.2628-48.7858 33.6089-44.4352Q35.9548-40.0846 39.9375-37.5086Q43.9202-34.9325 48.8055-34.9325ZM144.679-33.8256Q147.194-32.303 149.917-32.8018Q152.64-33.3005 154.168-35.4857Q157.539-40.1791 159.403-46.0362Q161.267-51.8931 161.267-58.2711Q161.267-64.6677 159.403-70.5384Q157.539-76.409 154.168-81.1002Q152.64-83.2439 149.917-83.7426Q147.194-84.2414 144.679-82.7025Q141.982-81.087 141.477-78.0465Q140.973-75.006 143.205-71.1882Q144.932-68.4381 145.839-65.1439Q146.745-61.8498 146.745-58.2711Q146.745-54.7547 145.83-51.4376Q144.915-48.1205 143.205-45.3727Q140.99-41.5799 141.485-38.5268Q141.982-35.4738 144.679-33.8256ZM168.74-19.7705Q171.331-18.3024 174.118-18.8966Q176.905-19.4907 178.521-22.0249Q183.544-29.7265 186.262-39.0055Q188.979-48.2846 188.979-58.2711Q188.979-68.2763 186.262-77.5636Q183.544-86.8508 178.521-94.5338Q176.905-97.0537 174.118-97.6478Q171.331-98.2421 168.74-96.7904Q165.784-95.1477 165.396-91.9803Q165.01-88.8129 166.949-85.6494Q170.584-79.8129 172.544-72.801Q174.504-65.7891 174.504-58.2711Q174.504-50.7553 172.528-43.7516Q170.552-36.7479 166.949-30.9115Q165.01-27.7457 165.396-24.6012Q165.784-21.4567 168.74-19.7705Z"/>
  </g>
  <g id="Bold-M" transform="matrix(1 0 0 1 2260.27 1126)">
   <path d="M75.3919 9.78283L135.435 9.78283Q141.886 9.78283 144.416 7.76793Q146.944 5.75303 146.944 2.12378Q146.944-2.54911 144.029-7.70358Q141.114-12.8581 135.674-17.3585Q130.236-21.8588 122.562-24.6626Q114.888-27.4664 105.399-27.4664Q95.9105-27.4664 88.2482-24.6626Q80.5859-21.8588 75.1498-17.3585Q69.7137-12.8581 66.7957-7.70358Q63.8777-2.54911 63.8777 2.12378Q63.8777 5.75303 66.3924 7.76793Q68.9071 9.78283 75.3919 9.78283ZM105.409-35.9943Q110.91-35.9943 115.45-38.9098Q119.989-41.8251 122.693-46.7915Q125.397-51.7578 125.397-57.8819Q125.397-63.8274 122.676-68.686Q119.955-73.5445 115.413-76.422Q110.871-79.2996 105.409-79.2996Q99.971-79.2996 95.4148-76.3959Q90.8586-73.4923 88.1495-68.617Q85.4403-63.7415 85.4454-57.8247Q85.474-51.7292 88.1663-46.7772Q90.8586-41.8251 95.3979-38.9098Q99.9373-35.9943 105.409-35.9943ZM22.2114 9.81138L57.9542 9.81138Q55.9269 6.9512 55.7653 2.98862Q55.6037-0.97395 57.1283-5.37839Q58.6529-9.78289 61.7153-14.0906Q64.7777-18.3984 69.1801-21.9491Q65.273-24.3574 60.0621-25.965Q54.8511-27.5727 48.6008-27.5727Q40.553-27.5727 33.9161-24.944Q27.2792-22.3153 22.4856-18.059Q17.692-13.8027 15.0765-8.78577Q12.4609-3.76883 12.4609 1.03624Q12.4609 5.1612 14.6264 7.48629Q16.7918 9.81138 22.2114 9.81138ZM48.6111-34.9065Q53.398-34.9065 57.348-37.4481Q61.2981-39.9897 63.6645-44.3187Q66.031-48.6478 66.031-53.967Q66.031-59.1649 63.6477-63.3886Q61.2643-67.6123 57.3118-70.1186Q53.3592-72.6249 48.6111-72.6249Q43.8866-72.6249 39.9197-70.1043Q35.9528-67.5837 33.5863-63.3339Q31.2198-59.0841 31.2249-53.9097Q31.2535-48.6191 33.6031-44.3044Q35.9528-39.9897 39.9028-37.4481Q43.8529-34.9065 48.6111-34.9065ZM143.276-35.0607Q145.341-33.7778 147.651-34.1973Q149.961-34.6167 151.302-36.5337Q154.476-40.8898 156.241-46.5168Q158.004-52.1438 158.004-58.2489Q158.004-64.3878 156.241-70.0148Q154.476-75.6417 151.302-79.9927Q149.961-81.8862 147.651-82.3056Q145.341-82.7251 143.276-81.4136Q140.988-80.0162 140.583-77.4606Q140.178-74.9051 142.032-71.8982Q143.913-69.0673 144.904-65.5708Q145.894-62.0742 145.894-58.2489Q145.894-54.4859 144.889-50.9726Q143.885-47.4592 142.032-44.6333Q140.206-41.6213 140.597-39.0683Q140.988-36.5153 143.276-35.0607ZM165.278-21.4737Q167.428-20.1907 169.778-20.6815Q172.129-21.1724 173.526-23.3177Q178.432-30.5894 181.109-39.5921Q183.787-48.5948 183.787-58.2489Q183.787-67.9368 181.109-76.9538Q178.432-85.9708 173.526-93.2087Q172.129-95.3306 169.778-95.8214Q167.428-96.3123 165.278-95.0578Q162.87-93.6605 162.55-91.0506Q162.231-88.4407 163.862-85.862Q167.63-80.0788 169.671-72.9755Q171.711-65.8722 171.711-58.2489Q171.711-50.6307 169.642-43.5418Q167.573-36.4528 163.862-30.6696Q162.231-28.0858 162.55-25.4926Q162.87-22.8995 165.278-21.4737Z"/>
  </g>
  <g id="Semibold-M" transform="matrix(1 0 0 1 1963.82 1126)">
   <path d="M74.8124 9.58522L135.31 9.58522Q141.504 9.58522 143.966 7.71079Q146.426 5.83635 146.426 2.35653Q146.426-2.33516 143.534-7.51264Q140.642-12.6902 135.236-17.2136Q129.831-21.7369 122.183-24.5595Q114.536-27.3821 105.043-27.3821Q95.5498-27.3821 87.9175-24.5595Q80.2851-21.7369 74.8831-17.2136Q69.4811-12.6902 66.5859-7.51264Q63.6907-2.33516 63.6907 2.35653Q63.6907 5.83635 66.1324 7.71079Q68.5743 9.58522 74.8124 9.58522ZM105.057-35.9848Q110.468-35.9848 114.975-38.8765Q119.481-41.7681 122.182-46.7088Q124.882-51.6494 124.882-57.7591Q124.882-63.7284 122.169-68.5477Q119.456-73.3669 114.946-76.1912Q110.436-79.0155 105.057-79.0155Q99.7084-79.0155 95.1892-76.1577Q90.6701-73.2998 87.9627-68.4586Q85.2552-63.6173 85.2623-57.6851Q85.2805-51.6124 87.9753-46.6903Q90.6701-41.7681 95.1766-38.8765Q99.683-35.9848 105.057-35.9848ZM21.8005 9.60337L58.0081 9.60337Q56.0268 6.77709 55.9556 2.83862Q55.8843-1.09984 57.4807-5.46746Q59.0772-9.83512 62.1206-14.0511Q65.1639-18.267 69.3892-21.6296Q65.4302-24.1525 60.1745-25.8277Q54.9188-27.5028 48.4629-27.5028Q40.3359-27.5028 33.7091-24.8427Q27.0823-22.1825 22.3384-17.873Q17.5945-13.5635 15.0278-8.4696Q12.4609-3.37572 12.4609 1.52878Q12.4609 5.35043 14.5616 7.47691Q16.6622 9.60337 21.8005 9.60337ZM48.4771-34.8886Q53.1848-34.8886 57.1029-37.4064Q61.0211-39.9242 63.3858-44.2327Q65.7506-48.5413 65.7506-53.8482Q65.7506-59.0699 63.3732-63.251Q60.9957-67.4322 57.0741-69.8957Q53.1525-72.3591 48.4771-72.3591Q43.8317-72.3591 39.8915-69.8772Q35.9514-67.3952 33.5866-63.1805Q31.2218-58.9658 31.2289-53.7741Q31.247-48.5042 33.5992-44.2142Q35.9514-39.9242 39.8788-37.4064Q43.8064-34.8886 48.4771-34.8886ZM142.309-35.9122Q144.064-34.7945 146.089-35.1594Q148.115-35.5242 149.325-37.2562Q152.365-41.3797 154.06-46.8482Q155.754-52.3166 155.754-58.2336Q155.754-64.1947 154.06-69.6538Q152.365-75.1127 149.325-79.2292Q148.115-80.9501 146.089-81.3149Q144.064-81.6797 142.309-80.5251Q140.303-79.278 139.967-77.0568Q139.63-74.8356 141.224-72.3877Q143.211-69.501 144.259-65.865Q145.307-62.229 145.307-58.2336Q145.307-54.3006 144.241-50.652Q143.174-47.0034 141.224-44.1237Q139.666-41.6499 139.985-39.4416Q140.303-37.2333 142.309-35.9122ZM162.891-22.6479Q164.737-21.4924 166.786-21.9121Q168.835-22.3317 170.083-24.209Q174.907-31.1844 177.557-39.9965Q180.208-48.8086 180.208-58.2336Q180.208-67.7027 177.557-76.5334Q174.907-85.3641 170.083-92.2953Q168.835-94.1426 166.786-94.5622Q164.737-94.9819 162.891-93.8634Q160.862-92.6353 160.588-90.4097Q160.315-88.1841 161.734-86.0086Q165.594-80.2621 167.69-73.0958Q169.786-65.9295 169.786-58.2336Q169.786-50.5449 167.653-43.3971Q165.52-36.2493 161.734-30.5029Q160.315-28.3202 160.588-26.1071Q160.862-23.8941 162.891-22.6479Z"/>
  </g>
  <g id="Medium-M" transform="matrix(1 0 0 1 1667.31 1126)">
   <path d="M74.3731 9.43538L135.216 9.43538Q141.215 9.43538 143.624 7.66746Q146.032 5.89953 146.032 2.53301Q146.032-2.17293 143.158-7.36786Q140.285-12.5629 134.904-17.1037Q129.523-21.6445 121.896-24.4814Q114.269-27.3183 104.773-27.3183Q95.2764-27.3183 87.6667-24.4814Q80.057-21.6445 74.6809-17.1037Q69.3048-12.5629 66.4268-7.36786Q63.5489-2.17293 63.5489 2.53301Q63.5489 5.89953 65.9353 7.66746Q68.3218 9.43538 74.3731 9.43538ZM104.79-35.9775Q110.133-35.9775 114.615-38.8513Q119.096-41.7249 121.794-46.646Q124.492-51.5671 124.492-57.666Q124.492-63.6533 121.785-68.4428Q119.078-73.2322 114.592-76.0161Q110.106-78.8002 104.79-78.8002Q99.5092-78.8002 95.0182-75.977Q90.5272-73.1539 87.8211-68.3385Q85.1149-63.5231 85.1234-57.5792Q85.1337-51.5238 87.8305-46.6244Q90.5272-41.7249 95.0087-38.8513Q99.4903-35.9775 104.79-35.9775ZM21.489 9.44566L58.0489 9.44566Q56.1025 6.64507 56.0998 2.72489Q56.0971-1.19529 57.748-5.53499Q59.3989-9.87473 62.4279-14.021Q65.4568-18.1674 69.5478-21.3873Q65.5493-23.9972 60.2598-25.7235Q54.9701-27.4498 48.3583-27.4498Q40.1712-27.4498 33.5521-24.7658Q26.9329-22.0818 22.2268-17.732Q17.5206-13.3821 14.9908-8.22987Q12.4609-3.07765 12.4609 1.90224Q12.4609 5.49391 14.5125 7.46979Q16.564 9.44566 21.489 9.44566ZM48.3755-34.875Q53.0232-34.875 56.9171-37.3748Q60.8111-39.8746 63.1745-44.1675Q65.538-48.4606 65.538-53.7581Q65.538-58.9978 63.1651-63.1467Q60.7921-67.2956 56.8939-69.7266Q52.9957-72.1576 48.3755-72.1576Q43.7902-72.1576 39.8702-69.705Q35.9503-67.2523 33.5868-63.0642Q31.2233-58.8761 31.2319-53.6712Q31.2421-48.4171 33.5962-44.1458Q35.9503-39.8746 39.8607-37.3748Q43.7712-34.875 48.3755-34.875ZM141.575-36.5579Q143.095-35.5654 144.905-35.8889Q146.714-36.2122 147.827-37.804Q150.764-41.7512 152.407-47.0995Q154.049-52.4477 154.049-58.222Q154.049-64.0484 152.407-69.38Q150.764-74.7116 147.827-78.6503Q146.714-80.2404 144.905-80.5638Q143.095-80.8871 141.575-79.8513Q139.784-78.7182 139.499-76.7505Q139.214-74.7829 140.611-72.7588Q142.679-69.8299 143.77-66.0881Q144.862-62.3463 144.862-58.222Q144.862-54.16 143.749-50.4089Q142.636-46.6577 140.611-43.7372Q139.257-41.6716 139.52-39.7246Q139.784-37.7778 141.575-36.5579ZM161.081-23.5383Q162.697-22.4795 164.518-22.8451Q166.339-23.2108 167.472-24.8848Q172.235-31.6355 174.864-40.3031Q177.493-48.9708 177.493-58.222Q177.493-67.5253 174.864-76.2147Q172.235-84.904 167.472-91.6027Q166.339-93.2419 164.518-93.6074Q162.697-93.9731 161.081-92.9578Q159.338-91.8579 159.101-89.9237Q158.863-87.9895 160.12-86.1197Q164.05-80.4011 166.188-73.1871Q168.325-65.973 168.325-58.222Q168.325-50.4798 166.145-43.2874Q163.964-36.0951 160.12-30.3764Q158.863-28.4979 159.101-26.5731Q159.338-24.6483 161.081-23.5383Z"/>
  </g>
  <g id="Regular-M" transform="matrix(1 0 0 1 1370.85 1126)">
   <path d="M73.8 9.23994L135.093 9.23994Q140.838 9.23994 143.179 7.61095Q145.519 5.98194 145.519 2.7632Q145.519-1.96133 142.669-7.17902Q139.819-12.3968 134.47-16.9604Q129.123-21.524 121.522-24.3795Q113.922-27.2349 104.421-27.2349Q94.9197-27.2349 87.3396-24.3795Q79.7595-21.524 74.4171-16.9604Q69.0748-12.3968 66.2193-7.17902Q63.3639-1.96133 63.3639 2.7632Q63.3639 5.98194 65.6782 7.61095Q67.9926 9.23994 73.8 9.23994ZM104.442-35.9681Q109.697-35.9681 114.145-38.8183Q118.594-41.6685 121.288-46.5642Q123.982-51.4599 123.982-57.5446Q123.982-63.5555 121.283-68.306Q118.584-73.0565 114.13-75.7878Q109.675-78.5193 104.442-78.5193Q99.2494-78.5193 94.7951-75.7414Q90.3408-72.9635 87.6364-68.1819Q84.9319-63.4003 84.9423-57.4411Q84.9423-51.4082 87.6416-46.5384Q90.3408-41.6685 94.7898-38.8183Q99.2388-35.9681 104.442-35.9681ZM21.0827 9.23994L58.1021 9.23994Q56.2013 6.47287 56.288 2.57653Q56.3747-1.31979 58.0966-5.62308Q59.8185-9.92638 62.8287-13.9819Q65.8389-18.0374 69.7546-21.0713Q65.7048-23.7947 60.371-25.5876Q55.0371-27.3807 48.2218-27.3807Q39.9564-27.3807 33.3473-24.6655Q26.7382-21.9505 22.0812-17.548Q17.4242-13.1456 14.9426-7.91717Q12.4609-2.68886 12.4609 2.38937Q12.4609 5.68105 14.4484 7.4605Q16.4359 9.23994 21.0827 9.23994ZM48.2429-34.8573Q52.8123-34.8573 56.6747-37.3336Q60.5371-39.8099 62.8989-44.0825Q65.2607-48.3553 65.2607-53.6406Q65.2607-58.9039 62.8936-63.0106Q60.5265-67.1175 56.6588-69.5062Q52.7912-71.8948 48.2429-71.8948Q43.7359-71.8948 39.8424-69.4803Q35.9489-67.0658 33.5871-62.9125Q31.2253-58.7591 31.2358-53.537Q31.2358-48.3034 33.5923-44.0566Q35.9489-39.8099 39.837-37.3336Q43.7253-34.8573 48.2429-34.8573ZM140.619-37.4001Q141.832-36.571 143.36-36.8404Q144.888-37.1097 145.872-38.5186Q148.676-42.2358 150.251-47.4273Q151.824-52.6186 151.824-58.2069Q151.824-63.8575 150.251-69.023Q148.676-74.1885 145.872-77.8952Q144.888-79.3146 143.36-79.584Q141.832-79.8533 140.619-78.9726Q139.107-77.9881 138.889-76.3511Q138.672-74.7141 139.811-73.243Q141.985-70.2589 143.133-66.3792Q144.281-62.4994 144.281-58.2069Q144.281-53.9767 143.107-50.0918Q141.933-46.2068 139.811-43.2331Q138.723-41.6998 138.915-40.0938Q139.107-38.4879 140.619-37.4001ZM158.72-24.6996Q160.036-23.7669 161.559-24.0622Q163.082-24.3574 164.066-25.7663Q168.749-32.2239 171.351-40.7031Q173.953-49.1823 173.953-58.2069Q173.953-67.2938 171.351-75.7989Q168.749-84.304 164.066-90.6992Q163.082-92.067 161.559-92.3621Q160.036-92.6573 158.72-91.7765Q157.352-90.8439 157.16-89.2898Q156.968-87.7357 158.015-86.2647Q162.036-80.5823 164.229-73.306Q166.421-66.0296 166.421-58.2069Q166.421-50.3948 164.177-43.1443Q161.933-35.8938 158.015-30.2115Q156.968-28.7297 157.16-27.1809Q157.352-25.632 158.72-24.6996Z"/>
  </g>
  <g id="Light-M" transform="matrix(1 0 0 1 1074.36 1126)">
   <path d="M72.7392 8.97044L135.726 8.97044Q140.684 8.97044 142.879 7.47829Q145.074 5.98613 145.074 2.80159Q145.074-1.90568 142.249-7.09768Q139.425-12.2897 134.094-16.8277Q128.764-21.3657 121.214-24.2041Q113.665-27.0425 104.215-27.0425Q94.7656-27.0425 87.2197-24.2041Q79.6738-21.3657 74.3572-16.8277Q69.0406-12.2897 66.2022-7.09768Q63.3639-1.90568 63.3639 2.80159Q63.3639 5.98613 65.5414 7.47829Q67.7189 8.97044 72.7392 8.97044ZM104.271-35.7926Q109.56-35.7926 113.949-38.6172Q118.338-41.4418 120.955-46.2947Q123.572-51.1475 123.572-57.198Q123.572-63.0548 120.941-67.7798Q118.31-72.5047 113.907-75.2702Q109.504-78.0358 104.271-78.0358Q99.0442-78.0358 94.6412-75.2493Q90.2382-72.4628 87.5937-67.7069Q84.9491-62.9511 84.9766-57.1288Q84.9766-51.1131 87.6074-46.2775Q90.2382-41.4418 94.6272-38.6172Q99.0163-35.7926 104.271-35.7926ZM20.3128 8.97044L59.4712 8.97044Q57.5189 6.76799 57.4429 3.17107Q57.367-0.425846 58.9008-4.63497Q60.4346-8.84411 63.3249-12.9594Q66.2152-17.0747 70.2166-20.28Q66.1668-23.277 60.6704-25.2497Q55.174-27.2224 48.0166-27.2224Q39.7854-27.2224 33.2189-24.55Q26.6525-21.8776 22.0213-17.5095Q17.39-13.1414 14.9255-7.92148Q12.4609-2.70163 12.4609 2.42777Q12.4609 5.70249 14.3372 7.33647Q16.2134 8.97044 20.3128 8.97044ZM48.0719-34.699Q52.6755-34.699 56.4865-37.1495Q60.2977-39.6001 62.5995-43.8301Q64.9013-48.0602 64.9013-53.3282Q64.9013-58.4377 62.5855-62.5359Q60.2698-66.6341 56.4449-69.0569Q52.6201-71.4798 48.0719-71.4798Q43.5307-71.4798 39.6884-69.0398Q35.8462-66.5996 33.5444-62.4805Q31.2426-58.3614 31.27-53.2588Q31.27-48.0253 33.5581-43.8127Q35.8462-39.6001 39.6745-37.1495Q43.5028-34.699 48.0719-34.699ZM141.423-37.1219Q142.379-36.4639 143.557-36.6648Q144.734-36.8657 145.496-37.9326Q148.3-41.6155 149.951-46.7386Q151.601-51.8615 151.601-57.6209Q151.601-63.4425 149.951-68.5481Q148.3-73.6536 145.496-77.3092Q144.734-78.4034 143.557-78.6044Q142.379-78.8052 141.423-78.1128Q140.287-77.3506 140.122-76.09Q139.955-74.8295 140.821-73.7007Q143.285-70.3231 144.527-66.315Q145.77-62.3069 145.77-57.6209Q145.77-52.9971 144.51-48.9753Q143.25-44.9535 140.821-41.6032Q139.989-40.4123 140.138-39.1826Q140.287-37.953 141.423-37.1219ZM158.566-24.336Q159.591-23.6087 160.755-23.8268Q161.918-24.045 162.68-25.1118Q167.38-31.4326 170.059-39.9716Q172.738-48.5105 172.738-57.6209Q172.738-66.7931 170.059-75.3497Q167.38-83.9063 162.68-90.1643Q161.918-91.2242 160.755-91.4423Q159.591-91.6604 158.566-90.968Q157.506-90.2406 157.357-89.0458Q157.208-87.8511 158.033-86.7225Q162.31-80.8176 164.622-73.3103Q166.934-65.803 166.934-57.6209Q166.934-49.4667 164.588-41.9765Q162.241-34.4864 158.033-28.5816Q157.208-27.425 157.357-26.2439Q157.506-25.0629 158.566-24.336Z"/>
  </g>
  <g id="Thin-M" transform="matrix(1 0 0 1 777.948 1126)">
   <path d="M71.3362 8.61401L136.563 8.61401Q140.48 8.61401 142.483 7.30283Q144.486 5.99167 144.486 2.85238Q144.486-1.83209 141.695-6.9901Q138.904-12.148 133.596-16.6522Q128.289-21.1564 120.807-23.9722Q113.325-26.7879 103.944-26.7879Q94.5618-26.7879 87.0611-23.9722Q79.5605-21.1564 74.2779-16.6522Q68.9953-12.148 66.1796-6.9901Q63.3639-1.83209 63.3639 2.85238Q63.3639 5.99167 65.3604 7.30283Q67.357 8.61401 71.3362 8.61401ZM104.044-35.5604Q109.379-35.5604 113.688-38.3512Q117.998-41.142 120.514-45.9381Q123.029-50.7344 123.029-56.7397Q123.029-62.3926 120.489-67.0837Q117.948-71.7749 113.613-74.5856Q109.278-77.3964 104.044-77.3964Q98.7726-77.3964 94.4376-74.5986Q90.1024-71.8006 87.5372-67.0787Q84.972-62.357 85.0218-56.7156Q85.0218-50.7227 87.5622-45.9324Q90.1024-41.142 94.4122-38.3512Q98.7219-35.5604 104.044-35.5604ZM19.2946 8.61401L61.2818 8.61401Q59.2614 7.1583 58.9705 3.95739Q58.6795 0.756473 59.9645-3.32812Q61.2494-7.41273 63.9812-11.6071Q66.7129-15.8015 70.8276-19.2334Q66.7778-22.5924 61.0664-24.8027Q55.355-27.013 47.7451-27.013Q39.5591-27.013 33.0491-24.3971Q26.5392-21.7812 21.942-17.4585Q17.3448-13.1359 14.9029-7.92718Q12.4609-2.71853 12.4609 2.47855Q12.4609 5.73084 14.19 7.17242Q15.9191 8.61401 19.2946 8.61401ZM47.8457-34.4896Q52.4945-34.4896 56.2377-36.9061Q59.9809-39.3228 62.2035-43.4963Q64.426-47.6699 64.426-52.9151Q64.426-57.8211 62.1781-61.9079Q59.9302-65.9947 56.162-68.4628Q52.3939-70.931 47.8457-70.931Q43.2592-70.931 39.4848-68.457Q35.7105-65.9831 33.4879-61.9092Q31.2654-57.8353 31.3152-52.891Q31.3152-47.6573 33.5128-43.49Q35.7105-39.3228 39.4595-36.9061Q43.2085-34.4896 47.8457-34.4896ZM142.486-36.754Q143.104-36.3222 143.817-36.4327Q144.53-36.5431 144.998-37.1575Q147.803-40.7952 149.555-45.8277Q151.307-50.8602 151.307-56.8458Q151.307-62.8936 149.555-67.9199Q147.803-72.9462 144.998-76.5341Q144.53-77.1983 143.817-77.3087Q143.104-77.4191 142.486-76.9757Q141.849-76.5074 141.751-75.7448Q141.652-74.9821 142.156-74.3062Q145.004-70.4081 146.372-66.2302Q147.738-62.0523 147.738-56.8458Q147.738-51.7015 146.365-47.4987Q144.992-43.2959 142.156-39.4476Q141.663-38.7095 141.756-37.9775Q141.849-37.2456 142.486-36.754ZM158.362-23.8552Q159.002-23.3994 159.691-23.5156Q160.38-23.6319 160.847-24.2462Q165.57-30.386 168.35-39.0041Q171.132-47.6221 171.132-56.8458Q171.132-66.1309 168.35-74.7556Q165.57-83.3802 160.847-89.4569Q160.38-90.1095 159.691-90.2257Q159.002-90.342 158.362-89.8986Q157.71-89.4428 157.618-88.7232Q157.525-88.0038 158.055-87.3279Q162.672-81.1288 165.143-73.3159Q167.613-65.5031 167.613-56.8458Q167.613-48.2391 165.131-40.432Q162.648-32.625 158.055-26.4259Q157.525-25.6993 157.618-25.0048Q157.71-24.3103 158.362-23.8552Z"/>
  </g>
  <g id="Ultralight-M" transform="matrix(1 0 0 1 481.389 1126)">
   <path d="M70.6176 8.43144L136.992 8.43144Q140.376 8.43144 142.28 7.21297Q144.185 5.9945 144.185 2.87839Q144.185-1.79439 141.411-6.93499Q138.637-12.0754 133.341-16.5623Q128.046-21.0492 120.598-23.8534Q113.151-26.6575 103.805-26.6575Q94.4574-26.6575 86.9799-23.8534Q79.5025-21.0492 74.2373-16.5623Q68.9722-12.0754 66.168-6.93499Q63.3639-1.79439 63.3639 2.87839Q63.3639 5.9945 65.2677 7.21297Q67.1716 8.43144 70.6176 8.43144ZM103.929-35.4415Q109.286-35.4415 113.555-38.215Q117.824-40.9885 120.288-45.7555Q122.751-50.5228 122.751-56.505Q122.751-62.0535 120.257-66.7272Q117.763-71.401 113.463-74.235Q109.162-77.069 103.929-77.069Q98.6336-77.069 94.3333-74.2653Q90.0329-71.4614 87.5083-66.757Q84.9837-62.0527 85.045-56.504Q85.045-50.5228 87.539-45.7556Q90.0329-40.9885 94.3021-38.215Q98.5712-35.4415 103.929-35.4415ZM18.7731 8.43144L62.2092 8.43144Q60.154 7.35822 59.7529 4.36014Q59.3518 1.36205 60.5093-2.65876Q61.6668-6.67958 64.3174-10.9145Q66.9678-15.1494 71.1406-18.6973Q67.0908-22.2417 61.2692-24.5738Q55.4477-26.9058 47.6061-26.9058Q39.4432-26.9058 32.9622-24.3189Q26.4811-21.7318 21.9014-17.4324Q17.3216-13.1331 14.8913-7.93009Q12.4609-2.72719 12.4609 2.50456Q12.4609 5.74536 14.1146 7.0884Q15.7683 8.43144 18.7731 8.43144ZM47.7298-34.3824Q52.4017-34.3824 56.1102-36.7815Q59.8187-39.1807 62.0007-43.3253Q64.1826-47.47 64.1826-52.7035Q64.1826-57.5053 61.9694-61.5863Q59.7563-65.6673 56.0172-68.1585Q52.278-70.6499 47.7298-70.6499Q43.1202-70.6499 39.3806-68.1586Q35.6409-65.6673 33.459-61.6166Q31.2771-57.5659 31.3384-52.7025Q31.3384-47.4689 33.4897-43.3248Q35.6409-39.1807 39.3494-36.7815Q43.0578-34.3824 47.7298-34.3824ZM143.031-36.5656Q143.474-36.2496 143.95-36.3137Q144.426-36.3779 144.743-36.7605Q147.548-40.375 149.352-45.3612Q151.156-50.3474 151.156-56.4488Q151.156-62.6125 149.352-67.5981Q147.548-72.5838 144.743-76.1371Q144.426-76.581 143.95-76.6451Q143.474-76.7091 143.031-76.3933Q142.649-76.0756 142.586-75.5679Q142.521-75.0603 142.84-74.6163Q145.885-70.4516 147.316-66.1867Q148.747-61.922 148.747-56.4488Q148.747-51.0378 147.316-46.7424Q145.885-42.4469 142.84-38.3435Q142.521-37.8373 142.585-37.3602Q142.649-36.8833 143.031-36.5656ZM158.257-23.6089Q158.701-23.2922 159.146-23.3562Q159.592-23.4203 159.908-23.8029Q164.642-29.85 167.475-38.5085Q170.309-47.1671 170.309-56.4488Q170.309-65.7918 167.475-74.4513Q164.642-83.1108 159.908-89.0945Q159.592-89.5386 159.146-89.6026Q158.701-89.6667 158.257-89.3509Q157.814-89.0341 157.751-88.558Q157.687-88.082 158.067-87.6381Q162.858-81.2882 165.409-73.3188Q167.961-65.3496 167.961-56.4488Q167.961-47.6104 165.409-39.6409Q162.857-31.6716 158.067-25.3217Q157.687-24.8154 157.751-24.3701Q157.814-23.9248 158.257-23.6089Z"/>
  </g>
  <g id="Black-S" transform="matrix(1 0 0 1 2870.29 696)">
   <path d="M60.498 0.533897L106.494 0.533897Q112.158 0.533897 114.307-1.39482Q116.455-3.32353 116.455-6.54618Q116.455-10.1595 114.111-14.1389Q111.768-18.1184 107.422-21.5852Q103.076-25.052 96.9971-27.2004Q90.918-29.3489 83.4961-29.3489Q76.0742-29.3489 69.9951-27.2004Q63.916-25.052 59.5703-21.5852Q55.2246-18.1184 52.8809-14.1389Q50.5371-10.1595 50.5371-6.54618Q50.5371-3.32353 52.6855-1.39482Q54.834 0.533897 60.498 0.533897ZM83.4961-35.843Q88.0371-35.843 91.6748-38.1868Q95.3125-40.5305 97.4365-44.4856Q99.5605-48.4407 99.5605-53.2747Q99.5605-57.8645 97.4121-61.7708Q95.2637-65.677 91.626-68.0696Q87.9883-70.4622 83.4961-70.4622Q79.0039-70.4622 75.3418-68.0696Q71.6797-65.677 69.5557-61.7708Q67.4316-57.8645 67.4316-53.2747Q67.4805-48.4407 69.5801-44.4856Q71.6797-40.5305 75.3174-38.1868Q78.9551-35.843 83.4961-35.843ZM18.4082 0.582725L45.3613 0.582725Q43.6523-1.7122 43.2861-4.86161Q42.9199-8.01103 43.9209-11.551Q44.9219-15.0911 47.3633-18.7043Q49.8047-22.3176 53.7109-25.5891Q50.7812-27.2004 46.8018-28.2991Q42.8223-29.3977 38.4277-29.3977Q32.3242-29.3977 27.0996-27.4202Q21.875-25.4426 17.9932-22.2444Q14.1113-19.0461 11.9385-15.3108Q9.76562-11.5754 9.76562-8.05986Q9.76562-4.05595 11.6211-1.73661Q13.4766 0.582725 18.4082 0.582725ZM38.4277-35.0129Q42.3828-35.0129 45.5566-37.0637Q48.7305-39.1145 50.5859-42.5569Q52.4414-45.9993 52.4414-50.1985Q52.4414-54.2024 50.5615-57.6204Q48.6816-61.0383 45.5078-63.1135Q42.334-65.1887 38.4277-65.1887Q34.5215-65.1887 31.3477-63.1135Q28.1738-61.0383 26.3184-57.6204Q24.4629-54.2024 24.4629-50.1985Q24.5117-45.9993 26.3428-42.5569Q28.1738-39.1145 31.3232-37.0637Q34.4727-35.0129 38.4277-35.0129ZM114.795-32.9133Q117.188-31.4973 119.702-31.9612Q122.217-32.425 123.584-34.3782Q126.416-38.3821 127.979-43.1917Q129.541-48.0012 129.541-53.2747Q129.541-58.5481 127.979-63.3821Q126.416-68.2161 123.584-72.22Q122.217-74.1243 119.702-74.5881Q117.188-75.052 114.795-73.636Q112.305-72.1711 111.816-69.3391Q111.328-66.5071 113.428-62.7473Q114.648-60.6477 115.283-58.2551Q115.918-55.8626 115.918-53.2747Q115.918-50.7356 115.283-48.3186Q114.648-45.9016 113.428-43.802Q111.328-40.0911 111.816-37.2346Q112.305-34.3782 114.795-32.9133ZM135.596-21.4387Q138.037-20.1204 140.625-20.6819Q143.213-21.2434 144.678-23.5872Q148.73-30.0325 150.903-37.5764Q153.076-45.1204 153.076-53.2747Q153.076-61.429 150.903-68.9729Q148.73-76.5168 144.678-82.9622Q143.213-85.3059 140.625-85.8674Q138.037-86.429 135.596-85.1106Q132.764-83.5969 132.397-80.594Q132.031-77.5911 133.838-74.5637Q136.572-69.925 138.037-64.5051Q139.502-59.0852 139.502-53.2747Q139.502-47.4641 138.037-42.0442Q136.572-36.6243 133.838-31.9856Q132.031-28.9583 132.397-25.9797Q132.764-23.0012 135.596-21.4387Z"/>
  </g>
  <g id="Heavy-S" transform="matrix(1 0 0 1 2573.84 696)">
   <path d="M59.9909 0.349185L106.275 0.349185Q111.755 0.349185 113.846-1.44123Q115.936-3.23165 115.936-6.29296Q115.936-9.92929 113.616-13.9376Q111.295-17.9459 106.984-21.4415Q102.673-24.9371 96.6168-27.1086Q90.5607-29.2801 83.1273-29.2801Q75.6939-29.2801 69.6436-27.1086Q63.5933-24.9371 59.2822-21.4415Q54.9711-17.9459 52.6504-13.9376Q50.3297-9.92929 50.3297-6.29296Q50.3297-3.23165 52.4147-1.44123Q54.4998 0.349185 59.9909 0.349185ZM83.1273-35.8549Q87.5646-35.8549 91.1735-38.1756Q94.7824-40.4963 96.9121-44.4283Q99.0419-48.3604 99.0419-53.1828Q99.0419-57.8188 96.8935-61.6847Q94.7451-65.5506 91.1362-67.8798Q87.5273-70.209 83.1273-70.209Q78.7388-70.209 75.1113-67.8683Q71.4838-65.5276 69.354-61.6559Q67.2242-57.7842 67.2242-53.1598Q67.2615-48.3489 69.3727-44.4226Q71.4838-40.4963 75.0927-38.1756Q78.7016-35.8549 83.1273-35.8549ZM18.0509 0.386489L45.2461 0.386489Q43.5947-1.94301 43.3495-5.10394Q43.1043-8.26489 44.209-11.7761Q45.3137-15.2874 47.7494-18.7911Q50.185-22.2949 53.8838-25.3359Q50.8964-27.0394 46.8882-28.19Q42.8799-29.3404 38.3009-29.3404Q32.1052-29.3404 26.8864-27.3226Q21.6676-25.3047 17.8376-22.0431Q14.0076-18.7814 11.8866-14.9596Q9.76562-11.1378 9.76562-7.51853Q9.76562-3.84883 11.5635-1.73117Q13.3614 0.386489 18.0509 0.386489ZM38.3009-35.0133Q42.1638-35.0133 45.3088-37.041Q48.4539-39.0688 50.3151-42.4939Q52.1763-45.919 52.1763-50.1067Q52.1763-54.1567 50.2964-57.5285Q48.4165-60.9004 45.2715-62.9237Q42.1266-64.947 38.3009-64.947Q34.4869-64.947 31.3362-62.918Q28.1853-60.8889 26.3242-57.5055Q24.4629-54.1221 24.4629-50.0836Q24.5002-45.9075 26.3428-42.4881Q28.1853-39.0688 31.3174-37.041Q34.4496-35.0133 38.3009-35.0133ZM113.619-33.8932Q115.701-32.6386 117.945-33.0506Q120.189-33.4626 121.44-35.2544Q124.123-39.0048 125.599-43.6473Q127.075-48.2897 127.075-53.3327Q127.075-58.3871 125.599-63.0425Q124.123-67.6978 121.44-71.4482Q120.189-73.2027 117.945-73.6147Q115.701-74.0267 113.619-72.7605Q111.394-71.4339 110.975-68.9246Q110.556-66.4153 112.402-63.2317Q113.703-61.1206 114.39-58.5897Q115.077-56.0589 115.077-53.3327Q115.077-50.6553 114.384-48.1058Q113.692-45.5562 112.402-43.4451Q110.567-40.2874 110.98-37.7651Q111.394-35.2429 113.619-33.8932ZM132.968-22.7874Q135.11-21.5843 137.41-22.0767Q139.71-22.5691 141.036-24.6593Q144.996-30.7935 147.129-38.1184Q149.261-45.4434 149.261-53.3327Q149.261-61.2334 147.129-68.5641Q144.996-75.8948 141.036-82.0175Q139.71-84.0962 137.41-84.5885Q135.11-85.081 132.968-83.8894Q130.517-82.537 130.196-79.9144Q129.876-77.2918 131.475-74.6678Q134.279-70.0982 135.79-64.638Q137.301-59.1777 137.301-53.3327Q137.301-47.4875 135.778-42.033Q134.256-36.5786 131.475-32.009Q129.876-29.3851 130.196-26.781Q130.517-24.1771 132.968-22.7874Z"/>
  </g>
  <g id="Bold-S" transform="matrix(1 0 0 1 2277.42 696)">
   <path d="M59.4238 0.142593L106.03 0.142593Q111.303 0.142593 113.33-1.49315Q115.356-3.12889 115.356-6.00975Q115.356-9.67186 113.061-13.7124Q110.767-17.7529 106.494-21.2808Q102.221-24.8086 96.1914-27.0058Q90.1612-29.2031 82.7148-29.2031Q75.2686-29.2031 69.2505-27.0058Q63.2324-24.8086 58.9599-21.2808Q54.6875-17.7529 52.3926-13.7124Q50.0977-9.67186 50.0977-6.00975Q50.0977-3.12889 52.1118-1.49315Q54.126 0.142593 59.4238 0.142593ZM82.7148-35.8682Q87.0362-35.8682 90.6128-38.1631Q94.1894-40.458 96.3256-44.3643Q98.4619-48.2705 98.4619-53.0801Q98.4619-57.7676 96.3134-61.5884Q94.165-65.4092 90.5884-67.6675Q87.0118-69.9258 82.7148-69.9258Q78.4424-69.9258 74.8535-67.6431Q71.2647-65.3604 69.1284-61.5274Q66.9921-57.6943 66.9921-53.0313Q67.0166-48.2461 69.1407-44.3521Q71.2647-40.458 74.8413-38.1631Q78.418-35.8682 82.7148-35.8682ZM17.6513 0.167007L45.1172 0.167007Q43.5303-2.20115 43.4204-5.37498Q43.3105-8.54881 44.5312-12.0278Q45.7519-15.5069 48.1812-18.8882Q50.6104-22.2695 54.0772-25.0527Q51.0254-26.8594 46.9849-28.0679Q42.9443-29.2764 38.1592-29.2764Q31.8604-29.2764 26.648-27.2134Q21.4356-25.1504 17.6636-21.8179Q13.8916-18.4853 11.8287-14.5669Q9.76562-10.6484 9.76562-6.91307Q9.76562-3.61717 11.499-1.72508Q13.2324 0.167007 17.6513 0.167007ZM38.1592-35.0137Q41.9189-35.0137 45.0317-37.0156Q48.1446-39.0176 50.0122-42.4233Q51.8799-45.8291 51.8799-50.0039Q51.8799-54.1055 50-57.4258Q48.1201-60.7461 45.0073-62.7114Q41.8945-64.6767 38.1592-64.6767Q34.4482-64.6767 31.3232-62.6992Q28.1983-60.7217 26.3306-57.377Q24.4629-54.0322 24.4629-49.9551Q24.4873-45.8047 26.3428-42.4111Q28.1983-39.0176 31.311-37.0156Q34.4238-35.0137 38.1592-35.0137ZM112.305-34.9892Q114.038-33.915 115.979-34.2691Q117.92-34.623 119.043-36.2344Q121.558-39.7012 122.937-44.1568Q124.317-48.6123 124.317-53.3975Q124.317-58.207 122.937-62.6626Q121.558-67.1182 119.043-70.585Q117.92-72.1719 115.979-72.5259Q114.038-72.8799 112.305-71.7813Q110.376-70.6094 110.034-68.4609Q109.692-66.3125 111.255-63.7734Q112.647-61.6494 113.391-58.9639Q114.136-56.2783 114.136-53.3975Q114.136-50.5654 113.379-47.8677Q112.622-45.1699 111.255-43.0459Q109.716-40.5069 110.046-38.3584Q110.376-36.21 112.305-34.9892ZM130.029-24.2959Q131.836-23.2217 133.813-23.6367Q135.791-24.0518 136.963-25.8584Q140.82-31.6445 142.907-38.7246Q144.995-45.8047 144.995-53.3975Q144.995-61.0147 142.907-68.1069Q140.82-75.1992 136.963-80.961Q135.791-82.7432 133.813-83.1582Q131.836-83.5733 130.029-82.5234Q128.003-81.3515 127.734-79.1543Q127.466-76.957 128.833-74.7842Q131.714-70.292 133.276-64.7866Q134.839-59.2812 134.839-53.3975Q134.839-47.5137 133.252-42.0205Q131.665-36.5274 128.833-32.0352Q127.466-29.8623 127.734-27.6772Q128.003-25.4922 130.029-24.2959Z"/>
  </g>
  <g id="Semibold-S" transform="matrix(1 0 0 1 1980.9 696)">
   <path d="M59.0328 0.000158284L105.861 0.000158284Q110.992 0.000158284 112.975-1.52894Q114.957-3.05805 114.957-5.81449Q114.957-9.49437 112.679-13.5571Q110.403-17.6199 106.156-21.1699Q101.91-24.7199 95.8981-26.935Q89.8857-29.15 82.4305-29.15Q74.9753-29.15 68.9795-26.935Q62.9836-24.7199 58.7378-21.1699Q54.492-17.6199 52.2149-13.5571Q49.9377-9.49437 49.9377-5.81449Q49.9377-3.05805 51.903-1.52894Q53.8683 0.000158284 59.0328 0.000158284ZM82.4305-35.8773Q86.6718-35.8773 90.2262-38.1545Q93.7807-40.4315 95.9213-44.3201Q98.062-48.2085 98.062-53.0092Q98.062-57.7323 95.9135-61.522Q93.7651-65.3117 90.2107-67.5211Q86.6563-69.7306 82.4305-69.7306Q78.238-69.7306 74.6758-67.4878Q71.1136-65.2451 68.9729-61.4387Q66.8322-57.6323 66.8322-52.9426Q66.8477-48.1753 68.9807-44.3034Q71.1136-40.4315 74.668-38.1545Q78.2225-35.8773 82.4305-35.8773ZM17.3759 0.0156856L45.0283 0.0156856Q43.4858-2.37914 43.4693-5.56185Q43.4527-8.74457 44.7534-12.2014Q46.0541-15.6582 48.4788-18.9551Q50.9036-22.252 54.2105-24.8575Q51.1142-26.7352 47.0515-27.9837Q42.9888-29.2322 38.0614-29.2322Q31.6915-29.2322 26.4835-27.1381Q21.2756-25.044 17.5436-21.6626Q13.8116-18.2812 11.7887-14.2961Q9.76562-10.311 9.76562-6.49565Q9.76562-3.45746 11.4546-1.72088Q13.1436 0.0156856 17.3759 0.0156856ZM38.0614-35.0139Q41.7501-35.0139 44.8406-36.9981Q47.9313-38.9823 49.8034-42.3747Q51.6755-45.7671 51.6755-49.9331Q51.6755-54.0702 49.7956-57.3549Q47.9157-60.6397 44.8251-62.565Q41.7346-64.4903 38.0614-64.4903Q34.4216-64.4903 31.3144-62.5484Q28.2071-60.6064 26.335-57.2883Q24.4629-53.9702 24.4629-49.8664Q24.4784-45.7339 26.3428-42.358Q28.2071-38.9823 31.3066-36.9981Q34.4061-35.0139 38.0614-35.0139ZM111.398-35.7448Q112.892-34.795 114.624-35.1091Q116.356-35.4231 117.39-36.91Q119.789-40.1813 121.102-44.508Q122.415-48.8347 122.415-53.4421Q122.415-58.0828 121.102-62.4007Q119.789-66.7185 117.39-69.9898Q116.356-71.4612 114.624-71.7752Q112.892-72.0892 111.398-71.1061Q109.674-70.0409 109.385-68.1412Q109.097-66.2417 110.464-64.1469Q111.918-62.014 112.702-59.2218Q113.487-56.4296 113.487-53.4421Q113.487-50.5034 112.686-47.7035Q111.885-44.9036 110.464-42.7706Q109.13-40.6582 109.402-38.7674Q109.674-36.8767 111.398-35.7448ZM128.003-25.3359Q129.579-24.3505 131.334-24.7122Q133.089-25.074 134.155-26.6851Q137.941-32.2313 139.997-39.1425Q142.054-46.0538 142.054-53.4421Q142.054-60.8638 139.997-67.7917Q137.941-74.7195 134.155-80.2325Q133.089-81.8103 131.334-82.172Q129.579-82.5338 128.003-81.5817Q126.27-80.5342 126.037-78.6302Q125.804-76.7262 127.011-74.8644Q129.945-70.4255 131.544-64.8891Q133.142-59.3525 133.142-53.4421Q133.142-47.5317 131.51-42.0119Q129.879-36.4921 127.011-32.0532Q125.804-30.1914 126.037-28.2951Q126.27-26.3989 128.003-25.3359Z"/>
  </g>
  <g id="Medium-S" transform="matrix(1 0 0 1 1684.34 696)">
   <path d="M58.7363-0.107842L105.733-0.107842Q110.757-0.107842 112.706-1.55608Q114.653-3.00433 114.653-5.66644Q114.653-9.3598 112.39-13.4394Q110.126-17.519 105.9-21.0859Q101.675-24.6527 95.6758-26.8812Q89.6768-29.1098 82.2149-29.1098Q74.7529-29.1098 68.774-26.8812Q62.7949-24.6527 58.5693-21.0859Q54.3438-17.519 52.0801-13.4394Q49.8164-9.3598 49.8164-5.66644Q49.8164-3.00433 51.7446-1.55608Q53.6729-0.107842 58.7363-0.107842ZM82.2149-35.8842Q86.3955-35.8842 89.9331-38.1479Q93.4707-40.4115 95.6147-44.2866Q97.7588-48.1616 97.7588-52.9555Q97.7588-57.7055 95.6103-61.4717Q93.4619-65.2377 89.9243-67.4101Q86.3868-69.5825 82.2149-69.5825Q78.083-69.5825 74.541-67.3701Q70.999-65.1577 68.855-61.3715Q66.7109-57.5854 66.7109-52.8754Q66.7197-48.1215 68.8594-44.2666Q70.999-40.4115 74.5366-38.1479Q78.0743-35.8842 82.2149-35.8842ZM17.167-0.0990526L44.9609-0.0990526Q43.4521-2.51409 43.5064-5.70355Q43.5606-8.893 44.9219-12.3329Q46.2832-15.7729 48.7046-19.0058Q51.126-22.2387 54.3116-24.7094Q51.1816-26.6411 47.1021-27.9198Q43.0225-29.1987 37.9873-29.1987Q31.5635-29.1987 26.3589-27.081Q21.1543-24.9633 17.4527-21.5449Q13.751-18.1264 11.7583-14.0907Q9.76562-10.0551 9.76562-6.17913Q9.76562-3.33636 11.4209-1.7177Q13.0762-0.0990526 17.167-0.0990526ZM37.9873-35.0141Q41.6221-35.0141 44.6958-36.9848Q47.7695-38.9555 49.645-42.3378Q51.5205-45.7202 51.5205-49.8793Q51.5205-54.0434 49.6406-57.3012Q47.7607-60.559 44.687-62.454Q41.6133-64.349 37.9873-64.349Q34.4014-64.349 31.3076-62.434Q28.2139-60.519 26.3384-57.2211Q24.4629-53.9233 24.4629-49.7992Q24.4717-45.6801 26.3428-42.3178Q28.2139-38.9555 31.3032-36.9848Q34.3926-35.0141 37.9873-35.0141ZM110.711-36.3178Q112.023-35.4623 113.596-35.7461Q115.17-36.0297 116.137-37.4223Q118.448-40.5453 119.711-44.7744Q120.973-49.0033 120.973-53.476Q120.973-57.9887 119.711-62.2021Q118.448-66.4155 116.137-69.5385Q115.17-70.9223 113.596-71.206Q112.023-71.4897 110.711-70.5942Q109.141-69.6098 108.894-67.8988Q108.646-66.1879 109.864-64.4301Q111.366-62.2905 112.18-59.4174Q112.996-56.5443 112.996-53.476Q112.996-50.4565 112.16-47.579Q111.325-44.7016 109.864-42.5619Q108.685-40.7729 108.913-39.0775Q109.141-37.3823 110.711-36.3178ZM126.467-26.1244Q127.867-25.2064 129.454-25.5278Q131.041-25.8491 132.025-27.312Q135.758-32.6762 137.79-39.4594Q139.823-46.2426 139.823-53.476Q139.823-60.7495 137.79-67.5527Q135.758-74.3558 132.025-79.6801Q131.041-81.103 129.454-81.4242Q127.867-81.7456 126.467-80.8676Q124.956-79.9144 124.75-78.2328Q124.544-76.5512 125.63-74.9252Q128.604-70.5268 130.23-64.9668Q131.855-59.4066 131.855-53.476Q131.855-47.5454 130.19-42.0053Q128.525-36.4653 125.63-32.0669Q124.544-30.4409 124.75-28.7636Q124.956-27.0864 126.467-26.1244Z"/>
  </g>
  <g id="Regular-S" transform="matrix(1 0 0 1 1387.83 696)">
   <path d="M58.3496-0.248711L105.566-0.248711Q110.449-0.248711 112.354-1.59148Q114.258-2.93426 114.258-5.47332Q114.258-9.18426 112.012-13.2858Q109.766-17.3874 105.566-20.9763Q101.367-24.5651 95.3857-26.8112Q89.4043-29.0573 81.9336-29.0573Q74.4629-29.0573 68.5059-26.8112Q62.5488-24.5651 58.3496-20.9763Q54.1504-17.3874 51.9043-13.2858Q49.6582-9.18426 49.6582-5.47332Q49.6582-2.93426 51.5381-1.59148Q53.418-0.248711 58.3496-0.248711ZM81.9336-35.8933Q86.0352-35.8933 89.5508-38.1394Q93.0664-40.3854 95.2148-44.2429Q97.3633-48.1003 97.3633-52.8854Q97.3633-57.6706 95.2148-61.406Q93.0664-65.1413 89.5508-67.2653Q86.0352-69.3894 81.9336-69.3894Q77.8809-69.3894 74.3652-67.2165Q70.8496-65.0437 68.7012-61.2839Q66.5527-57.5241 66.5527-52.7878Q66.5527-48.0515 68.7012-44.2185Q70.8496-40.3854 74.3652-38.1394Q77.8809-35.8933 81.9336-35.8933ZM16.8945-0.248711L44.873-0.248711Q43.4082-2.69011 43.5547-5.88836Q43.7012-9.0866 45.1416-12.5046Q46.582-15.9226 48.999-19.072Q51.416-22.2214 54.4434-24.5163Q51.2695-26.5183 47.168-27.8366Q43.0664-29.155 37.8906-29.155Q31.3965-29.155 26.1963-27.0065Q20.9961-24.8581 17.334-21.3913Q13.6719-17.9245 11.7188-13.8229Q9.76562-9.72136 9.76562-5.76629Q9.76562-3.1784 11.377-1.71355Q12.9883-0.248711 16.8945-0.248711ZM37.8906-35.0144Q41.4551-35.0144 44.5068-36.9675Q47.5586-38.9206 49.4385-42.2897Q51.3184-45.6589 51.3184-49.8093Q51.3184-54.0085 49.4385-57.2311Q47.5586-60.4538 44.5068-62.3093Q41.4551-64.1647 37.8906-64.1647Q34.375-64.1647 31.2988-62.2849Q28.2227-60.405 26.3428-57.1335Q24.4629-53.862 24.4629-49.7116Q24.4629-45.6101 26.3428-42.2653Q28.2227-38.9206 31.2988-36.9675Q34.375-35.0144 37.8906-35.0144ZM109.814-37.0651Q110.889-36.3327 112.256-36.5769Q113.623-36.821 114.502-38.0905Q116.699-41.0202 117.896-45.1218Q119.092-49.2233 119.092-53.5202Q119.092-57.8659 117.896-61.9431Q116.699-66.0202 114.502-68.9499Q113.623-70.2194 112.256-70.4636Q110.889-70.7077 109.814-69.9265Q108.447-69.0476 108.252-67.5827Q108.057-66.1179 109.082-64.7995Q110.645-62.6511 111.499-59.6726Q112.354-56.694 112.354-53.5202Q112.354-50.3952 111.475-47.4167Q110.596-44.4382 109.082-42.2897Q108.105-40.9226 108.276-39.4821Q108.447-38.0417 109.814-37.0651ZM124.463-27.153Q125.635-26.3229 127.002-26.5915Q128.369-26.8601 129.248-28.1296Q132.91-33.2565 134.912-39.8728Q136.914-46.489 136.914-53.5202Q136.914-60.6003 134.912-67.2409Q132.91-73.8815 129.248-78.9597Q128.369-80.1804 127.002-80.4489Q125.635-80.7175 124.463-79.9362Q123.242-79.1061 123.071-77.7145Q122.9-76.3229 123.828-75.0046Q126.855-70.6589 128.516-65.0681Q130.176-59.4772 130.176-53.5202Q130.176-47.5632 128.467-41.9968Q126.758-36.4304 123.828-32.0847Q122.9-30.7663 123.071-29.3747Q123.242-27.9831 124.463-27.153Z"/>
  </g>
  <g id="Light-S" transform="matrix(1 0 0 1 1091.32 696)">
   <path d="M57.4112-0.487115L106.126-0.487115Q110.313-0.487115 112.089-1.70884Q113.865-2.93056 113.865-5.43936Q113.865-9.13504 111.641-13.2138Q109.418-17.2926 105.233-20.8589Q101.049-24.4251 95.1132-26.6561Q89.1772-28.887 81.752-28.887Q74.3266-28.887 68.3998-26.6561Q62.473-24.4251 58.2966-20.8589Q54.1201-17.2926 51.8892-13.2138Q49.6582-9.13504 49.6582-5.43936Q49.6582-2.93056 51.417-1.70884Q53.1759-0.487115 57.4112-0.487115ZM81.7823-35.738Q85.9141-35.738 89.3767-37.9615Q92.8393-40.1849 94.9197-44.0044Q97.0001-47.824 97.0001-52.5788Q97.0001-57.2277 94.9122-60.9404Q92.8243-64.6531 89.3541-66.8074Q85.8839-68.9617 81.7823-68.9617Q77.6993-68.9617 74.229-66.7812Q70.7588-64.6008 68.6634-60.8637Q66.568-57.1267 66.583-52.5115Q66.583-47.7904 68.6709-43.9877Q70.7588-40.1849 74.2214-37.9615Q77.684-35.738 81.7823-35.738ZM16.2135-0.487115L46.0841-0.487115Q44.5737-2.42905 44.5764-5.36243Q44.5791-8.2958 45.853-11.6305Q47.127-14.9652 49.438-18.1675Q51.7489-21.3698 54.8521-23.8163Q51.6782-26.0604 47.4329-27.5376Q43.1875-29.015 37.709-29.015Q31.2452-29.015 26.0827-26.9043Q20.9203-24.7936 17.281-21.3572Q13.6416-17.9208 11.7037-13.8267Q9.76562-9.73267 9.76562-5.73233Q9.76562-3.15944 11.2786-1.82328Q12.7915-0.487115 16.2135-0.487115ZM37.7393-34.8744Q41.334-34.8744 44.3404-36.8047Q47.3468-38.7351 49.1736-42.0664Q51.0005-45.3978 51.0005-49.533Q51.0005-53.5961 49.166-56.8111Q47.3315-60.0262 44.3176-61.9119Q41.3038-63.7976 37.7393-63.7976Q34.1934-63.7976 31.1626-61.8951Q28.1319-59.9926 26.305-56.7514Q24.4782-53.5101 24.4932-49.4655Q24.4932-45.364 26.3125-42.0495Q28.1319-38.7351 31.155-36.8047Q34.1782-34.8744 37.7393-34.8744ZM110.525-36.819Q111.373-36.2379 112.43-36.4216Q113.487-36.6052 114.169-37.5721Q116.366-40.4715 117.631-44.5126Q118.895-48.5536 118.895-53.0018Q118.895-57.4988 117.631-61.5229Q116.366-65.547 114.169-68.4315Q113.487-69.4133 112.43-69.597Q111.373-69.7806 110.525-69.1659Q109.492-68.4836 109.342-67.3518Q109.192-66.22 109.975-65.2045Q111.795-62.7079 112.733-59.6158Q113.671-56.5237 113.671-53.0018Q113.671-49.5286 112.716-46.4291Q111.761-43.3295 109.975-40.8479Q109.225-39.7836 109.358-38.676Q109.492-37.5685 110.525-36.819ZM124.327-26.8314Q125.241-26.1829 126.291-26.3833Q127.34-26.5838 128.022-27.5506Q131.699-32.5565 133.769-39.2257Q135.839-45.8948 135.839-53.0018Q135.839-60.1574 133.769-66.8435Q131.699-73.5296 128.022-78.4865Q127.34-79.4348 126.291-79.6352Q125.241-79.8356 124.327-79.2209Q123.378-78.5724 123.245-77.4987Q123.112-76.425 123.843-75.4096Q127.097-70.867 128.864-65.0719Q130.63-59.2767 130.63-53.0018Q130.63-46.7421 128.83-40.9637Q127.03-35.1854 123.843-30.6428Q123.112-29.6121 123.245-28.5459Q123.378-27.4797 124.327-26.8314Z"/>
  </g>
  <g id="Thin-S" transform="matrix(1 0 0 1 794.867 696)">
   <path d="M56.1701-0.802424L106.867-0.802424Q110.132-0.802424 111.739-1.86404Q113.344-2.92566 113.344-5.39443Q113.344-9.06994 111.15-13.1187Q108.957-17.1673 104.793-20.7036Q100.629-24.2399 94.7529-26.4509Q88.8768-28.6618 81.5119-28.6618Q74.1463-28.6618 68.2596-26.4509Q62.3728-24.2399 58.2264-20.7036Q54.0801-17.1673 51.8692-13.1187Q49.6582-9.06994 49.6582-5.39443Q49.6582-2.92566 51.2569-1.86404Q52.8557-0.802424 56.1701-0.802424ZM81.5821-35.5326Q85.754-35.5326 89.1464-37.7261Q92.5389-39.9196 94.5294-43.689Q96.5198-47.4585 96.5198-52.1734Q96.5198-56.6419 94.5119-60.3247Q92.5041-64.0075 89.0939-66.2018Q85.6837-68.3961 81.5821-68.3961Q77.4591-68.3961 74.0489-66.2056Q70.6387-64.015 68.6135-60.308Q66.5882-56.6012 66.623-52.146Q66.623-47.4451 68.6309-43.6824Q70.6387-39.9196 74.0312-37.7261Q77.4237-35.5326 81.5821-35.5326ZM15.3127-0.802424L47.6858-0.802424Q46.1152-2.08377 45.9277-4.66684Q45.7401-7.2499 46.794-10.4744Q47.8478-13.699 50.0185-16.9712Q52.1892-20.2435 55.3926-22.8904Q52.2187-25.4547 47.7832-27.1422Q43.3476-28.8298 37.4689-28.8298Q31.045-28.8298 25.9325-26.7691Q20.82-24.7083 17.2108-21.3121Q13.6016-17.9159 11.6837-13.8317Q9.76562-9.74761 9.76562-5.6874Q9.76562-3.13437 11.1484-1.96839Q12.5311-0.802424 15.3127-0.802424ZM37.5392-34.6892Q41.1739-34.6892 44.1202-36.5894Q47.0666-38.4897 48.8233-41.7711Q50.5801-45.0526 50.5801-49.1675Q50.5801-53.0507 48.8056-56.2556Q47.0311-59.4606 44.0674-61.3863Q41.1036-63.3121 37.5392-63.3121Q33.9533-63.3121 30.9825-61.3796Q28.0118-59.4472 26.2551-56.246Q24.4984-53.0448 24.5332-49.1401Q24.5332-45.0385 26.2725-41.7641Q28.0118-38.4897 30.9648-36.5894Q33.9178-34.6892 37.5392-34.6892ZM111.466-36.4936Q112.014-36.1126 112.66-36.2162Q113.306-36.3198 113.729-36.8864Q115.926-39.7458 117.281-43.7068Q118.634-47.6678 118.634-52.3161Q118.634-57.0132 117.281-60.9672Q115.926-64.9212 113.729-67.7458Q113.306-68.3472 112.66-68.4509Q112.014-68.5544 111.466-68.16Q110.873-67.7377 110.784-67.0463Q110.693-66.355 111.156-65.7401Q113.316-62.783 114.364-59.5408Q115.412-56.2985 115.412-52.3161Q115.412-48.3825 114.357-45.1228Q113.303-41.8632 111.156-38.9409Q110.706-38.2773 110.79-37.6099Q110.873-36.9427 111.466-36.4936ZM124.146-26.4061Q124.721-25.9977 125.35-26.108Q125.979-26.2183 126.401-26.7849Q130.097-31.6307 132.257-38.3698Q134.418-45.1088 134.418-52.3161Q134.418-59.5716 132.257-66.318Q130.097-73.0643 126.401-77.8607Q125.979-78.4488 125.35-78.559Q124.721-78.6693 124.146-78.2749Q123.559-77.8666 123.476-77.2133Q123.392-76.56 123.864-75.9452Q127.418-71.1423 129.324-65.0769Q131.23-59.0114 131.23-52.3161Q131.23-45.6562 129.311-39.5974Q127.391-33.5387 123.864-28.7359Q123.392-28.0855 123.476-27.4497Q123.559-26.8138 124.146-26.4061Z"/>
  </g>
  <g id="Ultralight-S" transform="matrix(1 0 0 1 498.29 696)">
   <path d="M55.5344-0.963924L107.246-0.963924Q110.04-0.963924 111.559-1.94354Q113.078-2.92315 113.078-5.37142Q113.078-9.03659 110.899-13.0699Q108.721-17.1031 104.567-20.6241Q100.414-24.1451 94.5683-26.3458Q88.723-28.5465 81.3889-28.5465Q74.054-28.5465 68.1877-26.3458Q62.3215-24.1451 58.1905-20.6241Q54.0596-17.1031 51.8589-13.0699Q49.6582-9.03659 49.6582-5.37142Q49.6582-2.92315 51.1749-1.94354Q52.6917-0.963924 55.5344-0.963924ZM81.4796-35.4274Q85.672-35.4274 89.0285-37.6056Q92.3851-39.7838 94.3295-43.5275Q96.2738-47.2713 96.2738-51.9657Q96.2738-56.3419 94.3069-60.0093Q92.3401-63.6768 88.9606-65.8916Q85.5812-68.1064 81.4796-68.1064Q77.3361-68.1064 73.9567-65.9107Q70.5772-63.7149 68.5879-60.0234Q66.5985-56.332 66.6435-51.9588Q66.6435-47.2682 68.6104-43.526Q70.5772-39.7838 73.9338-37.6056Q77.2903-35.4274 81.4796-35.4274ZM14.8514-0.963924L48.5062-0.963924Q46.9048-1.90692 46.6198-4.31056Q46.3348-6.7142 47.2759-9.8823Q48.217-13.0504 50.3159-16.3585Q52.4147-19.6666 55.6694-22.4162Q52.4956-25.1445 47.9626-26.9397Q43.4296-28.7349 37.3459-28.7349Q30.9425-28.7349 25.8556-26.6998Q20.7687-24.6646 17.1749-21.289Q13.5811-17.9134 11.6734-13.8343Q9.76562-9.75527 9.76562-5.66439Q9.76562-3.12152 11.0817-2.04272Q12.3978-0.963924 14.8514-0.963924ZM37.4367-34.5943Q41.0919-34.5943 44.0075-36.4791Q46.9231-38.364 48.6439-41.6198Q50.3647-44.8757 50.3647-48.9803Q50.3647-52.7713 48.621-55.9711Q46.8773-59.1709 43.9392-61.1171Q41.0011-63.0634 37.4367-63.0634Q33.8303-63.0634 30.8903-61.1156Q27.9503-59.1678 26.2295-55.9871Q24.5087-52.8064 24.5537-48.9734Q24.5537-44.8718 26.252-41.6179Q27.9503-38.364 30.8674-36.4791Q33.7845-34.5943 37.4367-34.5943ZM111.948-36.3269Q112.342-36.0484 112.778-36.111Q113.214-36.1736 113.503-36.5352Q115.701-39.3741 117.101-43.2941Q118.501-47.2141 118.501-51.9649Q118.501-56.7645 117.101-60.6826Q115.701-64.6007 113.503-67.3946Q113.214-67.8012 112.778-67.8638Q112.342-67.9263 111.948-67.6448Q111.581-67.3557 111.522-66.8899Q111.462-66.4241 111.761-66.0144Q114.095-62.8215 115.2-59.5023Q116.304-56.1832 116.304-51.9649Q116.304-47.7954 115.198-44.4538Q114.092-41.1121 111.761-37.9642Q111.465-37.5057 111.523-37.0639Q111.581-36.6222 111.948-36.3269ZM124.054-26.1882Q124.454-25.9029 124.868-25.967Q125.282-26.0311 125.57-26.3927Q129.277-31.1565 131.483-37.9314Q133.69-44.7063 133.69-51.9649Q133.69-59.2716 131.483-66.0488Q129.277-72.8259 125.57-77.5401Q125.282-77.9437 124.868-78.0078Q124.454-78.0719 124.054-77.7904Q123.651-77.5051 123.594-77.0671Q123.536-76.6292 123.874-76.2195Q127.582-71.2833 129.56-65.0794Q131.538-58.8756 131.538-51.9649Q131.538-45.1 129.557-38.8976Q127.575-32.6953 123.874-27.7591Q123.536-27.3036 123.594-26.8882Q123.651-26.4728 124.054-26.1882Z"/>
  </g>
 </g>
</svg>
