<?xml version="1.0" encoding="UTF-8"?>
<!--Generator: Apple Native CoreSVG 175-->
<!DOCTYPE svg
PUBLIC "-//W3C//DTD SVG 1.1//EN"
       "http://www.w3.org/Graphics/SVG/1.1/DTD/svg11.dtd">
<svg version="1.1" xmlns="http://www.w3.org/2000/svg" xmlns:xlink="http://www.w3.org/1999/xlink" width="3300" height="2200">
 <!--glyph: "", point size: 100.0, font version: "17.0d12e1", template writer version: "65.1"-->
 <g id="Notes">
  <rect height="2200" id="artboard" style="fill:white;opacity:1" width="3300" x="0" y="0"/>
  <line style="fill:none;stroke:black;opacity:1;stroke-width:0.5;" x1="263" x2="3036" y1="292" y2="292"/>
  <text style="stroke:none;fill:black;font-family:sans-serif;font-size:13;font-weight:bold;" transform="matrix(1 0 0 1 263 322)">Weight/Scale Variations</text>
  <text style="stroke:none;fill:black;font-family:sans-serif;font-size:13;text-anchor:middle;" transform="matrix(1 0 0 1 559.711 322)">Ultralight</text>
  <text style="stroke:none;fill:black;font-family:sans-serif;font-size:13;text-anchor:middle;" transform="matrix(1 0 0 1 856.422 322)">Thin</text>
  <text style="stroke:none;fill:black;font-family:sans-serif;font-size:13;text-anchor:middle;" transform="matrix(1 0 0 1 1153.13 322)">Light</text>
  <text style="stroke:none;fill:black;font-family:sans-serif;font-size:13;text-anchor:middle;" transform="matrix(1 0 0 1 1449.84 322)">Regular</text>
  <text style="stroke:none;fill:black;font-family:sans-serif;font-size:13;text-anchor:middle;" transform="matrix(1 0 0 1 1746.56 322)">Medium</text>
  <text style="stroke:none;fill:black;font-family:sans-serif;font-size:13;text-anchor:middle;" transform="matrix(1 0 0 1 2043.27 322)">Semibold</text>
  <text style="stroke:none;fill:black;font-family:sans-serif;font-size:13;text-anchor:middle;" transform="matrix(1 0 0 1 2339.98 322)">Bold</text>
  <text style="stroke:none;fill:black;font-family:sans-serif;font-size:13;text-anchor:middle;" transform="matrix(1 0 0 1 2636.69 322)">Heavy</text>
  <text style="stroke:none;fill:black;font-family:sans-serif;font-size:13;text-anchor:middle;" transform="matrix(1 0 0 1 2933.4 322)">Black</text>
  <line style="fill:none;stroke:black;opacity:1;stroke-width:0.5;" x1="263" x2="3036" y1="1903" y2="1903"/>
  <g transform="matrix(1 0 0 1 263 1933)">
   <path d="M9.24805 0.830078Q10.8691 0.830078 12.2949 0.214844Q13.7207-0.400391 14.8096-1.49414Q15.8984-2.58789 16.5186-4.01367Q17.1387-5.43945 17.1387-7.05078Q17.1387-8.66211 16.5186-10.0879Q15.8984-11.5137 14.8047-12.6074Q13.7109-13.7012 12.2852-14.3164Q10.8594-14.9316 9.23828-14.9316Q7.62695-14.9316 6.20117-14.3164Q4.77539-13.7012 3.69141-12.6074Q2.60742-11.5137 1.9873-10.0879Q1.36719-8.66211 1.36719-7.05078Q1.36719-5.43945 1.9873-4.01367Q2.60742-2.58789 3.69629-1.49414Q4.78516-0.400391 6.21094 0.214844Q7.63672 0.830078 9.24805 0.830078ZM9.24805-0.654297Q7.91992-0.654297 6.7627-1.14746Q5.60547-1.64062 4.73145-2.51953Q3.85742-3.39844 3.36426-4.56055Q2.87109-5.72266 2.87109-7.05078Q2.87109-8.37891 3.35938-9.54102Q3.84766-10.7031 4.72168-11.582Q5.5957-12.4609 6.75293-12.9541Q7.91016-13.4473 9.23828-13.4473Q10.5762-13.4473 11.7334-12.9541Q12.8906-12.4609 13.7695-11.582Q14.6484-10.7031 15.1465-9.54102Q15.6445-8.37891 15.6445-7.05078Q15.6445-5.72266 15.1514-4.56055Q14.6582-3.39844 13.7842-2.51953Q12.9102-1.64062 11.748-1.14746Q10.5859-0.654297 9.24805-0.654297ZM5.6543-7.05078Q5.6543-6.72852 5.85938-6.52832Q6.06445-6.32812 6.40625-6.32812L8.51562-6.32812L8.51562-4.20898Q8.51562-3.88672 8.71094-3.67676Q8.90625-3.4668 9.23828-3.4668Q9.56055-3.4668 9.77051-3.67676Q9.98047-3.88672 9.98047-4.20898L9.98047-6.32812L12.0898-6.32812Q12.4219-6.32812 12.627-6.52832Q12.832-6.72852 12.832-7.05078Q12.832-7.38281 12.627-7.58789Q12.4219-7.79297 12.0898-7.79297L9.98047-7.79297L9.98047-9.90234Q9.98047-10.2344 9.77051-10.4443Q9.56055-10.6543 9.23828-10.6543Q8.90625-10.6543 8.71094-10.4443Q8.51562-10.2344 8.51562-9.90234L8.51562-7.79297L6.40625-7.79297Q6.06445-7.79297 5.85938-7.58789Q5.6543-7.38281 5.6543-7.05078Z"/>
  </g>
  <g transform="matrix(1 0 0 1 281.867 1933)">
   <path d="M11.709 2.91016Q13.75 2.91016 15.5518 2.12891Q17.3535 1.34766 18.7305-0.0292969Q20.1074-1.40625 20.8887-3.20801Q21.6699-5.00977 21.6699-7.05078Q21.6699-9.0918 20.8887-10.8936Q20.1074-12.6953 18.7305-14.0723Q17.3535-15.4492 15.5469-16.2305Q13.7402-17.0117 11.6992-17.0117Q9.6582-17.0117 7.85645-16.2305Q6.05469-15.4492 4.68262-14.0723Q3.31055-12.6953 2.5293-10.8936Q1.74805-9.0918 1.74805-7.05078Q1.74805-5.00977 2.5293-3.20801Q3.31055-1.40625 4.6875-0.0292969Q6.06445 1.34766 7.86621 2.12891Q9.66797 2.91016 11.709 2.91016ZM11.709 1.25Q9.98047 1.25 8.47656 0.605469Q6.97266-0.0390625 5.83496-1.17676Q4.69727-2.31445 4.05762-3.81836Q3.41797-5.32227 3.41797-7.05078Q3.41797-8.7793 4.05762-10.2832Q4.69727-11.7871 5.83008-12.9297Q6.96289-14.0723 8.4668-14.7119Q9.9707-15.3516 11.6992-15.3516Q13.4277-15.3516 14.9316-14.7119Q16.4355-14.0723 17.5781-12.9297Q18.7207-11.7871 19.3652-10.2832Q20.0098-8.7793 20.0098-7.05078Q20.0098-5.32227 19.3701-3.81836Q18.7305-2.31445 17.5928-1.17676Q16.4551-0.0390625 14.9463 0.605469Q13.4375 1.25 11.709 1.25ZM7.17773-7.05078Q7.17773-6.69922 7.41211-6.47461Q7.64648-6.25 8.01758-6.25L10.8887-6.25L10.8887-3.36914Q10.8887-2.99805 11.1133-2.76855Q11.3379-2.53906 11.6895-2.53906Q12.0605-2.53906 12.29-2.76855Q12.5195-2.99805 12.5195-3.36914L12.5195-6.25L15.4004-6.25Q15.7715-6.25 16.001-6.47461Q16.2305-6.69922 16.2305-7.05078Q16.2305-7.42188 16.001-7.65137Q15.7715-7.88086 15.4004-7.88086L12.5195-7.88086L12.5195-10.752Q12.5195-11.1328 12.29-11.3623Q12.0605-11.5918 11.6895-11.5918Q11.3379-11.5918 11.1133-11.3574Q10.8887-11.123 10.8887-10.752L10.8887-7.88086L8.01758-7.88086Q7.63672-7.88086 7.40723-7.65137Q7.17773-7.42188 7.17773-7.05078Z"/>
  </g>
  <g transform="matrix(1 0 0 1 305.646 1933)">
   <path d="M14.9707 5.66406Q17.0605 5.66406 18.96 5.01465Q20.8594 4.36523 22.4512 3.19336Q24.043 2.02148 25.2197 0.429688Q26.3965-1.16211 27.0459-3.06641Q27.6953-4.9707 27.6953-7.05078Q27.6953-9.14062 27.0459-11.04Q26.3965-12.9395 25.2197-14.5312Q24.043-16.123 22.4512-17.2998Q20.8594-18.4766 18.9551-19.126Q17.0508-19.7754 14.9609-19.7754Q12.8711-19.7754 10.9717-19.126Q9.07227-18.4766 7.48535-17.2998Q5.89844-16.123 4.72168-14.5312Q3.54492-12.9395 2.90039-11.04Q2.25586-9.14062 2.25586-7.05078Q2.25586-4.9707 2.90527-3.06641Q3.55469-1.16211 4.72656 0.429688Q5.89844 2.02148 7.49023 3.19336Q9.08203 4.36523 10.9814 5.01465Q12.8809 5.66406 14.9707 5.66406ZM14.9707 3.84766Q13.1641 3.84766 11.5283 3.2959Q9.89258 2.74414 8.53516 1.74805Q7.17773 0.751953 6.17676-0.610352Q5.17578-1.97266 4.62891-3.6084Q4.08203-5.24414 4.08203-7.05078Q4.08203-8.86719 4.62891-10.5029Q5.17578-12.1387 6.17188-13.501Q7.16797-14.8633 8.52539-15.8594Q9.88281-16.8555 11.5186-17.4023Q13.1543-17.9492 14.9609-17.9492Q16.7773-17.9492 18.4131-17.4023Q20.0488-16.8555 21.4111-15.8594Q22.7734-14.8633 23.7695-13.501Q24.7656-12.1387 25.3174-10.5029Q25.8691-8.86719 25.8691-7.05078Q25.8789-5.24414 25.332-3.6084Q24.7852-1.97266 23.7842-0.610352Q22.7832 0.751953 21.4209 1.74805Q20.0586 2.74414 18.4229 3.2959Q16.7871 3.84766 14.9707 3.84766ZM9.19922-7.05078Q9.19922-6.66992 9.45801-6.4209Q9.7168-6.17188 10.1172-6.17188L14.0625-6.17188L14.0625-2.2168Q14.0625-1.81641 14.3115-1.55762Q14.5605-1.29883 14.9512-1.29883Q15.3516-1.29883 15.6104-1.55273Q15.8691-1.80664 15.8691-2.2168L15.8691-6.17188L19.8242-6.17188Q20.2246-6.17188 20.4785-6.4209Q20.7324-6.66992 20.7324-7.05078Q20.7324-7.46094 20.4785-7.71484Q20.2246-7.96875 19.8242-7.96875L15.8691-7.96875L15.8691-11.9141Q15.8691-12.3242 15.6104-12.583Q15.3516-12.8418 14.9512-12.8418Q14.5605-12.8418 14.3115-12.583Q14.0625-12.3242 14.0625-11.9141L14.0625-7.96875L10.1172-7.96875Q9.70703-7.96875 9.45312-7.71484Q9.19922-7.46094 9.19922-7.05078Z"/>
  </g>
  <text style="stroke:none;fill:black;font-family:sans-serif;font-size:13;font-weight:bold;" transform="matrix(1 0 0 1 263 1953)">Design Variations</text>
  <text style="stroke:none;fill:black;font-family:sans-serif;font-size:13;" transform="matrix(1 0 0 1 263 1971)">Symbols are supported in up to nine weights and three scales.</text>
  <text style="stroke:none;fill:black;font-family:sans-serif;font-size:13;" transform="matrix(1 0 0 1 263 1989)">For optimal layout with text and other symbols, vertically align</text>
  <text style="stroke:none;fill:black;font-family:sans-serif;font-size:13;" transform="matrix(1 0 0 1 263 2007)">symbols with the adjacent text.</text>
  <line style="fill:none;stroke:#00AEEF;stroke-width:0.5;opacity:1.0;" x1="776" x2="776" y1="1919" y2="1933"/>
  <g transform="matrix(1 0 0 1 776 1933)">
   <path d="M3.31055 0.15625Q3.70117 0.15625 3.91602-0.00976562Q4.13086-0.175781 4.26758-0.585938L5.52734-4.0332L11.2891-4.0332L12.5488-0.585938Q12.6855-0.175781 12.9004-0.00976562Q13.1152 0.15625 13.4961 0.15625Q13.8867 0.15625 14.1162-0.0585938Q14.3457-0.273438 14.3457-0.644531Q14.3457-0.869141 14.2383-1.17188L9.6582-13.3691Q9.48242-13.8184 9.17969-14.043Q8.87695-14.2676 8.4082-14.2676Q7.5-14.2676 7.17773-13.3789L2.59766-1.16211Q2.49023-0.859375 2.49023-0.634766Q2.49023-0.263672 2.70996-0.0537109Q2.92969 0.15625 3.31055 0.15625ZM6.00586-5.51758L8.37891-12.0898L8.42773-12.0898L10.8008-5.51758Z"/>
  </g>
  <line style="fill:none;stroke:#00AEEF;stroke-width:0.5;opacity:1.0;" x1="793.197" x2="793.197" y1="1919" y2="1933"/>
  <text style="stroke:none;fill:black;font-family:sans-serif;font-size:13;font-weight:bold;" transform="matrix(1 0 0 1 776 1953)">Margins</text>
  <text style="stroke:none;fill:black;font-family:sans-serif;font-size:13;" transform="matrix(1 0 0 1 776 1971)">Leading and trailing margins on the left and right side of each symbol</text>
  <text style="stroke:none;fill:black;font-family:sans-serif;font-size:13;" transform="matrix(1 0 0 1 776 1989)">can be adjusted by modifying the x-location of the margin guidelines.</text>
  <text style="stroke:none;fill:black;font-family:sans-serif;font-size:13;" transform="matrix(1 0 0 1 776 2007)">Modifications are automatically applied proportionally to all</text>
  <text style="stroke:none;fill:black;font-family:sans-serif;font-size:13;" transform="matrix(1 0 0 1 776 2025)">scales and weights.</text>
  <g transform="matrix(1 0 0 1 1289 1933)">
   <path d="M2.8418 1.86523L4.54102 3.57422Q5.18555 4.22852 5.90332 4.17969Q6.62109 4.13086 7.31445 3.35938L18.0078-8.42773L17.041-9.4043L6.42578 2.27539Q6.16211 2.57812 5.89355 2.61719Q5.625 2.65625 5.27344 2.30469L4.10156 1.14258Q3.75 0.791016 3.79395 0.522461Q3.83789 0.253906 4.14062-0.0195312L15.6152-10.8203L14.6387-11.7871L3.04688-0.898438Q2.30469-0.214844 2.25098 0.498047Q2.19727 1.21094 2.8418 1.86523ZM9.25781-16.3281Q8.94531-16.0254 8.90625-15.6348Q8.86719-15.2441 9.04297-14.9512Q9.21875-14.6777 9.55566-14.541Q9.89258-14.4043 10.3809-14.5215Q11.4746-14.7754 12.5977-14.7314Q13.7207-14.6875 14.7949-13.9844L14.209-12.5293Q13.9551-11.9043 14.0674-11.4404Q14.1797-10.9766 14.5801-10.5664L16.875-8.25195Q17.2363-7.88086 17.5781-7.82227Q17.9199-7.76367 18.3398-7.8418L19.4043-8.03711L20.0684-7.36328L20.0293-6.80664Q20-6.43555 20.1221-6.12305Q20.2441-5.81055 20.6055-5.44922L21.3672-4.70703Q21.7285-4.3457 22.1533-4.33105Q22.5781-4.31641 22.9297-4.66797L25.8398-7.58789Q26.1914-7.93945 26.1816-8.35449Q26.1719-8.76953 25.8105-9.13086L25.0391-9.89258Q24.6875-10.2539 24.3799-10.3857Q24.0723-10.5176 23.7109-10.4883L23.1348-10.4395L22.4902-11.0742L22.7344-12.1973Q22.832-12.6172 22.6953-12.9834Q22.5586-13.3496 22.1191-13.7891L19.9219-15.9766Q18.6719-17.2168 17.2607-17.8369Q15.8496-18.457 14.4189-18.4814Q12.9883-18.5059 11.665-17.959Q10.3418-17.4121 9.25781-16.3281ZM10.752-15.957Q11.6602-16.6211 12.7002-16.9043Q13.7402-17.1875 14.8047-17.085Q15.8691-16.9824 16.8701-16.5137Q17.8711-16.0449 18.7012-15.2051L21.1328-12.793Q21.3086-12.6172 21.3525-12.4512Q21.3965-12.2852 21.3379-12.0312L21.0156-10.5469L22.5195-9.0625L23.5059-9.12109Q23.6914-9.13086 23.7891-9.09668Q23.8867-9.0625 24.0332-8.91602L24.6094-8.33984L22.168-5.89844L21.5918-6.47461Q21.4453-6.62109 21.4062-6.71875Q21.3672-6.81641 21.377-7.01172L21.4453-7.98828L19.9512-9.47266L18.4277-9.21875Q18.1836-9.16992 18.042-9.2041Q17.9004-9.23828 17.7148-9.41406L15.7129-11.416Q15.5176-11.5918 15.4932-11.7529Q15.4688-11.9141 15.5859-12.1875L16.4648-14.2773Q15.293-15.3711 13.8281-15.791Q12.3633-16.2109 10.8398-15.7617Q10.7227-15.7324 10.6885-15.8057Q10.6543-15.8789 10.752-15.957Z"/>
  </g>
  <text style="stroke:none;fill:black;font-family:sans-serif;font-size:13;font-weight:bold;" transform="matrix(1 0 0 1 1289 1953)">Exporting</text>
  <text style="stroke:none;fill:black;font-family:sans-serif;font-size:13;" transform="matrix(1 0 0 1 1289 1971)">Symbols should be outlined when exporting to ensure the</text>
  <text style="stroke:none;fill:black;font-family:sans-serif;font-size:13;" transform="matrix(1 0 0 1 1289 1989)">design is preserved when submitting to Xcode.</text>
  <text id="template-version" style="stroke:none;fill:black;font-family:sans-serif;font-size:13;text-anchor:end;" transform="matrix(1 0 0 1 3036 1933)">Template v.3.0</text>
  <text style="stroke:none;fill:black;font-family:sans-serif;font-size:13;text-anchor:end;" transform="matrix(1 0 0 1 3036 1951)">Requires Xcode 13 or greater</text>
  <text id="descriptive-name" style="stroke:none;fill:black;font-family:sans-serif;font-size:13;text-anchor:end;" transform="matrix(1 0 0 1 3036 1969)">Generated from gallery</text>
  <text style="stroke:none;fill:black;font-family:sans-serif;font-size:13;text-anchor:end;" transform="matrix(1 0 0 1 3036 1987)">Typeset at 100 points</text>
  <text style="stroke:none;fill:black;font-family:sans-serif;font-size:13;" transform="matrix(1 0 0 1 263 726)">Small</text>
  <text style="stroke:none;fill:black;font-family:sans-serif;font-size:13;" transform="matrix(1 0 0 1 263 1156)">Medium</text>
  <text style="stroke:none;fill:black;font-family:sans-serif;font-size:13;" transform="matrix(1 0 0 1 263 1586)">Large</text>
 </g>
 <g id="Guides">
  <g id="H-reference" style="fill:#27AAE1;stroke:none;" transform="matrix(1 0 0 1 339 696)">
   <path d="M0.993347 0L3.6377 0L29.3282-67.1326L30.0301-67.1326L30.0301-70.459L28.1227-70.459ZM11.6882-24.4797L46.9818-24.4797L46.2311-26.7288L12.4382-26.7288ZM55.1193 0L57.7637 0L30.6381-70.459L29.4327-70.459L29.4327-67.1326Z"/>
  </g>
  <line id="Baseline-S" style="fill:none;stroke:#27AAE1;opacity:1;stroke-width:0.5;" x1="263" x2="3036" y1="696" y2="696"/>
  <line id="Capline-S" style="fill:none;stroke:#27AAE1;opacity:1;stroke-width:0.5;" x1="263" x2="3036" y1="625.541" y2="625.541"/>
  <g id="H-reference" style="fill:#27AAE1;stroke:none;" transform="matrix(1 0 0 1 339 1126)">
   <path d="M0.993347 0L3.6377 0L29.3282-67.1326L30.0301-67.1326L30.0301-70.459L28.1227-70.459ZM11.6882-24.4797L46.9818-24.4797L46.2311-26.7288L12.4382-26.7288ZM55.1193 0L57.7637 0L30.6381-70.459L29.4327-70.459L29.4327-67.1326Z"/>
  </g>
  <line id="Baseline-M" style="fill:none;stroke:#27AAE1;opacity:1;stroke-width:0.5;" x1="263" x2="3036" y1="1126" y2="1126"/>
  <line id="Capline-M" style="fill:none;stroke:#27AAE1;opacity:1;stroke-width:0.5;" x1="263" x2="3036" y1="1055.54" y2="1055.54"/>
  <g id="H-reference" style="fill:#27AAE1;stroke:none;" transform="matrix(1 0 0 1 339 1556)">
   <path d="M0.993347 0L3.6377 0L29.3282-67.1326L30.0301-67.1326L30.0301-70.459L28.1227-70.459ZM11.6882-24.4797L46.9818-24.4797L46.2311-26.7288L12.4382-26.7288ZM55.1193 0L57.7637 0L30.6381-70.459L29.4327-70.459L29.4327-67.1326Z"/>
  </g>
  <line id="Baseline-L" style="fill:none;stroke:#27AAE1;opacity:1;stroke-width:0.5;" x1="263" x2="3036" y1="1556" y2="1556"/>
  <line id="Capline-L" style="fill:none;stroke:#27AAE1;opacity:1;stroke-width:0.5;" x1="263" x2="3036" y1="1485.54" y2="1485.54"/>
  <line id="left-margin-Regular-M" style="fill:none;stroke:#00AEEF;stroke-width:0.5;opacity:1.0;" x1="1379.84" x2="1379.84" y1="1030.78" y2="1150.12"/>
  <line id="right-margin-Regular-M" style="fill:none;stroke:#00AEEF;stroke-width:0.5;opacity:1.0;" x1="1519.85" x2="1519.85" y1="1030.78" y2="1150.12"/>
 </g>
 <g id="Symbols">
  <g id="Black-L" transform="matrix(1 0 0 1 2841.56 1556)">
   <path d="M43.3778 6.421Q40.004 6.421 38.0345 4.46191Q36.065 2.50283 36.065-0.891636L36.065-9.64046L48.8227-20.8466Q50.8576-22.6182 52.7381-23.4864Q54.6185-24.3546 57.0015-24.3546Q61.6335-24.3546 65.6825-20.7649L77.3479-10.301L106.124-36.02Q110.333-39.739 115.663-39.739Q121.039-39.739 125.085-35.9396L147.622-15.0846L147.622-0.908474Q147.622 2.50283 145.506 4.46191Q143.39 6.421 140.35 6.421ZM71.5231-35.0146Q64.8398-35.0146 60.0732-39.7812Q55.3066-44.5478 55.3066-51.2103Q55.3066-57.8143 60.0732-62.6204Q64.8398-67.4266 71.5231-67.4266Q78.1271-67.4266 82.8827-62.6204Q87.6382-57.8143 87.6382-51.2103Q87.6382-44.5478 82.8827-39.7812Q78.1271-35.0146 71.5231-35.0146ZM39.8556 26.4205L143.831 26.4205Q155.221 26.4205 161.412 20.2283Q167.603 14.036 167.603 2.71124L167.603-73.0916Q167.603-84.4163 161.412-90.6085Q155.221-96.8007 143.831-96.8007L39.8556-96.8007Q28.5077-96.8007 22.2958-90.6097Q16.084-84.4187 16.084-73.0916L16.084 2.71124Q16.084 14.0384 22.2958 20.2295Q28.5077 26.4205 39.8556 26.4205Z"/>
  </g>
  <g id="Heavy-L" transform="matrix(1 0 0 1 2545.23 1556)">
   <path d="M41.5513 7.98555Q37.8549 7.98555 35.7196 5.8654Q33.5844 3.74525 33.5844 0.0187344L33.5844-7.53461L48.0015-20.1646Q50.059-21.9451 52.0129-22.8337Q53.9667-23.7223 56.2807-23.7223Q60.9822-23.7223 65.067-20.0785L76.8029-9.52644L105.891-35.4582Q110.225-39.2765 115.598-39.2765Q121.024-39.2765 125.192-35.3779L149.334-13.0505L149.334 0.0344493Q149.334 3.74525 147.087 5.8654Q144.84 7.98555 141.427 7.98555ZM69.4749-34.7088Q62.855-34.7088 58.1362-39.4276Q53.4173-44.1465 53.4173-50.7361Q53.4173-57.2812 58.1362-62.0374Q62.855-66.7937 69.4749-66.7937Q76.0199-66.7937 80.7208-62.0374Q85.4218-57.2812 85.4218-50.7361Q85.4218-44.1465 80.7208-39.4276Q76.0199-34.7088 69.4749-34.7088ZM38.8315 25.505L144.087 25.505Q155.096 25.505 160.965 19.6301Q166.835 13.7553 166.835 2.848L166.835-73.2372Q166.835-84.1444 160.965-90.0192Q155.096-95.8941 144.087-95.8941L38.8315-95.8941Q27.8828-95.8941 21.9833-90.0248Q16.084-84.1556 16.084-73.2372L16.084 2.848Q16.084 13.7665 21.9833 19.6357Q27.8828 25.505 38.8315 25.505Z"/>
  </g>
  <g id="Bold-L" transform="matrix(1 0 0 1 2249.01 1556)">
   <path d="M39.3369 9.90703Q35.2259 9.90703 32.8758 7.57592Q30.5258 5.24481 30.5258 1.09598L30.5258-5.06384L46.9946-19.4312Q49.0828-21.2269 51.1213-22.1423Q53.1598-23.0577 55.3968-23.0577Q60.1678-23.0577 64.3063-19.3374L76.0969-8.70015L105.547-34.8486Q110.064-38.8046 115.468-38.8046Q120.956-38.8046 125.3-34.7682L151.41-10.6867L151.41 1.14276Q151.41 5.24481 148.987 7.57592Q146.564 9.90703 142.675 9.90703ZM66.9615-34.4067Q60.4259-34.4067 55.7685-39.0642Q51.1111-43.7217 51.1111-50.2192Q51.1111-56.6875 55.7685-61.3785Q60.4259-66.0695 66.9615-66.0695Q73.4298-66.0695 78.0617-61.3785Q82.6935-56.6875 82.6935-50.2192Q82.6935-43.7217 78.0617-39.0642Q73.4298-34.4067 66.9615-34.4067ZM37.5412 24.3605L144.394 24.3605Q154.898 24.3605 160.375 18.87Q165.852 13.3796 165.852 3.01704L165.852-73.4215Q165.852-83.7839 160.375-89.2744Q154.898-94.7648 144.394-94.7648L37.5412-94.7648Q27.1142-94.7648 21.599-89.2876Q16.084-83.8104 16.084-73.4215L16.084 3.01704Q16.084 13.4061 21.599 18.8833Q27.1142 24.3605 37.5412 24.3605Z"/>
  </g>
  <g id="Semibold-L" transform="matrix(1 0 0 1 1952.64 1556)">
   <path d="M37.8102 11.2317Q33.4135 11.2317 30.9153 8.75514Q28.4172 6.27859 28.4172 1.83863L28.4172-3.3605L46.3005-18.9256Q48.4097-20.7318 50.5067-21.6657Q52.6036-22.5996 54.7874-22.5996Q59.6064-22.5996 63.7818-18.8265L75.6102-8.13051L105.309-34.4283Q109.954-38.4794 115.379-38.4794Q120.91-38.4794 125.375-34.3479L152.841-9.05711L152.841 1.90682Q152.841 6.27859 150.297 8.75514Q147.752 11.2317 143.535 11.2317ZM65.2288-34.1985Q58.7513-34.1985 54.1363-38.8137Q49.5212-43.4288 49.5212-49.8627Q49.5212-56.2782 54.1363-60.9242Q58.7513-65.5703 65.2288-65.5703Q71.6442-65.5703 76.2284-60.9242Q80.8126-56.2782 80.8126-49.8627Q80.8126-43.4288 76.2284-38.8137Q71.6442-34.1985 65.2288-34.1985ZM36.6518 23.5714L144.606 23.5714Q154.761 23.5714 159.967 18.346Q165.175 13.1206 165.175 3.13357L165.175-73.5485Q165.175-83.5355 159.967-88.7609Q154.761-93.9863 144.606-93.9863L36.6518-93.9863Q26.5843-93.9863 21.3341-88.7794Q16.084-83.5724 16.084-73.5485L16.084 3.13357Q16.084 13.1576 21.3341 18.3645Q26.5843 23.5714 36.6518 23.5714Z"/>
  </g>
  <g id="Medium-L" transform="matrix(1 0 0 1 1656.18 1556)">
   <path d="M36.6527 12.2361Q32.0392 12.2361 29.4287 9.64927Q26.8183 7.06245 26.8183 2.40174L26.8183-2.06897L45.7741-18.5423Q47.8994-20.3564 50.0407-21.3043Q52.1818-22.2522 54.3254-22.2522Q59.1808-22.2522 63.3841-18.4391L75.2412-7.69859L105.13-34.1096Q109.87-38.2327 115.312-38.2327Q120.874-38.2327 125.431-34.0292L153.926-7.82149L153.926 2.48617Q153.926 7.06245 151.29 9.64927Q148.653 12.2361 144.187 12.2361ZM63.915-34.0406Q57.4816-34.0406 52.8987-38.6237Q48.3157-43.2067 48.3157-49.5925Q48.3157-55.9679 52.8987-60.5798Q57.4816-65.1918 63.915-65.1918Q70.2903-65.1918 74.8384-60.5798Q79.3865-55.9679 79.3865-49.5925Q79.3865-43.2067 74.8384-38.6237Q70.2903-34.0406 63.915-34.0406ZM35.9773 22.9732L144.767 22.9732Q154.657 22.9732 159.659 17.9487Q164.661 12.9243 164.661 3.22194L164.661-73.6448Q164.661-83.3471 159.659-88.3715Q154.657-93.396 144.767-93.396L35.9773-93.396Q26.1825-93.396 21.1332-88.394Q16.084-83.392 16.084-73.6448L16.084 3.22194Q16.084 12.9692 21.1332 17.9712Q26.1825 22.9732 35.9773 22.9732Z"/>
  </g>
  <g id="Regular-L" transform="matrix(1 0 0 1 1359.81 1556)">
   <path d="M35.1428 13.5462Q30.2468 13.5462 27.4898 10.8155Q24.7329 8.08487 24.7329 3.13622L24.7329-0.384349L45.0876-18.0422Q47.2338-19.8667 49.4328-20.8329Q51.6317-21.7991 53.7227-21.7991Q58.6255-21.7991 62.8654-17.9338L74.7598-7.13521L104.895-33.6939Q109.76-37.911 115.224-37.911Q120.828-37.911 125.505-33.6135L155.342-6.20981L155.342 3.24183Q155.342 8.08487 152.585 10.8155Q149.828 13.5462 145.037 13.5462ZM62.2014-33.8347Q55.8254-33.8347 51.2844-38.3759Q46.7433-42.9171 46.7433-49.24Q46.7433-55.5631 51.2844-60.1305Q55.8254-64.6981 62.2014-64.6981Q68.5243-64.6981 73.0253-60.1305Q77.5263-55.5631 77.5263-49.24Q77.5263-42.9171 73.0253-38.3759Q68.5243-33.8347 62.2014-33.8347ZM35.0976 22.1928L144.977 22.1928Q154.522 22.1928 159.256 17.4305Q163.991 12.6681 163.991 3.33719L163.991-73.7705Q163.991-83.1013 159.256-87.8637Q154.522-92.626 144.977-92.626L35.0976-92.626Q25.6584-92.626 20.8712-87.8913Q16.084-83.1566 16.084-73.7705L16.084 3.33719Q16.084 12.7234 20.8712 17.4581Q25.6584 22.1928 35.0976 22.1928Z"/>
  </g>
  <g id="Light-L" transform="matrix(1 0 0 1 1063.53 1556)">
   <path d="M33.9215 14.7676Q28.6435 14.7676 25.6767 11.8174Q22.7099 8.86727 22.7099 3.55597L22.7099 0.436183L44.4579-18.2522Q46.6422-20.1149 48.8602-21.1096Q51.0783-22.1044 53.1692-22.1044Q58.0147-22.1044 62.3501-18.1247L74.0726-7.42155L104.303-33.8276Q109.474-38.2355 114.823-38.2355Q120.465-38.2355 125.429-33.7472L156.487-5.58L156.487 3.62342Q156.487 8.86727 153.52 11.8174Q150.553 14.7676 145.343 14.7676ZM60.6173-34.1211Q54.3366-34.1211 49.853-38.605Q45.3693-43.0889 45.3693-49.3356Q45.3693-55.5823 49.853-60.0829Q54.3366-64.5836 60.6173-64.5836Q66.864-64.5836 71.3077-60.0829Q75.7514-55.5823 75.7514-49.3356Q75.7514-43.0889 71.3077-38.605Q66.864-34.1211 60.6173-34.1211ZM34.067 21.3341L145.13 21.3341Q154.102 21.3341 158.607 16.7816Q163.113 12.2292 163.113 3.45168L163.113-73.9231Q163.113-82.7005 158.607-87.253Q154.102-91.8054 145.13-91.8054L34.067-91.8054Q25.162-91.8054 20.623-87.2997Q16.084-82.794 16.084-73.9231L16.084 3.45168Q16.084 12.3226 20.623 16.8283Q25.162 21.3341 34.067 21.3341Z"/>
  </g>
  <g id="Thin-L" transform="matrix(1 0 0 1 767.405 1556)">
   <path d="M32.3061 16.3829Q26.523 16.3829 23.2786 13.1425Q20.0343 9.90205 20.0343 4.11111L20.0343 1.5214L43.6249-18.53Q45.8598-20.4431 48.103-21.4756Q50.3463-22.5082 52.4372-22.5082Q57.2068-22.5082 61.6686-18.377L73.1638-7.80026L103.521-34.0044Q109.095-38.6647 114.293-38.6647Q119.986-38.6647 125.328-33.924L158.001-4.74704L158.001 4.12809Q158.001 9.90205 154.757 13.1425Q151.513 16.3829 145.746 16.3829ZM58.5222-34.4998Q52.3675-34.4998 47.9598-38.908Q43.5521-43.3162 43.5521-49.462Q43.5521-55.6078 47.9598-60.0199Q52.3675-64.4322 58.5222-64.4322Q64.668-64.4322 69.036-60.0199Q73.4041-55.6078 73.4041-49.462Q73.4041-43.3162 69.036-38.908Q64.668-34.4998 58.5222-34.4998ZM32.704 20.1984L145.332 20.1984Q153.547 20.1984 157.749 15.9235Q161.952 11.6486 161.952 3.6031L161.952-74.125Q161.952-82.1705 157.749-86.4453Q153.547-90.7202 145.332-90.7202L32.704-90.7202Q24.5056-90.7202 20.2948-86.5173Q16.084-82.3144 16.084-74.125L16.084 3.6031Q16.084 11.7925 20.2948 15.9954Q24.5056 20.1984 32.704 20.1984Z"/>
  </g>
  <g id="Ultralight-L" transform="matrix(1 0 0 1 470.991 1556)">
   <path d="M31.4788 17.2103Q25.4369 17.2103 22.0504 13.8212Q18.6638 10.4321 18.6638 4.39545L18.6638 2.07725L43.1983-18.6723Q45.459-20.6113 47.7151-21.663Q49.9714-22.715 52.0623-22.715Q56.793-22.715 61.3196-18.5063L72.6983-7.99424L103.12-34.095Q108.901-38.8845 114.021-38.8845Q119.74-38.8845 125.276-34.0146L158.777-4.32039L158.777 4.38658Q158.777 10.4321 155.39 13.8212Q152.004 17.2103 145.953 17.2103ZM57.4491-34.6938Q51.359-34.6938 46.9901-39.0632Q42.6213-43.4326 42.6213-49.5267Q42.6213-55.6208 46.9901-59.9876Q51.359-64.3546 57.4491-64.3546Q63.5433-64.3546 67.8725-59.9876Q72.2018-55.6208 72.2018-49.5267Q72.2018-43.4326 67.8725-39.0632Q63.5433-34.6938 57.4491-34.6938ZM32.0058 19.6166L145.435 19.6166Q153.263 19.6166 157.31 15.4839Q161.357 11.3512 161.357 3.68065L161.357-74.2284Q161.357-81.899 157.31-86.0316Q153.263-90.1643 145.435-90.1643L32.0058-90.1643Q24.1693-90.1643 20.1266-86.1165Q16.084-82.0687 16.084-74.2284L16.084 3.68065Q16.084 11.521 20.1266 15.5688Q24.1693 19.6166 32.0058 19.6166Z"/>
  </g>
  <g id="Black-M" transform="matrix(1 0 0 1 2861.98 1126)">
   <path d="M35.0108-4.14037Q32.6226-4.14037 31.2107-5.54947Q29.7989-6.95856 29.7989-9.35216L29.7989-17.1034L38.4454-24.7011Q40.0076-26.0712 41.4041-26.7302Q42.8005-27.3892 44.706-27.3892Q48.2271-27.3892 51.3462-24.639L60.2999-16.6209L82.3391-36.343Q85.5329-39.1647 89.6105-39.1647Q93.7377-39.1647 96.8072-36.2807L113.052-21.2854L113.052-9.39835Q113.052-6.95856 111.498-5.54947Q109.943-4.14037 107.851-4.14037ZM56.9576-35.3648Q51.7382-35.3648 48.0121-39.091Q44.2859-42.8171 44.2859-48.031Q44.2859-53.1878 48.0121-56.9452Q51.7382-60.7026 56.9576-60.7026Q62.1144-60.7026 65.8379-56.9452Q69.5614-53.1878 69.5614-48.031Q69.5614-42.8171 65.8379-39.091Q62.1144-35.3648 56.9576-35.3648ZM31.6184 13.2037L111.233 13.2037Q120.306 13.2037 125.348 8.16198Q130.39 3.12029 130.39-5.93735L130.39-64.4585Q130.39-73.5161 125.348-78.5578Q120.306-83.5994 111.233-83.5994L31.6184-83.5994Q22.5559-83.5994 17.5083-78.5575Q12.4609-73.5155 12.4609-64.4585L12.4609-5.93735Q12.4609 3.11973 17.5083 8.1617Q22.5559 13.2037 31.6184 13.2037Z"/>
  </g>
  <g id="Heavy-M" transform="matrix(1 0 0 1 2565.6 1126)">
   <path d="M33.338-2.72359Q30.6696-2.72359 29.1151-4.26989Q27.5606-5.81619 27.5606-8.50093L27.5606-15.1205L37.7007-24.0151Q39.2816-25.3903 40.748-26.0666Q42.2143-26.7429 44.0524-26.7429Q47.6467-26.7429 50.792-23.9504L59.8306-15.8373L82.1656-35.7815Q85.4541-38.6827 89.5837-38.6827Q93.7564-38.6827 96.9182-35.7192L114.62-19.355L114.62-8.51178Q114.62-5.81619 112.957-4.26989Q111.293-2.72359 108.876-2.72359ZM55.1015-35.0394Q49.9353-35.0394 46.2505-38.7242Q42.5657-42.4089 42.5657-47.5587Q42.5657-52.6648 46.2505-56.3796Q49.9353-60.0944 55.1015-60.0944Q60.2076-60.0944 63.883-56.3796Q67.5584-52.6648 67.5584-47.5587Q67.5584-42.4089 63.883-38.7242Q60.2076-35.0394 55.1015-35.0394ZM30.7123 12.3879L111.469 12.3879Q120.223 12.3879 124.971 7.63712Q129.72 2.88631 129.72-5.81422L129.72-64.5868Q129.72-73.2872 124.971-78.038Q120.223-82.7888 111.469-82.7888L30.7123-82.7888Q21.9908-82.7888 17.2258-78.0403Q12.4609-73.2918 12.4609-64.5868L12.4609-5.81422Q12.4609 2.89086 17.2258 7.6394Q21.9908 12.3879 30.7123 12.3879Z"/>
  </g>
  <g id="Bold-M" transform="matrix(1 0 0 1 2269.26 1126)">
   <path d="M31.4667-1.13871Q28.4848-1.13871 26.7707-2.8385Q25.0567-4.53828 25.0567-7.54871L25.0567-12.9023L36.8678-23.2477Q38.4694-24.6286 40.014-25.3242Q41.5586-26.0199 43.3213-26.0199Q46.9975-26.0199 50.1721-23.1801L59.3055-14.9608L81.9714-35.1533Q85.366-38.1434 89.5538-38.1434Q93.7775-38.1434 97.0425-35.0911L116.375-17.1956L116.375-7.52003Q116.375-4.53828 114.589-2.8385Q112.804-1.13871 110.022-1.13871ZM53.0252-34.6753Q47.9184-34.6753 44.28-38.3138Q40.6415-41.9523 40.6415-47.0303Q40.6415-52.0799 44.28-55.7469Q47.9184-59.414 53.0252-59.414Q58.0746-59.414 61.6962-55.7469Q65.3178-52.0799 65.3178-47.0303Q65.3178-41.9523 61.6962-38.3138Q58.0746-34.6753 53.0252-34.6753ZM29.6986 11.4754L111.733 11.4754Q120.13 11.4754 124.55 7.05Q128.971 2.62457 128.971-5.67649L128.971-64.7302Q128.971-73.0312 124.55-77.4566Q120.13-81.8821 111.733-81.8821L29.6986-81.8821Q21.3587-81.8821 16.9098-77.4618Q12.4609-73.0415 12.4609-64.7302L12.4609-5.67649Q12.4609 2.63483 16.9098 7.05513Q21.3587 11.4754 29.6986 11.4754Z"/>
  </g>
  <g id="Semibold-M" transform="matrix(1 0 0 1 1972.81 1126)">
   <path d="M30.1767-0.0460985Q26.9787-0.0460985 25.1546-1.8517Q23.3305-3.6573 23.3305-6.89226L23.3305-11.3731L36.2935-22.7186Q37.9095-24.1035 39.508-24.8125Q41.1065-25.5214 42.8173-25.5214Q46.5498-25.5214 49.7448-22.6491L58.9436-14.3565L81.8375-34.7203Q85.3052-37.7717 89.5332-37.7717Q93.7919-37.7717 97.1281-34.6581L117.584-15.7069L117.584-6.83632Q117.584-3.6573 115.715-1.8517Q113.845-0.0460985 110.812-0.0460985ZM51.5937-34.4244Q46.528-34.4244 42.9215-38.031Q39.3149-41.6375 39.3149-46.6661Q39.3149-51.6766 42.9215-55.3107Q46.528-58.9449 51.5937-58.9449Q56.6041-58.9449 60.1886-55.3107Q63.7732-51.6766 63.7732-46.6661Q63.7732-41.6375 60.1886-38.031Q56.6041-34.4244 51.5937-34.4244ZM28.9999 10.8463L111.915 10.8463Q120.066 10.8463 124.26 6.64524Q128.454 2.44412 128.454-5.58153L128.454-64.8291Q128.454-72.8547 124.26-77.0558Q120.066-81.2569 111.915-81.2569L28.9999-81.2569Q20.9229-81.2569 16.6919-77.0629Q12.4609-72.8689 12.4609-64.8291L12.4609-5.58153Q12.4609 2.45833 16.6919 6.65234Q20.9229 10.8463 28.9999 10.8463Z"/>
  </g>
  <g id="Medium-M" transform="matrix(1 0 0 1 1676.29 1126)">
   <path d="M29.1985 0.782362Q25.8367 0.782362 23.9291-1.10347Q22.0216-2.9893 22.0216-6.39451L22.0216-10.2136L35.8581-22.3175Q37.4849-23.7053 39.1244-24.4244Q40.7637-25.1435 42.4351-25.1435Q46.2104-25.1435 49.4207-22.2464L58.6691-13.8983L81.736-34.392Q85.2592-37.4898 89.5175-37.4898Q93.8029-37.4898 97.193-34.3297L118.501-14.5781L118.501-6.3179Q118.501-2.9893 116.568-1.10347Q114.635 0.782362 111.411 0.782362ZM50.5084-34.2341Q45.4738-34.2341 41.8914-37.8165Q38.309-41.3989 38.309-46.3899Q38.309-51.3708 41.8914-54.98Q45.4738-58.5893 50.5084-58.5893Q55.4891-58.5893 59.0455-54.98Q62.6019-51.3708 62.6019-46.3899Q62.6019-41.3989 59.0455-37.8165Q55.4891-34.2341 50.5084-34.2341ZM28.47 10.3694L112.053 10.3694Q120.017 10.3694 124.039 6.33833Q128.062 2.3073 128.062-5.50953L128.062-64.9041Q128.062-72.7209 124.039-76.7519Q120.017-80.783 112.053-80.783L28.47-80.783Q20.5925-80.783 16.5267-76.7605Q12.4609-72.7381 12.4609-64.9041L12.4609-5.50953Q12.4609 2.3245 16.5267 6.34692Q20.5925 10.3694 28.47 10.3694Z"/>
  </g>
  <g id="Regular-M" transform="matrix(1 0 0 1 1379.84 1126)">
   <path d="M27.9226 1.86296Q24.3471 1.86296 22.3307-0.127525Q20.3144-2.118 20.3144-5.74527L20.3144-8.70119L35.2901-21.7942Q36.9311-23.186 38.6239-23.9182Q40.3166-24.6505 41.9366-24.6505Q45.7678-24.6505 48.9981-21.7212L58.3111-13.3006L81.6036-33.9637Q85.1991-37.1222 89.4972-37.1222Q93.8172-37.1222 97.2777-33.9015L119.697-13.1057L119.697-5.6417Q119.697-2.118 117.681-0.127525Q115.665 1.86296 112.193 1.86296ZM49.0927-33.9858Q44.0986-33.9858 40.5479-37.5367Q36.997-41.0876 36.997-46.0297Q36.997-50.9719 40.5479-54.5486Q44.0986-58.1254 49.0927-58.1254Q54.0348-58.1254 57.5545-54.5486Q61.0743-50.9719 61.0743-46.0297Q61.0743-41.0876 57.5545-37.5367Q54.0348-33.9858 49.0927-33.9858ZM27.7789 9.74719L112.233 9.74719Q119.954 9.74719 123.752 5.93801Q127.551 2.12884 127.551-5.41562L127.551-65.0019Q127.551-72.5463 123.752-76.3555Q119.954-80.1647 112.233-80.1647L27.7789-80.1647Q20.1615-80.1647 16.3112-76.3661Q12.4609-72.5674 12.4609-65.0019L12.4609-5.41562Q12.4609 2.14994 16.3112 5.94856Q20.1615 9.74719 27.7789 9.74719Z"/>
  </g>
  <g id="Light-M" transform="matrix(1 0 0 1 1083.52 1126)">
   <path d="M26.8276 2.95799Q22.9096 2.95799 20.7051 0.770722Q18.5007-1.41654 18.5007-5.36895L18.5007-7.96554L34.7255-21.9825Q36.4007-23.4085 38.1106-24.1663Q39.8205-24.9242 41.4404-24.9242Q45.2201-24.9242 48.5361-21.8923L57.695-13.5573L81.0732-34.0836Q84.9424-37.4131 89.1378-37.4131Q93.4921-37.4131 97.2093-34.0213L120.724-12.5411L120.724-5.29959Q120.724-1.41654 118.519 0.770722Q116.315 2.95799 112.466 2.95799ZM47.6725-34.2426Q42.7639-34.2426 39.2645-37.7421Q35.7651-41.2416 35.7651-46.1154Q35.7651-50.9892 39.2645-54.5059Q42.7639-58.0227 47.6725-58.0227Q52.5462-58.0227 56.0146-54.5059Q59.483-50.9892 59.483-46.1154Q59.483-41.2416 56.0146-37.7421Q52.5462-34.2426 47.6725-34.2426ZM26.8549 8.9773L112.37 8.9773Q119.577 8.9773 123.17 5.35629Q126.764 1.73528 126.764-5.31298L126.764-65.1388Q126.764-72.187 123.17-75.808Q119.577-79.429 112.37-79.429L26.8549-79.429Q19.7165-79.429 16.0887-75.8357Q12.4609-72.2423 12.4609-65.1388L12.4609-5.31298Q12.4609 1.79058 16.0887 5.38394Q19.7165 8.9773 26.8549 8.9773Z"/>
  </g>
  <g id="Thin-M" transform="matrix(1 0 0 1 787.331 1126)">
   <path d="M25.3794 4.40625Q21.0085 4.40625 18.5552 1.95873Q16.1019-0.488804 16.1019-4.87123L16.1019-6.99259L33.9788-22.2315Q35.6992-23.7028 37.4317-24.4945Q39.1642-25.2862 40.7841-25.2862Q44.4958-25.2862 47.9251-22.1185L56.8802-13.8969L80.3717-34.2421Q84.6028-37.7979 88.6625-37.7979Q93.0621-37.7979 97.1189-34.1799L122.082-11.7943L122.082-4.84713Q122.082-0.488804 119.628 1.95873Q117.175 4.40625 112.828 4.40625ZM45.7941-34.5821Q40.9985-34.5821 37.5672-38.0138Q34.1359-41.4454 34.1359-46.2287Q34.1359-51.012 37.5672-54.4494Q40.9985-57.887 45.7941-57.887Q50.5774-57.887 53.978-54.4494Q57.3785-51.012 57.3785-46.2287Q57.3785-41.4454 53.978-38.0138Q50.5774-34.5821 45.7941-34.5821ZM25.6329 7.95907L112.551 7.95907Q119.08 7.95907 122.401 4.58692Q125.723 1.21476 125.723-5.17722L125.723-65.3198Q125.723-71.7117 122.401-75.0839Q119.08-78.456 112.551-78.456L25.6329-78.456Q19.1279-78.456 15.7944-75.1342Q12.4609-71.8123 12.4609-65.3198L12.4609-5.17722Q12.4609 1.31531 15.7944 4.63719Q19.1279 7.95907 25.6329 7.95907Z"/>
  </g>
  <g id="Ultralight-M" transform="matrix(1 0 0 1 490.886 1126)">
   <path d="M24.6376 5.14804Q20.0348 5.14804 17.454 2.56722Q14.8732-0.0136205 14.8732-4.6163L14.8732-6.49424L33.5963-22.3591Q35.3399-23.8535 37.0839-24.6625Q38.8281-25.4717 40.448-25.4717Q44.1248-25.4717 47.6122-22.2344L56.4629-14.0708L80.0124-34.3233Q84.4289-37.995 88.4191-37.995Q92.8419-37.995 97.0725-34.2611L122.777-11.4118L122.777-4.61538Q122.777-0.0136205 120.196 2.56722Q117.616 5.14804 113.014 5.14804ZM44.8321-34.756Q40.0943-34.756 36.6978-38.1529Q33.3014-41.5498 33.3014-46.2868Q33.3014-51.0237 36.6978-54.4205Q40.0943-57.8175 44.8321-57.8175Q49.569-57.8175 52.9348-54.4205Q56.3005-51.0237 56.3005-46.2868Q56.3005-41.5498 52.9348-38.1529Q49.569-34.756 44.8321-34.756ZM25.0069 7.43753L112.643 7.43753Q118.825 7.43753 122.007 4.19285Q125.189 0.948149 125.189-5.10769L125.189-65.4125Q125.189-71.4683 122.007-74.713Q118.825-77.9576 112.643-77.9576L25.0069-77.9576Q18.8265-77.9576 15.6437-74.7749Q12.4609-71.5921 12.4609-65.4125L12.4609-5.10769Q12.4609 1.07188 15.6437 4.25471Q18.8265 7.43753 25.0069 7.43753Z"/>
  </g>
  <g id="Black-S" transform="matrix(1 0 0 1 2877.35 696)">
   <path d="M27.8809-11.2305Q26.0742-11.2305 25-12.3047Q23.9258-13.3789 23.9258-15.1855L23.9258-21.582L30.3223-27.1973Q31.543-28.2715 32.6172-28.7842Q33.6914-29.2969 35.2051-29.2969Q37.9395-29.2969 40.3809-27.1484L47.3633-20.8984L64.5508-36.2793Q67.041-38.4766 70.2148-38.4766Q73.4375-38.4766 75.8301-36.2305L88.1836-24.8535L88.1836-15.2344Q88.1836-13.3789 86.9873-12.3047Q85.791-11.2305 84.2285-11.2305ZM45.1172-35.4492Q41.0156-35.4492 38.0859-38.3789Q35.1562-41.3086 35.1562-45.4102Q35.1562-49.4629 38.0859-52.417Q41.0156-55.3711 45.1172-55.3711Q49.1699-55.3711 52.0996-52.417Q55.0293-49.4629 55.0293-45.4102Q55.0293-41.3086 52.0996-38.3789Q49.1699-35.4492 45.1172-35.4492ZM25 2.92969L87.1094 2.92969Q94.2871 2.92969 98.3154-1.09863Q102.344-5.12695 102.344-12.3047L102.344-58.1055Q102.344-65.2832 98.3154-69.3115Q94.2871-73.3398 87.1094-73.3398L25-73.3398Q17.8223-73.3398 13.7939-69.3115Q9.76562-65.2832 9.76562-58.1055L9.76562-12.3047Q9.76562-5.12695 13.7939-1.09863Q17.8223 2.92969 25 2.92969Z"/>
  </g>
  <g id="Heavy-S" transform="matrix(1 0 0 1 2580.87 696)">
   <path d="M26.5901-10.1587Q24.5876-10.1587 23.4154-11.3251Q22.2432-12.4915 22.2432-14.5056L22.2432-19.9801L29.7576-26.5865Q30.9898-27.6607 32.1217-28.1849Q33.2535-28.7091 34.7096-28.7091Q37.5131-28.7091 39.966-26.5376L47.0406-20.1954L64.4701-35.7838Q67.0064-38.0271 70.2379-38.0271Q73.4951-38.0271 75.9338-35.735L89.3937-23.2747L89.3937-14.5199Q89.3937-12.4915 88.1282-11.3251Q86.8628-10.1587 85.0698-10.1587ZM43.7112-35.1381Q39.6442-35.1381 36.7433-38.0389Q33.8424-40.9398 33.8424-44.9953Q33.8424-49.0134 36.7433-51.9387Q39.6442-54.864 43.7112-54.864Q47.7293-54.864 50.6245-51.9387Q53.5196-49.0134 53.5196-44.9953Q53.5196-40.9398 50.6245-38.0389Q47.7293-35.1381 43.7112-35.1381ZM24.3431 2.33042L87.2938 2.33042Q94.2641 2.33042 98.0676-1.47318Q101.871-5.27677 101.871-12.2125L101.871-58.1977Q101.871-65.1334 98.0676-68.937Q94.2641-72.7405 87.2938-72.7405L24.3431-72.7405Q17.3959-72.7405 13.5807-68.937Q9.76562-65.1334 9.76562-58.1977L9.76562-12.2125Q9.76562-5.27677 13.5807-1.47318Q17.3959 2.33042 24.3431 2.33042Z"/>
  </g>
  <g id="Bold-S" transform="matrix(1 0 0 1 2284.43 696)">
   <path d="M25.1465-8.95997Q22.9248-8.95997 21.6431-10.2295Q20.3614-11.499 20.3614-13.7451L20.3614-18.1884L29.126-25.9034Q30.3711-26.9775 31.5674-27.5147Q32.7637-28.0518 34.1553-28.0518Q37.0362-28.0518 39.502-25.8545L46.6797-19.4092L64.3799-35.2295Q66.9678-37.5245 70.2637-37.5245Q73.5595-37.5245 76.0498-35.1807L90.747-21.5088L90.747-13.7207Q90.747-11.499 89.4043-10.2295Q88.0615-8.95997 86.0108-8.95997ZM42.1387-34.7901Q38.1104-34.7901 35.2417-37.6587Q32.373-40.5273 32.373-44.5312Q32.373-48.5107 35.2417-51.4038Q38.1104-54.2969 42.1387-54.2969Q46.1181-54.2969 48.9746-51.4038Q51.8311-48.5107 51.8311-44.5312Q51.8311-40.5273 48.9746-37.6587Q46.1181-34.7901 42.1387-34.7901ZM23.6084 1.66016L87.5 1.66016Q94.2383 1.66016 97.7905-1.89209Q101.343-5.44433 101.343-12.1094L101.343-58.3008Q101.343-64.9658 97.7905-68.5181Q94.2383-72.0703 87.5-72.0703L23.6084-72.0703Q16.9189-72.0703 13.3423-68.5181Q9.76562-64.9658 9.76562-58.3008L9.76562-12.1094Q9.76562-5.44433 13.3423-1.89209Q16.9189 1.66016 23.6084 1.66016Z"/>
  </g>
  <g id="Semibold-S" transform="matrix(1 0 0 1 1987.9 696)">
   <path d="M24.1512-8.1335Q21.7784-8.1335 20.4211-9.47413Q19.0639-10.8147 19.0639-13.2208L19.0639-16.9532L28.6905-25.4324Q29.9445-26.5066 31.1853-27.0525Q32.4259-27.5985 33.7732-27.5985Q36.7073-27.5985 39.182-25.3835L46.4309-18.8671L64.3177-34.8474Q66.9411-37.1779 70.2814-37.1779Q73.604-37.1779 76.1298-34.7986L91.6801-20.2913L91.6801-13.1697Q91.6801-10.8147 90.2841-9.47413Q88.888-8.1335 86.6595-8.1335ZM41.0545-34.5501Q37.0528-34.5501 34.2064-37.3965Q31.3599-40.243 31.3599-44.2113Q31.3599-48.1642 34.2064-51.035Q37.0528-53.9059 41.0545-53.9059Q45.0073-53.9059 47.8371-51.035Q50.6669-48.1642 50.6669-44.2113Q50.6669-40.243 47.8371-37.3965Q45.0073-34.5501 41.0545-34.5501ZM23.1019 1.19805L87.6422 1.19805Q94.2205 1.19805 97.5994-2.18091Q100.979-5.55986 100.979-12.0383L100.979-58.3719Q100.979-64.8503 97.5994-68.2292Q94.2205-71.6082 87.6422-71.6082L23.1019-71.6082Q16.5901-71.6082 13.1778-68.2292Q9.76562-64.8503 9.76562-58.3719L9.76562-12.0383Q9.76562-5.55986 13.1778-2.18091Q16.5901 1.19805 23.1019 1.19805Z"/>
  </g>
  <g id="Medium-S" transform="matrix(1 0 0 1 1691.32 696)">
   <path d="M23.3965-7.50684Q20.9092-7.50684 19.4946-8.90137Q18.0801-10.2959 18.0801-12.8232L18.0801-16.0166L28.3604-25.0752Q29.6211-26.1494 30.8955-26.7021Q32.1699-27.2549 33.4834-27.2549Q36.458-27.2549 38.9394-25.0263L46.2422-18.456L64.2705-34.5576Q66.9209-36.9151 70.2949-36.9151Q73.6377-36.9151 76.1904-34.5088L92.3877-19.3682L92.3877-12.7519Q92.3877-10.2959 90.9512-8.90137Q89.5146-7.50684 87.1514-7.50684ZM40.2325-34.3682Q36.251-34.3682 33.4214-37.1978Q30.5918-40.0273 30.5918-43.9687Q30.5918-47.9014 33.4214-50.7554Q36.251-53.6094 40.2325-53.6094Q44.165-53.6094 46.9746-50.7554Q49.7842-47.9014 49.7842-43.9687Q49.7842-40.0273 46.9746-37.1978Q44.165-34.3682 40.2325-34.3682ZM22.7178 0.847657L87.75 0.847657Q94.2071 0.847657 97.4546-2.3999Q100.702-5.64746 100.702-11.9844L100.702-58.4258Q100.702-64.7627 97.4546-68.0102Q94.2071-71.2578 87.75-71.2578L22.7178-71.2578Q16.3408-71.2578 13.0532-68.0102Q9.76562-64.7627 9.76562-58.4258L9.76562-11.9844Q9.76562-5.64746 13.0532-2.3999Q16.3408 0.847657 22.7178 0.847657Z"/>
  </g>
  <g id="Regular-S" transform="matrix(1 0 0 1 1394.79 696)">
   <path d="M22.4121-6.68945Q19.7754-6.68945 18.2861-8.1543Q16.7969-9.61914 16.7969-12.3047L16.7969-14.7949L27.9297-24.6094Q29.1992-25.6836 30.5176-26.2451Q31.8359-26.8066 33.1055-26.8066Q36.1328-26.8066 38.623-24.5605L45.9961-17.9199L64.209-34.1797Q66.8945-36.5723 70.3125-36.5723Q73.6816-36.5723 76.2695-34.1309L93.3105-18.1641L93.3105-12.207Q93.3105-9.61914 91.8213-8.1543Q90.332-6.68945 87.793-6.68945ZM39.1602-34.1309Q35.2051-34.1309 32.3975-36.9385Q29.5898-39.7461 29.5898-43.6523Q29.5898-47.5586 32.3975-50.3906Q35.2051-53.2227 39.1602-53.2227Q43.0664-53.2227 45.8496-50.3906Q48.6328-47.5586 48.6328-43.6523Q48.6328-39.7461 45.8496-36.9385Q43.0664-34.1309 39.1602-34.1309ZM22.2168 0.390625L87.8906 0.390625Q94.1895 0.390625 97.2656-2.68555Q100.342-5.76172 100.342-11.9141L100.342-58.4961Q100.342-64.6484 97.2656-67.7246Q94.1895-70.8008 87.8906-70.8008L22.2168-70.8008Q16.0156-70.8008 12.8906-67.7246Q9.76562-64.6484 9.76562-58.4961L9.76562-11.9141Q9.76562-5.76172 12.8906-2.68555Q16.0156 0.390625 22.2168 0.390625Z"/>
  </g>
  <g id="Light-S" transform="matrix(1 0 0 1 1098.43 696)">
   <path d="M21.4434-5.72077Q18.5038-5.72077 16.8481-7.3597Q15.1924-8.99862 15.1924-11.9718L15.1924-14.1441L27.4302-24.776Q28.73-25.8804 30.0635-26.4646Q31.397-27.0487 32.6665-27.0487Q35.6483-27.0487 38.2143-24.7118L45.4511-18.147L63.7398-34.2857Q66.6674-36.8297 69.9946-36.8297Q73.394-36.8297 76.209-34.2369L94.2187-17.6646L94.2187-11.9044Q94.2187-8.99862 92.563-7.3597Q90.9073-5.72077 88.0351-5.72077ZM37.9039-34.358Q34.0243-34.358 31.2622-37.1202Q28.5001-39.8824 28.5001-43.7281Q28.5001-47.5739 31.2622-50.3528Q34.0243-53.1319 37.9039-53.1319Q41.7496-53.1319 44.4874-50.3528Q47.2252-47.5739 47.2252-43.7281Q47.2252-39.8824 44.4874-37.1202Q41.7496-34.358 37.9039-34.358ZM21.3994-0.290427L88.0117-0.290427Q93.8566-0.290427 96.751-3.20015Q99.6456-6.10987 99.6456-11.8233L99.6456-58.6172Q99.6456-64.3305 96.751-67.2403Q93.8566-70.15 88.0117-70.15L21.3994-70.15Q15.6219-70.15 12.6938-67.2554Q9.76562-64.3608 9.76562-58.6172L9.76562-11.8233Q9.76562-6.07961 12.6938-3.18502Q15.6219-0.290427 21.3994-0.290427Z"/>
  </g>
  <g id="Thin-S" transform="matrix(1 0 0 1 802.177 696)">
   <path d="M20.1623-4.43962Q16.8221-4.43962 14.9462-6.30877Q13.0704-8.17792 13.0704-11.5315L13.0704-13.2834L26.7696-24.9963Q28.1094-26.1408 29.4629-26.7548Q30.8164-27.369 32.086-27.369Q35.0076-27.369 37.6738-24.912L44.7303-18.4474L63.1192-34.426Q66.367-37.1701 69.5742-37.1701Q73.0136-37.1701 76.129-34.3772L95.4198-17.004L95.4198-11.5041Q95.4198-8.17792 93.544-6.30877Q91.6681-4.43962 88.3553-4.43962ZM36.2423-34.6584Q32.4627-34.6584 29.7608-37.3605Q27.0588-40.0627 27.0588-43.8284Q27.0588-47.5941 29.7608-50.3029Q32.4627-53.0118 36.2423-53.0118Q40.0079-53.0118 42.6857-50.3029Q45.3635-47.5941 45.3635-43.8284Q45.3635-40.0627 42.6857-37.3605Q40.0079-34.6584 36.2423-34.6584ZM20.3184-1.19117L88.1718-1.19117Q93.4163-1.19117 96.0704-3.88075Q98.7246-6.57033 98.7246-11.7032L98.7246-58.7773Q98.7246-63.9101 96.0704-66.5997Q93.4163-69.2893 88.1718-69.2893L20.3184-69.2893Q15.1013-69.2893 12.4334-66.6348Q9.76562-63.9804 9.76562-58.7773L9.76562-11.7032Q9.76562-6.50005 12.4334-3.84561Q15.1013-1.19117 20.3184-1.19117Z"/>
  </g>
  <g id="Ultralight-S" transform="matrix(1 0 0 1 505.702 696)">
   <path d="M19.5061-3.78342Q15.9607-3.78342 13.9721-5.77049Q11.9835-7.75757 11.9835-11.306L11.9835-12.8426L26.4313-25.1091Q27.7916-26.2741 29.1553-26.9035Q30.5191-27.533 31.7886-27.533Q34.6794-27.533 37.397-25.0145L44.3611-18.6012L62.8014-34.4978Q66.2132-37.3444 69.3588-37.3444Q72.8188-37.3444 76.088-34.449L96.035-16.6656L96.035-11.2991Q96.035-7.75757 94.0464-5.77049Q92.0578-3.78342 88.5193-3.78342ZM35.3912-34.8122Q31.6628-34.8122 28.9917-37.4836Q26.3206-40.155 26.3206-43.8797Q26.3206-47.6044 28.9917-50.2773Q31.6628-52.9503 35.3912-52.9503Q39.1159-52.9503 41.7629-50.2773Q44.4099-47.6044 44.4099-43.8797Q44.4099-40.155 41.7629-37.4836Q39.1159-34.8122 35.3912-34.8122ZM19.7647-1.65253L88.2538-1.65253Q93.1908-1.65253 95.7218-4.22935Q98.2529-6.80618 98.2529-11.6417L98.2529-58.8593Q98.2529-63.6948 95.7218-66.2716Q93.1908-68.8484 88.2538-68.8484L19.7647-68.8484Q14.8346-68.8484 12.3001-66.317Q9.76562-63.7856 9.76562-58.8593L9.76562-11.6417Q9.76562-6.71539 12.3001-4.18396Q14.8346-1.65253 19.7647-1.65253Z"/>
  </g>
 </g>
</svg>
